<?xml version="1.0" encoding="utf-8" standalone="no"?>
<!DOCTYPE svg PUBLIC "-//W3C//DTD SVG 1.1//EN"
  "http://www.w3.org/Graphics/SVG/1.1/DTD/svg11.dtd">
<!-- Created with matplotlib (https://matplotlib.org/) -->
<svg height="360pt" version="1.1" viewBox="0 0 360 360" width="360pt" xmlns="http://www.w3.org/2000/svg" xmlns:xlink="http://www.w3.org/1999/xlink">
 <defs>
  <style type="text/css">
*{stroke-linecap:butt;stroke-linejoin:round;}
  </style>
 </defs>
 <g id="figure_1">
  <g id="patch_1">
   <path d="M 0 360 
L 360 360 
L 360 0 
L 0 0 
z
" style="fill:#ffffff;"/>
  </g>
  <g id="axes_1">
   <g id="patch_2">
    <path d="M 182.082744 55.037393 
C 182.067602 55.037393 182.05246 55.037396 182.037317 55.037401 
C 182.022175 55.037407 182.007033 55.037415 181.991891 55.037426 
L 182.082744 181.269976 
L 182.082744 55.037393 
z
" style="fill:#092436;opacity:0.5;stroke:#092436;stroke-linejoin:miter;"/>
   </g>
   <g id="patch_3">
    <path d="M 181.991891 55.037426 
C 181.970448 55.037441 181.949006 55.037462 181.927563 55.037488 
C 181.90612 55.037515 181.884678 55.037547 181.863235 55.037584 
L 182.082744 181.269976 
L 181.991891 55.037426 
z
" style="fill:#4c2604;opacity:0.5;stroke:#4c2604;stroke-linejoin:miter;"/>
   </g>
   <g id="patch_4">
    <path d="M 181.863235 55.037584 
C 181.839944 55.037624 181.816653 55.037671 181.793362 55.037725 
C 181.770071 55.037778 181.74678 55.037838 181.723489 55.037904 
L 182.082744 181.269976 
L 181.863235 55.037584 
z
" style="fill:#0d300d;opacity:0.5;stroke:#0d300d;stroke-linejoin:miter;"/>
   </g>
   <g id="patch_5">
    <path d="M 181.723489 55.037904 
C 181.684918 55.038014 181.646347 55.038141 181.607775 55.038287 
C 181.569204 55.038432 181.530633 55.038594 181.492062 55.038775 
L 182.082744 181.269976 
L 181.723489 55.037904 
z
" style="fill:#400c0c;opacity:0.5;stroke:#400c0c;stroke-linejoin:miter;"/>
   </g>
   <g id="patch_6">
    <path d="M 181.492062 55.038775 
C 181.452299 55.038961 181.412536 55.039166 181.372773 55.03939 
C 181.33301 55.039613 181.293247 55.039856 181.253485 55.040117 
L 182.082744 181.269976 
L 181.492062 55.038775 
z
" style="fill:#2c1f39;opacity:0.5;stroke:#2c1f39;stroke-linejoin:miter;"/>
   </g>
   <g id="patch_7">
    <path d="M 181.253485 55.040117 
C 181.20934 55.040407 181.165195 55.04072 181.12105 55.041056 
C 181.076905 55.041393 181.03276 55.041752 180.988616 55.042135 
L 182.082744 181.269976 
L 181.253485 55.040117 
z
" style="fill:#2a1a16;opacity:0.5;stroke:#2a1a16;stroke-linejoin:miter;"/>
   </g>
   <g id="patch_8">
    <path d="M 180.988616 55.042135 
C 180.937049 55.042582 180.885483 55.04306 180.833917 55.04357 
C 180.782351 55.044081 180.730785 55.044622 180.67922 55.045196 
L 182.082744 181.269976 
L 180.988616 55.042135 
z
" style="fill:#44243a;opacity:0.5;stroke:#44243a;stroke-linejoin:miter;"/>
   </g>
   <g id="patch_9">
    <path d="M 180.67922 55.045196 
C 180.605691 55.046013 180.532162 55.046895 180.458634 55.047841 
C 180.385106 55.048787 180.311578 55.049798 180.238052 55.050872 
L 182.082744 181.269976 
L 180.67922 55.045196 
z
" style="fill:#262626;opacity:0.5;stroke:#262626;stroke-linejoin:miter;"/>
   </g>
   <g id="patch_10">
    <path d="M 180.238052 55.050872 
C 180.154056 55.0521 180.070062 55.053411 179.986068 55.054807 
C 179.902075 55.056202 179.818083 55.057681 179.734093 55.059244 
L 182.082744 181.269976 
L 180.238052 55.050872 
z
" style="fill:#38390a;opacity:0.5;stroke:#38390a;stroke-linejoin:miter;"/>
   </g>
   <g id="patch_11">
    <path d="M 179.734093 55.059244 
C 179.621628 55.061337 179.509166 55.06358 179.396708 55.065974 
C 179.284249 55.068367 179.171793 55.070911 179.059341 55.073605 
L 182.082744 181.269976 
L 179.734093 55.059244 
z
" style="fill:#07393e;opacity:0.5;stroke:#07393e;stroke-linejoin:miter;"/>
   </g>
   <g id="patch_12">
    <path d="M 179.059341 55.073605 
C 178.943251 55.076386 178.827164 55.079328 178.711082 55.082429 
C 178.595 55.085531 178.478922 55.088793 178.362848 55.092215 
L 182.082744 181.269976 
L 179.059341 55.073605 
z
" style="fill:#092436;opacity:0.5;stroke:#092436;stroke-linejoin:miter;"/>
   </g>
   <g id="patch_13">
    <path d="M 178.362848 55.092215 
C 178.23513 55.09598 178.107417 55.099939 177.97971 55.104093 
C 177.852003 55.108246 177.724303 55.112593 177.596609 55.117134 
L 182.082744 181.269976 
L 178.362848 55.092215 
z
" style="fill:#4c2604;opacity:0.5;stroke:#4c2604;stroke-linejoin:miter;"/>
   </g>
   <g id="patch_14">
    <path d="M 177.596609 55.117134 
C 177.452501 55.122258 177.308402 55.12763 177.164313 55.133248 
C 177.020223 55.138867 176.876143 55.144732 176.732073 55.150844 
L 182.082744 181.269976 
L 177.596609 55.117134 
z
" style="fill:#0d300d;opacity:0.5;stroke:#0d300d;stroke-linejoin:miter;"/>
   </g>
   <g id="patch_15">
    <path d="M 176.732073 55.150844 
C 176.555867 55.15832 176.379676 55.166165 176.203503 55.174379 
C 176.027329 55.182593 175.851173 55.191177 175.675035 55.200129 
L 182.082744 181.269976 
L 176.732073 55.150844 
z
" style="fill:#400c0c;opacity:0.5;stroke:#400c0c;stroke-linejoin:miter;"/>
   </g>
   <g id="patch_16">
    <path d="M 175.675035 55.200129 
C 175.454182 55.211354 175.233358 55.22316 175.012566 55.235546 
C 174.791775 55.247932 174.571016 55.260897 174.350292 55.274443 
L 182.082744 181.269976 
L 175.675035 55.200129 
z
" style="fill:#2c1f39;opacity:0.5;stroke:#2c1f39;stroke-linejoin:miter;"/>
   </g>
   <g id="patch_17">
    <path d="M 174.350292 55.274443 
C 174.11844 55.288672 173.886627 55.303541 173.654856 55.31905 
C 173.423085 55.334559 173.191358 55.350707 172.959676 55.367495 
L 182.082744 181.269976 
L 174.350292 55.274443 
z
" style="fill:#2a1a16;opacity:0.5;stroke:#2a1a16;stroke-linejoin:miter;"/>
   </g>
   <g id="patch_18">
    <path d="M 172.959676 55.367495 
C 172.675304 55.388101 172.391002 55.409671 172.106777 55.432203 
C 171.822551 55.454735 171.538402 55.478231 171.254335 55.502689 
L 182.082744 181.269976 
L 172.959676 55.367495 
z
" style="fill:#44243a;opacity:0.5;stroke:#44243a;stroke-linejoin:miter;"/>
   </g>
   <g id="patch_19">
    <path d="M 171.254335 55.502689 
C 170.876357 55.535232 170.498527 55.569479 170.120858 55.605429 
C 169.743189 55.641379 169.365683 55.679032 168.988353 55.718385 
L 182.082744 181.269976 
L 171.254335 55.502689 
z
" style="fill:#262626;opacity:0.5;stroke:#262626;stroke-linejoin:miter;"/>
   </g>
   <g id="patch_20">
    <path d="M 168.988353 55.718385 
C 168.461395 55.773344 167.934787 55.83162 167.408563 55.89321 
C 166.882338 55.9548 166.356506 56.019702 165.831098 56.087912 
L 182.082744 181.269976 
L 168.988353 55.718385 
z
" style="fill:#38390a;opacity:0.5;stroke:#38390a;stroke-linejoin:miter;"/>
   </g>
   <g id="patch_21">
    <path d="M 165.831098 56.087912 
C 164.961296 56.200834 164.092694 56.322817 163.225435 56.453844 
C 162.358175 56.58487 161.492305 56.724931 160.627964 56.874006 
L 182.082744 181.269976 
L 165.831098 56.087912 
z
" style="fill:#07393e;opacity:0.5;stroke:#07393e;stroke-linejoin:miter;"/>
   </g>
   <g id="patch_22">
    <path d="M 160.627964 56.874006 
C 159.679347 57.037615 158.732633 57.21207 157.788007 57.397337 
C 156.84338 57.582603 155.900904 57.778669 154.960763 57.985495 
L 182.082744 181.269976 
L 160.627964 56.874006 
z
" style="fill:#092436;opacity:0.5;stroke:#092436;stroke-linejoin:miter;"/>
   </g>
   <g id="patch_23">
    <path d="M 154.960763 57.985495 
C 154.008934 58.194893 153.059562 58.415307 152.112839 58.646692 
C 151.166115 58.878077 150.222102 59.120419 149.280991 59.373668 
L 182.082744 181.269976 
L 154.960763 57.985495 
z
" style="fill:#4c2604;opacity:0.5;stroke:#4c2604;stroke-linejoin:miter;"/>
   </g>
   <g id="patch_24">
    <path d="M 149.280991 59.373668 
C 148.263618 59.647438 147.249712 59.933935 146.239512 60.23309 
C 145.229312 60.532245 144.222897 60.844036 143.220504 61.168389 
L 182.082744 181.269976 
L 149.280991 59.373668 
z
" style="fill:#0d300d;opacity:0.5;stroke:#0d300d;stroke-linejoin:miter;"/>
   </g>
   <g id="patch_25">
    <path d="M 143.220504 61.168389 
C 142.161426 61.511083 141.106927 61.867771 140.057285 62.238359 
C 139.007642 62.608947 137.962948 62.993403 136.923475 63.391626 
L 182.082744 181.269976 
L 143.220504 61.168389 
z
" style="fill:#400c0c;opacity:0.5;stroke:#400c0c;stroke-linejoin:miter;"/>
   </g>
   <g id="patch_26">
    <path d="M 136.923475 63.391626 
C 135.304258 64.011949 133.697994 64.665569 132.105706 65.352071 
C 130.513419 66.038572 128.935445 66.757809 127.37279 67.509324 
L 182.082744 181.269976 
L 136.923475 63.391626 
z
" style="fill:#2c1f39;opacity:0.5;stroke:#2c1f39;stroke-linejoin:miter;"/>
   </g>
   <g id="patch_27">
    <path d="M 127.37279 67.509324 
C 125.548153 68.386831 123.744892 69.30811 121.964573 70.272361 
C 120.184253 71.236612 118.42739 72.243556 116.695508 73.292319 
L 182.082744 181.269976 
L 127.37279 67.509324 
z
" style="fill:#2a1a16;opacity:0.5;stroke:#2a1a16;stroke-linejoin:miter;"/>
   </g>
   <g id="patch_28">
    <path d="M 116.695508 73.292319 
C 114.508585 74.616638 112.362401 76.00709 110.259924 77.461751 
C 108.157448 78.916412 106.099649 80.434611 104.089376 82.014248 
L 182.082744 181.269976 
L 116.695508 73.292319 
z
" style="fill:#44243a;opacity:0.5;stroke:#44243a;stroke-linejoin:miter;"/>
   </g>
   <g id="patch_29">
    <path d="M 104.089376 82.014248 
C 101.89284 83.740246 99.754203 85.538684 97.677 87.406589 
C 95.599797 89.274494 93.585171 91.210837 91.636451 93.21242 
L 182.082744 181.269976 
L 104.089376 82.014248 
z
" style="fill:#262626;opacity:0.5;stroke:#262626;stroke-linejoin:miter;"/>
   </g>
   <g id="patch_30">
    <path d="M 91.636451 93.21242 
C 86.988305 97.986656 82.725461 103.121438 78.887897 108.568611 
C 75.050332 114.015783 71.65008 119.758266 68.719029 125.742206 
L 182.082744 181.269976 
L 91.636451 93.21242 
z
" style="fill:#38390a;opacity:0.5;stroke:#38390a;stroke-linejoin:miter;"/>
   </g>
   <g id="patch_31">
    <path d="M 68.719029 125.742206 
C 62.727739 137.973832 58.755384 151.094893 56.956275 164.595687 
C 55.157167 178.096481 55.554905 191.799898 58.13404 205.173615 
C 60.713176 218.547331 65.439874 231.415904 72.13052 243.279439 
C 78.821167 255.142975 87.387992 265.845842 97.498206 274.972276 
C 107.608421 284.098709 119.129395 291.528985 131.613584 296.974465 
C 144.097773 302.419946 157.381403 305.809194 170.948458 307.010553 
C 184.515513 308.211911 198.188012 307.209618 211.434834 304.04261 
C 224.681656 300.875602 237.329022 295.585425 248.885631 288.377581 
C 260.442241 281.169738 270.756488 272.138784 279.427706 261.635536 
C 288.098924 251.132288 295.013359 239.294534 299.902412 226.582123 
C 304.791466 213.869712 307.591 200.449412 308.192265 186.842549 
C 308.79353 173.235687 307.188638 159.620763 303.439932 146.526663 
C 299.691226 133.432564 293.847885 121.031064 286.136898 109.803914 
C 278.42591 98.576763 268.948435 88.671245 258.072633 80.47215 
C 247.196831 72.273054 235.065377 65.887942 222.14953 61.564848 
C 209.233683 57.241754 195.702881 55.037393 182.08274 55.037393 
L 182.082744 181.269976 
L 68.719029 125.742206 
z
" style="fill:#07393e;opacity:0.5;stroke:#07393e;stroke-linejoin:miter;"/>
   </g>
   <g id="patch_32">
    <path d="M 184.607395 52.512741 
C 184.592253 52.512741 184.577111 52.512744 184.561969 52.512749 
C 184.546827 52.512755 184.531685 52.512763 184.516543 52.512774 
L 184.607395 178.745324 
L 184.607395 52.512741 
z
" style="fill:#1f77b4;"/>
   </g>
   <g id="patch_33">
    <path d="M 184.516543 52.512774 
C 184.4951 52.512789 184.473657 52.51281 184.452215 52.512837 
C 184.430772 52.512863 184.409329 52.512895 184.387887 52.512932 
L 184.607395 178.745324 
L 184.516543 52.512774 
z
" style="fill:#ff7f0e;"/>
   </g>
   <g id="patch_34">
    <path d="M 184.387887 52.512932 
C 184.364596 52.512973 184.341305 52.51302 184.318014 52.513073 
C 184.294723 52.513126 184.271432 52.513186 184.248141 52.513253 
L 184.607395 178.745324 
L 184.387887 52.512932 
z
" style="fill:#2ca02c;"/>
   </g>
   <g id="patch_35">
    <path d="M 184.248141 52.513253 
C 184.209569 52.513362 184.170998 52.51349 184.132427 52.513635 
C 184.093856 52.51378 184.055285 52.513943 184.016714 52.514123 
L 184.607395 178.745324 
L 184.248141 52.513253 
z
" style="fill:#d62728;"/>
   </g>
   <g id="patch_36">
    <path d="M 184.016714 52.514123 
C 183.976951 52.514309 183.937188 52.514514 183.897425 52.514738 
C 183.857662 52.514962 183.817899 52.515204 183.778136 52.515465 
L 184.607395 178.745324 
L 184.016714 52.514123 
z
" style="fill:#9467bd;"/>
   </g>
   <g id="patch_37">
    <path d="M 183.778136 52.515465 
C 183.733991 52.515755 183.689846 52.516068 183.645701 52.516405 
C 183.601557 52.516741 183.557412 52.5171 183.513268 52.517483 
L 184.607395 178.745324 
L 183.778136 52.515465 
z
" style="fill:#8c564b;"/>
   </g>
   <g id="patch_38">
    <path d="M 183.513268 52.517483 
C 183.461701 52.51793 183.410135 52.518409 183.358569 52.518919 
C 183.307003 52.519429 183.255437 52.519971 183.203872 52.520544 
L 184.607395 178.745324 
L 183.513268 52.517483 
z
" style="fill:#e377c2;"/>
   </g>
   <g id="patch_39">
    <path d="M 183.203872 52.520544 
C 183.130342 52.521362 183.056813 52.522244 182.983285 52.52319 
C 182.909757 52.524136 182.83623 52.525146 182.762704 52.526221 
L 184.607395 178.745324 
L 183.203872 52.520544 
z
" style="fill:#7f7f7f;"/>
   </g>
   <g id="patch_40">
    <path d="M 182.762704 52.526221 
C 182.678708 52.527448 182.594713 52.52876 182.51072 52.530155 
C 182.426727 52.53155 182.342735 52.533029 182.258745 52.534592 
L 184.607395 178.745324 
L 182.762704 52.526221 
z
" style="fill:#bcbd22;"/>
   </g>
   <g id="patch_41">
    <path d="M 182.258745 52.534592 
C 182.14628 52.536685 182.033818 52.538928 181.921359 52.541322 
C 181.8089 52.543715 181.696445 52.546259 181.583993 52.548953 
L 184.607395 178.745324 
L 182.258745 52.534592 
z
" style="fill:#17becf;"/>
   </g>
   <g id="patch_42">
    <path d="M 181.583993 52.548953 
C 181.467902 52.551735 181.351816 52.554676 181.235734 52.557778 
C 181.119651 52.560879 181.003573 52.564141 180.8875 52.567563 
L 184.607395 178.745324 
L 181.583993 52.548953 
z
" style="fill:#1f77b4;"/>
   </g>
   <g id="patch_43">
    <path d="M 180.8875 52.567563 
C 180.759781 52.571329 180.632068 52.575288 180.504362 52.579441 
C 180.376655 52.583594 180.248955 52.587941 180.121261 52.592482 
L 184.607395 178.745324 
L 180.8875 52.567563 
z
" style="fill:#ff7f0e;"/>
   </g>
   <g id="patch_44">
    <path d="M 180.121261 52.592482 
C 179.977153 52.597607 179.833054 52.602978 179.688964 52.608597 
C 179.544875 52.614215 179.400795 52.620081 179.256725 52.626193 
L 184.607395 178.745324 
L 180.121261 52.592482 
z
" style="fill:#2ca02c;"/>
   </g>
   <g id="patch_45">
    <path d="M 179.256725 52.626193 
C 179.080519 52.633668 178.904328 52.641513 178.728154 52.649727 
C 178.551981 52.657942 178.375825 52.666525 178.199687 52.675477 
L 184.607395 178.745324 
L 179.256725 52.626193 
z
" style="fill:#d62728;"/>
   </g>
   <g id="patch_46">
    <path d="M 178.199687 52.675477 
C 177.978833 52.686703 177.758009 52.698508 177.537218 52.710894 
C 177.316426 52.72328 177.095668 52.736246 176.874944 52.749792 
L 184.607395 178.745324 
L 178.199687 52.675477 
z
" style="fill:#9467bd;"/>
   </g>
   <g id="patch_47">
    <path d="M 176.874944 52.749792 
C 176.643091 52.764021 176.411278 52.77889 176.179507 52.794398 
C 175.947737 52.809907 175.716009 52.826056 175.484328 52.842844 
L 184.607395 178.745324 
L 176.874944 52.749792 
z
" style="fill:#8c564b;"/>
   </g>
   <g id="patch_48">
    <path d="M 175.484328 52.842844 
C 175.199956 52.86345 174.915654 52.885019 174.631428 52.907551 
C 174.347202 52.930084 174.063054 52.953579 173.778987 52.978037 
L 184.607395 178.745324 
L 175.484328 52.842844 
z
" style="fill:#e377c2;"/>
   </g>
   <g id="patch_49">
    <path d="M 173.778987 52.978037 
C 173.401009 53.01058 173.023179 53.044828 172.64551 53.080778 
C 172.26784 53.116728 171.890335 53.15438 171.513005 53.193734 
L 184.607395 178.745324 
L 173.778987 52.978037 
z
" style="fill:#7f7f7f;"/>
   </g>
   <g id="patch_50">
    <path d="M 171.513005 53.193734 
C 170.986046 53.248693 170.459439 53.306969 169.933214 53.368558 
C 169.406989 53.430148 168.881158 53.49505 168.35575 53.563261 
L 184.607395 178.745324 
L 171.513005 53.193734 
z
" style="fill:#bcbd22;"/>
   </g>
   <g id="patch_51">
    <path d="M 168.35575 53.563261 
C 167.485948 53.676182 166.617346 53.798166 165.750086 53.929192 
C 164.882827 54.060218 164.016956 54.20028 163.152616 54.349354 
L 184.607395 178.745324 
L 168.35575 53.563261 
z
" style="fill:#17becf;"/>
   </g>
   <g id="patch_52">
    <path d="M 163.152616 54.349354 
C 162.203999 54.512963 161.257284 54.687419 160.312658 54.872685 
C 159.368032 55.057952 158.425556 55.254017 157.485415 55.460844 
L 184.607395 178.745324 
L 163.152616 54.349354 
z
" style="fill:#1f77b4;"/>
   </g>
   <g id="patch_53">
    <path d="M 157.485415 55.460844 
C 156.533586 55.670241 155.584214 55.890655 154.63749 56.12204 
C 153.690766 56.353426 152.746754 56.595767 151.805642 56.849016 
L 184.607395 178.745324 
L 157.485415 55.460844 
z
" style="fill:#ff7f0e;"/>
   </g>
   <g id="patch_54">
    <path d="M 151.805642 56.849016 
C 150.78827 57.122786 149.774364 57.409283 148.764164 57.708438 
C 147.753964 58.007594 146.747549 58.319384 145.745155 58.643737 
L 184.607395 178.745324 
L 151.805642 56.849016 
z
" style="fill:#2ca02c;"/>
   </g>
   <g id="patch_55">
    <path d="M 145.745155 58.643737 
C 144.686078 58.986431 143.631579 59.343119 142.581937 59.713707 
C 141.532294 60.084296 140.487599 60.468751 139.448127 60.866974 
L 184.607395 178.745324 
L 145.745155 58.643737 
z
" style="fill:#d62728;"/>
   </g>
   <g id="patch_56">
    <path d="M 139.448127 60.866974 
C 137.82891 61.487297 136.222646 62.140918 134.630358 62.827419 
C 133.03807 63.513921 131.460097 64.233158 129.897442 64.984672 
L 184.607395 178.745324 
L 139.448127 60.866974 
z
" style="fill:#9467bd;"/>
   </g>
   <g id="patch_57">
    <path d="M 129.897442 64.984672 
C 128.072805 65.862179 126.269544 66.783458 124.489224 67.747709 
C 122.708904 68.711961 120.952041 69.718905 119.220159 70.767668 
L 184.607395 178.745324 
L 129.897442 64.984672 
z
" style="fill:#8c564b;"/>
   </g>
   <g id="patch_58">
    <path d="M 119.220159 70.767668 
C 117.033237 72.091986 114.887053 73.482438 112.784576 74.937099 
C 110.682099 76.39176 108.624301 77.90996 106.614028 79.489596 
L 184.607395 178.745324 
L 119.220159 70.767668 
z
" style="fill:#e377c2;"/>
   </g>
   <g id="patch_59">
    <path d="M 106.614028 79.489596 
C 104.417491 81.215595 102.278855 83.014032 100.201652 84.881937 
C 98.124449 86.749842 96.109823 88.686185 94.161103 90.687768 
L 184.607395 178.745324 
L 106.614028 79.489596 
z
" style="fill:#7f7f7f;"/>
   </g>
   <g id="patch_60">
    <path d="M 94.161103 90.687768 
C 89.512957 95.462005 85.250113 100.596786 81.412548 106.043959 
C 77.574984 111.491132 74.174732 117.233615 71.243681 123.217554 
L 184.607395 178.745324 
L 94.161103 90.687768 
z
" style="fill:#bcbd22;"/>
   </g>
   <g id="patch_61">
    <path d="M 71.243681 123.217554 
C 65.252391 135.44918 61.280036 148.570241 59.480927 162.071035 
C 57.681818 175.571829 58.079557 189.275246 60.658692 202.648963 
C 63.237828 216.022679 67.964525 228.891252 74.655172 240.754788 
C 81.345819 252.618324 89.912643 263.32119 100.022858 272.447624 
C 110.133073 281.574058 121.654047 289.004333 134.138236 294.449814 
C 146.622425 299.895294 159.906055 303.284543 173.473109 304.485901 
C 187.040164 305.687259 200.712664 304.684967 213.959486 301.517959 
C 227.206308 298.350951 239.853674 293.060774 251.410283 285.85293 
C 262.966893 278.645086 273.28114 269.614132 281.952358 259.110884 
C 290.623576 248.607636 297.538011 236.769882 302.427064 224.057471 
C 307.316117 211.34506 310.115652 197.924761 310.716917 184.317898 
C 311.318182 170.711035 309.71329 157.096111 305.964584 144.002012 
C 302.215878 130.907912 296.372536 118.506413 288.661549 107.279262 
C 280.950562 96.052111 271.473086 86.146593 260.597284 77.947498 
C 249.721482 69.748403 237.590028 63.36329 224.674182 59.040196 
C 211.758335 54.717103 198.227532 52.512741 184.607392 52.512741 
L 184.607395 178.745324 
L 71.243681 123.217554 
z
" style="fill:#17becf;"/>
   </g>
   <g id="matplotlib.axis_1"/>
   <g id="matplotlib.axis_2"/>
   <g id="text_1">
    <!-- gamma proteobacterium SCGC AAA076-D13 (1.3%) -->
    <defs>
     <path d="M 45.40625 27.984375 
Q 45.40625 37.75 41.375 43.109375 
Q 37.359375 48.484375 30.078125 48.484375 
Q 22.859375 48.484375 18.828125 43.109375 
Q 14.796875 37.75 14.796875 27.984375 
Q 14.796875 18.265625 18.828125 12.890625 
Q 22.859375 7.515625 30.078125 7.515625 
Q 37.359375 7.515625 41.375 12.890625 
Q 45.40625 18.265625 45.40625 27.984375 
z
M 54.390625 6.78125 
Q 54.390625 -7.171875 48.1875 -13.984375 
Q 42 -20.796875 29.203125 -20.796875 
Q 24.46875 -20.796875 20.265625 -20.09375 
Q 16.0625 -19.390625 12.109375 -17.921875 
L 12.109375 -9.1875 
Q 16.0625 -11.328125 19.921875 -12.34375 
Q 23.78125 -13.375 27.78125 -13.375 
Q 36.625 -13.375 41.015625 -8.765625 
Q 45.40625 -4.15625 45.40625 5.171875 
L 45.40625 9.625 
Q 42.625 4.78125 38.28125 2.390625 
Q 33.9375 0 27.875 0 
Q 17.828125 0 11.671875 7.65625 
Q 5.515625 15.328125 5.515625 27.984375 
Q 5.515625 40.671875 11.671875 48.328125 
Q 17.828125 56 27.875 56 
Q 33.9375 56 38.28125 53.609375 
Q 42.625 51.21875 45.40625 46.390625 
L 45.40625 54.6875 
L 54.390625 54.6875 
z
" id="DejaVuSans-103"/>
     <path d="M 34.28125 27.484375 
Q 23.390625 27.484375 19.1875 25 
Q 14.984375 22.515625 14.984375 16.5 
Q 14.984375 11.71875 18.140625 8.90625 
Q 21.296875 6.109375 26.703125 6.109375 
Q 34.1875 6.109375 38.703125 11.40625 
Q 43.21875 16.703125 43.21875 25.484375 
L 43.21875 27.484375 
z
M 52.203125 31.203125 
L 52.203125 0 
L 43.21875 0 
L 43.21875 8.296875 
Q 40.140625 3.328125 35.546875 0.953125 
Q 30.953125 -1.421875 24.3125 -1.421875 
Q 15.921875 -1.421875 10.953125 3.296875 
Q 6 8.015625 6 15.921875 
Q 6 25.140625 12.171875 29.828125 
Q 18.359375 34.515625 30.609375 34.515625 
L 43.21875 34.515625 
L 43.21875 35.40625 
Q 43.21875 41.609375 39.140625 45 
Q 35.0625 48.390625 27.6875 48.390625 
Q 23 48.390625 18.546875 47.265625 
Q 14.109375 46.140625 10.015625 43.890625 
L 10.015625 52.203125 
Q 14.9375 54.109375 19.578125 55.046875 
Q 24.21875 56 28.609375 56 
Q 40.484375 56 46.34375 49.84375 
Q 52.203125 43.703125 52.203125 31.203125 
z
" id="DejaVuSans-97"/>
     <path d="M 52 44.1875 
Q 55.375 50.25 60.0625 53.125 
Q 64.75 56 71.09375 56 
Q 79.640625 56 84.28125 50.015625 
Q 88.921875 44.046875 88.921875 33.015625 
L 88.921875 0 
L 79.890625 0 
L 79.890625 32.71875 
Q 79.890625 40.578125 77.09375 44.375 
Q 74.3125 48.1875 68.609375 48.1875 
Q 61.625 48.1875 57.5625 43.546875 
Q 53.515625 38.921875 53.515625 30.90625 
L 53.515625 0 
L 44.484375 0 
L 44.484375 32.71875 
Q 44.484375 40.625 41.703125 44.40625 
Q 38.921875 48.1875 33.109375 48.1875 
Q 26.21875 48.1875 22.15625 43.53125 
Q 18.109375 38.875 18.109375 30.90625 
L 18.109375 0 
L 9.078125 0 
L 9.078125 54.6875 
L 18.109375 54.6875 
L 18.109375 46.1875 
Q 21.1875 51.21875 25.484375 53.609375 
Q 29.78125 56 35.6875 56 
Q 41.65625 56 45.828125 52.96875 
Q 50 49.953125 52 44.1875 
z
" id="DejaVuSans-109"/>
     <path id="DejaVuSans-32"/>
     <path d="M 18.109375 8.203125 
L 18.109375 -20.796875 
L 9.078125 -20.796875 
L 9.078125 54.6875 
L 18.109375 54.6875 
L 18.109375 46.390625 
Q 20.953125 51.265625 25.265625 53.625 
Q 29.59375 56 35.59375 56 
Q 45.5625 56 51.78125 48.09375 
Q 58.015625 40.1875 58.015625 27.296875 
Q 58.015625 14.40625 51.78125 6.484375 
Q 45.5625 -1.421875 35.59375 -1.421875 
Q 29.59375 -1.421875 25.265625 0.953125 
Q 20.953125 3.328125 18.109375 8.203125 
z
M 48.6875 27.296875 
Q 48.6875 37.203125 44.609375 42.84375 
Q 40.53125 48.484375 33.40625 48.484375 
Q 26.265625 48.484375 22.1875 42.84375 
Q 18.109375 37.203125 18.109375 27.296875 
Q 18.109375 17.390625 22.1875 11.75 
Q 26.265625 6.109375 33.40625 6.109375 
Q 40.53125 6.109375 44.609375 11.75 
Q 48.6875 17.390625 48.6875 27.296875 
z
" id="DejaVuSans-112"/>
     <path d="M 41.109375 46.296875 
Q 39.59375 47.171875 37.8125 47.578125 
Q 36.03125 48 33.890625 48 
Q 26.265625 48 22.1875 43.046875 
Q 18.109375 38.09375 18.109375 28.8125 
L 18.109375 0 
L 9.078125 0 
L 9.078125 54.6875 
L 18.109375 54.6875 
L 18.109375 46.1875 
Q 20.953125 51.171875 25.484375 53.578125 
Q 30.03125 56 36.53125 56 
Q 37.453125 56 38.578125 55.875 
Q 39.703125 55.765625 41.0625 55.515625 
z
" id="DejaVuSans-114"/>
     <path d="M 30.609375 48.390625 
Q 23.390625 48.390625 19.1875 42.75 
Q 14.984375 37.109375 14.984375 27.296875 
Q 14.984375 17.484375 19.15625 11.84375 
Q 23.34375 6.203125 30.609375 6.203125 
Q 37.796875 6.203125 41.984375 11.859375 
Q 46.1875 17.53125 46.1875 27.296875 
Q 46.1875 37.015625 41.984375 42.703125 
Q 37.796875 48.390625 30.609375 48.390625 
z
M 30.609375 56 
Q 42.328125 56 49.015625 48.375 
Q 55.71875 40.765625 55.71875 27.296875 
Q 55.71875 13.875 49.015625 6.21875 
Q 42.328125 -1.421875 30.609375 -1.421875 
Q 18.84375 -1.421875 12.171875 6.21875 
Q 5.515625 13.875 5.515625 27.296875 
Q 5.515625 40.765625 12.171875 48.375 
Q 18.84375 56 30.609375 56 
z
" id="DejaVuSans-111"/>
     <path d="M 18.3125 70.21875 
L 18.3125 54.6875 
L 36.8125 54.6875 
L 36.8125 47.703125 
L 18.3125 47.703125 
L 18.3125 18.015625 
Q 18.3125 11.328125 20.140625 9.421875 
Q 21.96875 7.515625 27.59375 7.515625 
L 36.8125 7.515625 
L 36.8125 0 
L 27.59375 0 
Q 17.1875 0 13.234375 3.875 
Q 9.28125 7.765625 9.28125 18.015625 
L 9.28125 47.703125 
L 2.6875 47.703125 
L 2.6875 54.6875 
L 9.28125 54.6875 
L 9.28125 70.21875 
z
" id="DejaVuSans-116"/>
     <path d="M 56.203125 29.59375 
L 56.203125 25.203125 
L 14.890625 25.203125 
Q 15.484375 15.921875 20.484375 11.0625 
Q 25.484375 6.203125 34.421875 6.203125 
Q 39.59375 6.203125 44.453125 7.46875 
Q 49.3125 8.734375 54.109375 11.28125 
L 54.109375 2.78125 
Q 49.265625 0.734375 44.1875 -0.34375 
Q 39.109375 -1.421875 33.890625 -1.421875 
Q 20.796875 -1.421875 13.15625 6.1875 
Q 5.515625 13.8125 5.515625 26.8125 
Q 5.515625 40.234375 12.765625 48.109375 
Q 20.015625 56 32.328125 56 
Q 43.359375 56 49.78125 48.890625 
Q 56.203125 41.796875 56.203125 29.59375 
z
M 47.21875 32.234375 
Q 47.125 39.59375 43.09375 43.984375 
Q 39.0625 48.390625 32.421875 48.390625 
Q 24.90625 48.390625 20.390625 44.140625 
Q 15.875 39.890625 15.1875 32.171875 
z
" id="DejaVuSans-101"/>
     <path d="M 48.6875 27.296875 
Q 48.6875 37.203125 44.609375 42.84375 
Q 40.53125 48.484375 33.40625 48.484375 
Q 26.265625 48.484375 22.1875 42.84375 
Q 18.109375 37.203125 18.109375 27.296875 
Q 18.109375 17.390625 22.1875 11.75 
Q 26.265625 6.109375 33.40625 6.109375 
Q 40.53125 6.109375 44.609375 11.75 
Q 48.6875 17.390625 48.6875 27.296875 
z
M 18.109375 46.390625 
Q 20.953125 51.265625 25.265625 53.625 
Q 29.59375 56 35.59375 56 
Q 45.5625 56 51.78125 48.09375 
Q 58.015625 40.1875 58.015625 27.296875 
Q 58.015625 14.40625 51.78125 6.484375 
Q 45.5625 -1.421875 35.59375 -1.421875 
Q 29.59375 -1.421875 25.265625 0.953125 
Q 20.953125 3.328125 18.109375 8.203125 
L 18.109375 0 
L 9.078125 0 
L 9.078125 75.984375 
L 18.109375 75.984375 
z
" id="DejaVuSans-98"/>
     <path d="M 48.78125 52.59375 
L 48.78125 44.1875 
Q 44.96875 46.296875 41.140625 47.34375 
Q 37.3125 48.390625 33.40625 48.390625 
Q 24.65625 48.390625 19.8125 42.84375 
Q 14.984375 37.3125 14.984375 27.296875 
Q 14.984375 17.28125 19.8125 11.734375 
Q 24.65625 6.203125 33.40625 6.203125 
Q 37.3125 6.203125 41.140625 7.25 
Q 44.96875 8.296875 48.78125 10.40625 
L 48.78125 2.09375 
Q 45.015625 0.34375 40.984375 -0.53125 
Q 36.96875 -1.421875 32.421875 -1.421875 
Q 20.0625 -1.421875 12.78125 6.34375 
Q 5.515625 14.109375 5.515625 27.296875 
Q 5.515625 40.671875 12.859375 48.328125 
Q 20.21875 56 33.015625 56 
Q 37.15625 56 41.109375 55.140625 
Q 45.0625 54.296875 48.78125 52.59375 
z
" id="DejaVuSans-99"/>
     <path d="M 9.421875 54.6875 
L 18.40625 54.6875 
L 18.40625 0 
L 9.421875 0 
z
M 9.421875 75.984375 
L 18.40625 75.984375 
L 18.40625 64.59375 
L 9.421875 64.59375 
z
" id="DejaVuSans-105"/>
     <path d="M 8.5 21.578125 
L 8.5 54.6875 
L 17.484375 54.6875 
L 17.484375 21.921875 
Q 17.484375 14.15625 20.5 10.265625 
Q 23.53125 6.390625 29.59375 6.390625 
Q 36.859375 6.390625 41.078125 11.03125 
Q 45.3125 15.671875 45.3125 23.6875 
L 45.3125 54.6875 
L 54.296875 54.6875 
L 54.296875 0 
L 45.3125 0 
L 45.3125 8.40625 
Q 42.046875 3.421875 37.71875 1 
Q 33.40625 -1.421875 27.6875 -1.421875 
Q 18.265625 -1.421875 13.375 4.4375 
Q 8.5 10.296875 8.5 21.578125 
z
M 31.109375 56 
z
" id="DejaVuSans-117"/>
     <path d="M 53.515625 70.515625 
L 53.515625 60.890625 
Q 47.90625 63.578125 42.921875 64.890625 
Q 37.9375 66.21875 33.296875 66.21875 
Q 25.25 66.21875 20.875 63.09375 
Q 16.5 59.96875 16.5 54.203125 
Q 16.5 49.359375 19.40625 46.890625 
Q 22.3125 44.4375 30.421875 42.921875 
L 36.375 41.703125 
Q 47.40625 39.59375 52.65625 34.296875 
Q 57.90625 29 57.90625 20.125 
Q 57.90625 9.515625 50.796875 4.046875 
Q 43.703125 -1.421875 29.984375 -1.421875 
Q 24.8125 -1.421875 18.96875 -0.25 
Q 13.140625 0.921875 6.890625 3.21875 
L 6.890625 13.375 
Q 12.890625 10.015625 18.65625 8.296875 
Q 24.421875 6.59375 29.984375 6.59375 
Q 38.421875 6.59375 43.015625 9.90625 
Q 47.609375 13.234375 47.609375 19.390625 
Q 47.609375 24.75 44.3125 27.78125 
Q 41.015625 30.8125 33.5 32.328125 
L 27.484375 33.5 
Q 16.453125 35.6875 11.515625 40.375 
Q 6.59375 45.0625 6.59375 53.421875 
Q 6.59375 63.09375 13.40625 68.65625 
Q 20.21875 74.21875 32.171875 74.21875 
Q 37.3125 74.21875 42.625 73.28125 
Q 47.953125 72.359375 53.515625 70.515625 
z
" id="DejaVuSans-83"/>
     <path d="M 64.40625 67.28125 
L 64.40625 56.890625 
Q 59.421875 61.53125 53.78125 63.8125 
Q 48.140625 66.109375 41.796875 66.109375 
Q 29.296875 66.109375 22.65625 58.46875 
Q 16.015625 50.828125 16.015625 36.375 
Q 16.015625 21.96875 22.65625 14.328125 
Q 29.296875 6.6875 41.796875 6.6875 
Q 48.140625 6.6875 53.78125 8.984375 
Q 59.421875 11.28125 64.40625 15.921875 
L 64.40625 5.609375 
Q 59.234375 2.09375 53.4375 0.328125 
Q 47.65625 -1.421875 41.21875 -1.421875 
Q 24.65625 -1.421875 15.125 8.703125 
Q 5.609375 18.84375 5.609375 36.375 
Q 5.609375 53.953125 15.125 64.078125 
Q 24.65625 74.21875 41.21875 74.21875 
Q 47.75 74.21875 53.53125 72.484375 
Q 59.328125 70.75 64.40625 67.28125 
z
" id="DejaVuSans-67"/>
     <path d="M 59.515625 10.40625 
L 59.515625 29.984375 
L 43.40625 29.984375 
L 43.40625 38.09375 
L 69.28125 38.09375 
L 69.28125 6.78125 
Q 63.578125 2.734375 56.6875 0.65625 
Q 49.8125 -1.421875 42 -1.421875 
Q 24.90625 -1.421875 15.25 8.5625 
Q 5.609375 18.5625 5.609375 36.375 
Q 5.609375 54.25 15.25 64.234375 
Q 24.90625 74.21875 42 74.21875 
Q 49.125 74.21875 55.546875 72.453125 
Q 61.96875 70.703125 67.390625 67.28125 
L 67.390625 56.78125 
Q 61.921875 61.421875 55.765625 63.765625 
Q 49.609375 66.109375 42.828125 66.109375 
Q 29.4375 66.109375 22.71875 58.640625 
Q 16.015625 51.171875 16.015625 36.375 
Q 16.015625 21.625 22.71875 14.15625 
Q 29.4375 6.6875 42.828125 6.6875 
Q 48.046875 6.6875 52.140625 7.59375 
Q 56.25 8.5 59.515625 10.40625 
z
" id="DejaVuSans-71"/>
     <path d="M 34.1875 63.1875 
L 20.796875 26.90625 
L 47.609375 26.90625 
z
M 28.609375 72.90625 
L 39.796875 72.90625 
L 67.578125 0 
L 57.328125 0 
L 50.6875 18.703125 
L 17.828125 18.703125 
L 11.1875 0 
L 0.78125 0 
z
" id="DejaVuSans-65"/>
     <path d="M 31.78125 66.40625 
Q 24.171875 66.40625 20.328125 58.90625 
Q 16.5 51.421875 16.5 36.375 
Q 16.5 21.390625 20.328125 13.890625 
Q 24.171875 6.390625 31.78125 6.390625 
Q 39.453125 6.390625 43.28125 13.890625 
Q 47.125 21.390625 47.125 36.375 
Q 47.125 51.421875 43.28125 58.90625 
Q 39.453125 66.40625 31.78125 66.40625 
z
M 31.78125 74.21875 
Q 44.046875 74.21875 50.515625 64.515625 
Q 56.984375 54.828125 56.984375 36.375 
Q 56.984375 17.96875 50.515625 8.265625 
Q 44.046875 -1.421875 31.78125 -1.421875 
Q 19.53125 -1.421875 13.0625 8.265625 
Q 6.59375 17.96875 6.59375 36.375 
Q 6.59375 54.828125 13.0625 64.515625 
Q 19.53125 74.21875 31.78125 74.21875 
z
" id="DejaVuSans-48"/>
     <path d="M 8.203125 72.90625 
L 55.078125 72.90625 
L 55.078125 68.703125 
L 28.609375 0 
L 18.3125 0 
L 43.21875 64.59375 
L 8.203125 64.59375 
z
" id="DejaVuSans-55"/>
     <path d="M 33.015625 40.375 
Q 26.375 40.375 22.484375 35.828125 
Q 18.609375 31.296875 18.609375 23.390625 
Q 18.609375 15.53125 22.484375 10.953125 
Q 26.375 6.390625 33.015625 6.390625 
Q 39.65625 6.390625 43.53125 10.953125 
Q 47.40625 15.53125 47.40625 23.390625 
Q 47.40625 31.296875 43.53125 35.828125 
Q 39.65625 40.375 33.015625 40.375 
z
M 52.59375 71.296875 
L 52.59375 62.3125 
Q 48.875 64.0625 45.09375 64.984375 
Q 41.3125 65.921875 37.59375 65.921875 
Q 27.828125 65.921875 22.671875 59.328125 
Q 17.53125 52.734375 16.796875 39.40625 
Q 19.671875 43.65625 24.015625 45.921875 
Q 28.375 48.1875 33.59375 48.1875 
Q 44.578125 48.1875 50.953125 41.515625 
Q 57.328125 34.859375 57.328125 23.390625 
Q 57.328125 12.15625 50.6875 5.359375 
Q 44.046875 -1.421875 33.015625 -1.421875 
Q 20.359375 -1.421875 13.671875 8.265625 
Q 6.984375 17.96875 6.984375 36.375 
Q 6.984375 53.65625 15.1875 63.9375 
Q 23.390625 74.21875 37.203125 74.21875 
Q 40.921875 74.21875 44.703125 73.484375 
Q 48.484375 72.75 52.59375 71.296875 
z
" id="DejaVuSans-54"/>
     <path d="M 4.890625 31.390625 
L 31.203125 31.390625 
L 31.203125 23.390625 
L 4.890625 23.390625 
z
" id="DejaVuSans-45"/>
     <path d="M 19.671875 64.796875 
L 19.671875 8.109375 
L 31.59375 8.109375 
Q 46.6875 8.109375 53.6875 14.9375 
Q 60.6875 21.78125 60.6875 36.53125 
Q 60.6875 51.171875 53.6875 57.984375 
Q 46.6875 64.796875 31.59375 64.796875 
z
M 9.8125 72.90625 
L 30.078125 72.90625 
Q 51.265625 72.90625 61.171875 64.09375 
Q 71.09375 55.28125 71.09375 36.53125 
Q 71.09375 17.671875 61.125 8.828125 
Q 51.171875 0 30.078125 0 
L 9.8125 0 
z
" id="DejaVuSans-68"/>
     <path d="M 12.40625 8.296875 
L 28.515625 8.296875 
L 28.515625 63.921875 
L 10.984375 60.40625 
L 10.984375 69.390625 
L 28.421875 72.90625 
L 38.28125 72.90625 
L 38.28125 8.296875 
L 54.390625 8.296875 
L 54.390625 0 
L 12.40625 0 
z
" id="DejaVuSans-49"/>
     <path d="M 40.578125 39.3125 
Q 47.65625 37.796875 51.625 33 
Q 55.609375 28.21875 55.609375 21.1875 
Q 55.609375 10.40625 48.1875 4.484375 
Q 40.765625 -1.421875 27.09375 -1.421875 
Q 22.515625 -1.421875 17.65625 -0.515625 
Q 12.796875 0.390625 7.625 2.203125 
L 7.625 11.71875 
Q 11.71875 9.328125 16.59375 8.109375 
Q 21.484375 6.890625 26.8125 6.890625 
Q 36.078125 6.890625 40.9375 10.546875 
Q 45.796875 14.203125 45.796875 21.1875 
Q 45.796875 27.640625 41.28125 31.265625 
Q 36.765625 34.90625 28.71875 34.90625 
L 20.21875 34.90625 
L 20.21875 43.015625 
L 29.109375 43.015625 
Q 36.375 43.015625 40.234375 45.921875 
Q 44.09375 48.828125 44.09375 54.296875 
Q 44.09375 59.90625 40.109375 62.90625 
Q 36.140625 65.921875 28.71875 65.921875 
Q 24.65625 65.921875 20.015625 65.03125 
Q 15.375 64.15625 9.8125 62.3125 
L 9.8125 71.09375 
Q 15.4375 72.65625 20.34375 73.4375 
Q 25.25 74.21875 29.59375 74.21875 
Q 40.828125 74.21875 47.359375 69.109375 
Q 53.90625 64.015625 53.90625 55.328125 
Q 53.90625 49.265625 50.4375 45.09375 
Q 46.96875 40.921875 40.578125 39.3125 
z
" id="DejaVuSans-51"/>
     <path d="M 31 75.875 
Q 24.46875 64.65625 21.28125 53.65625 
Q 18.109375 42.671875 18.109375 31.390625 
Q 18.109375 20.125 21.3125 9.0625 
Q 24.515625 -2 31 -13.1875 
L 23.1875 -13.1875 
Q 15.875 -1.703125 12.234375 9.375 
Q 8.59375 20.453125 8.59375 31.390625 
Q 8.59375 42.28125 12.203125 53.3125 
Q 15.828125 64.359375 23.1875 75.875 
z
" id="DejaVuSans-40"/>
     <path d="M 10.6875 12.40625 
L 21 12.40625 
L 21 0 
L 10.6875 0 
z
" id="DejaVuSans-46"/>
     <path d="M 72.703125 32.078125 
Q 68.453125 32.078125 66.03125 28.46875 
Q 63.625 24.859375 63.625 18.40625 
Q 63.625 12.0625 66.03125 8.421875 
Q 68.453125 4.78125 72.703125 4.78125 
Q 76.859375 4.78125 79.265625 8.421875 
Q 81.6875 12.0625 81.6875 18.40625 
Q 81.6875 24.8125 79.265625 28.4375 
Q 76.859375 32.078125 72.703125 32.078125 
z
M 72.703125 38.28125 
Q 80.421875 38.28125 84.953125 32.90625 
Q 89.5 27.546875 89.5 18.40625 
Q 89.5 9.28125 84.9375 3.921875 
Q 80.375 -1.421875 72.703125 -1.421875 
Q 64.890625 -1.421875 60.34375 3.921875 
Q 55.8125 9.28125 55.8125 18.40625 
Q 55.8125 27.59375 60.375 32.9375 
Q 64.9375 38.28125 72.703125 38.28125 
z
M 22.3125 68.015625 
Q 18.109375 68.015625 15.6875 64.375 
Q 13.28125 60.75 13.28125 54.390625 
Q 13.28125 47.953125 15.671875 44.328125 
Q 18.0625 40.71875 22.3125 40.71875 
Q 26.5625 40.71875 28.96875 44.328125 
Q 31.390625 47.953125 31.390625 54.390625 
Q 31.390625 60.6875 28.953125 64.34375 
Q 26.515625 68.015625 22.3125 68.015625 
z
M 66.40625 74.21875 
L 74.21875 74.21875 
L 28.609375 -1.421875 
L 20.796875 -1.421875 
z
M 22.3125 74.21875 
Q 30.03125 74.21875 34.609375 68.875 
Q 39.203125 63.53125 39.203125 54.390625 
Q 39.203125 45.171875 34.640625 39.84375 
Q 30.078125 34.515625 22.3125 34.515625 
Q 14.546875 34.515625 10.03125 39.859375 
Q 5.515625 45.21875 5.515625 54.390625 
Q 5.515625 63.484375 10.046875 68.84375 
Q 14.59375 74.21875 22.3125 74.21875 
z
" id="DejaVuSans-37"/>
     <path d="M 8.015625 75.875 
L 15.828125 75.875 
Q 23.140625 64.359375 26.78125 53.3125 
Q 30.421875 42.28125 30.421875 31.390625 
Q 30.421875 20.453125 26.78125 9.375 
Q 23.140625 -1.703125 15.828125 -13.1875 
L 8.015625 -13.1875 
Q 14.5 -2 17.703125 9.0625 
Q 20.90625 20.125 20.90625 31.390625 
Q 20.90625 42.671875 17.703125 53.65625 
Q 14.5 64.65625 8.015625 75.875 
z
" id="DejaVuSans-41"/>
    </defs>
    <g transform="translate(19.788411 -188.179136)rotate(-293.322887)scale(0.1 -0.1)">
     <use xlink:href="#DejaVuSans-103"/>
     <use x="63.476562" xlink:href="#DejaVuSans-97"/>
     <use x="124.755859" xlink:href="#DejaVuSans-109"/>
     <use x="222.167969" xlink:href="#DejaVuSans-109"/>
     <use x="319.580078" xlink:href="#DejaVuSans-97"/>
     <use x="380.859375" xlink:href="#DejaVuSans-32"/>
     <use x="412.646484" xlink:href="#DejaVuSans-112"/>
     <use x="476.123047" xlink:href="#DejaVuSans-114"/>
     <use x="514.986328" xlink:href="#DejaVuSans-111"/>
     <use x="576.167969" xlink:href="#DejaVuSans-116"/>
     <use x="615.376953" xlink:href="#DejaVuSans-101"/>
     <use x="676.900391" xlink:href="#DejaVuSans-111"/>
     <use x="738.082031" xlink:href="#DejaVuSans-98"/>
     <use x="801.558594" xlink:href="#DejaVuSans-97"/>
     <use x="862.837891" xlink:href="#DejaVuSans-99"/>
     <use x="917.818359" xlink:href="#DejaVuSans-116"/>
     <use x="957.027344" xlink:href="#DejaVuSans-101"/>
     <use x="1018.550781" xlink:href="#DejaVuSans-114"/>
     <use x="1059.664062" xlink:href="#DejaVuSans-105"/>
     <use x="1087.447266" xlink:href="#DejaVuSans-117"/>
     <use x="1150.826172" xlink:href="#DejaVuSans-109"/>
     <use x="1248.238281" xlink:href="#DejaVuSans-32"/>
     <use x="1280.025391" xlink:href="#DejaVuSans-83"/>
     <use x="1343.501953" xlink:href="#DejaVuSans-67"/>
     <use x="1413.326172" xlink:href="#DejaVuSans-71"/>
     <use x="1490.816406" xlink:href="#DejaVuSans-67"/>
     <use x="1560.640625" xlink:href="#DejaVuSans-32"/>
     <use x="1592.427734" xlink:href="#DejaVuSans-65"/>
     <use x="1663.585938" xlink:href="#DejaVuSans-65"/>
     <use x="1734.744141" xlink:href="#DejaVuSans-65"/>
     <use x="1803.152344" xlink:href="#DejaVuSans-48"/>
     <use x="1866.775391" xlink:href="#DejaVuSans-55"/>
     <use x="1930.398438" xlink:href="#DejaVuSans-54"/>
     <use x="1994.021484" xlink:href="#DejaVuSans-45"/>
     <use x="2030.105469" xlink:href="#DejaVuSans-68"/>
     <use x="2107.107422" xlink:href="#DejaVuSans-49"/>
     <use x="2170.730469" xlink:href="#DejaVuSans-51"/>
     <use x="2234.353516" xlink:href="#DejaVuSans-32"/>
     <use x="2266.140625" xlink:href="#DejaVuSans-40"/>
     <use x="2305.154297" xlink:href="#DejaVuSans-49"/>
     <use x="2368.777344" xlink:href="#DejaVuSans-46"/>
     <use x="2400.564453" xlink:href="#DejaVuSans-51"/>
     <use x="2464.1875" xlink:href="#DejaVuSans-37"/>
     <use x="2559.207031" xlink:href="#DejaVuSans-41"/>
    </g>
   </g>
   <g id="text_2">
    <!-- Erysipelotrichaceae bacterium 5_2_54FAA (1.5%) -->
    <defs>
     <path d="M 9.8125 72.90625 
L 55.90625 72.90625 
L 55.90625 64.59375 
L 19.671875 64.59375 
L 19.671875 43.015625 
L 54.390625 43.015625 
L 54.390625 34.71875 
L 19.671875 34.71875 
L 19.671875 8.296875 
L 56.78125 8.296875 
L 56.78125 0 
L 9.8125 0 
z
" id="DejaVuSans-69"/>
     <path d="M 32.171875 -5.078125 
Q 28.375 -14.84375 24.75 -17.8125 
Q 21.140625 -20.796875 15.09375 -20.796875 
L 7.90625 -20.796875 
L 7.90625 -13.28125 
L 13.1875 -13.28125 
Q 16.890625 -13.28125 18.9375 -11.515625 
Q 21 -9.765625 23.484375 -3.21875 
L 25.09375 0.875 
L 2.984375 54.6875 
L 12.5 54.6875 
L 29.59375 11.921875 
L 46.6875 54.6875 
L 56.203125 54.6875 
z
" id="DejaVuSans-121"/>
     <path d="M 44.28125 53.078125 
L 44.28125 44.578125 
Q 40.484375 46.53125 36.375 47.5 
Q 32.28125 48.484375 27.875 48.484375 
Q 21.1875 48.484375 17.84375 46.4375 
Q 14.5 44.390625 14.5 40.28125 
Q 14.5 37.15625 16.890625 35.375 
Q 19.28125 33.59375 26.515625 31.984375 
L 29.59375 31.296875 
Q 39.15625 29.25 43.1875 25.515625 
Q 47.21875 21.78125 47.21875 15.09375 
Q 47.21875 7.46875 41.1875 3.015625 
Q 35.15625 -1.421875 24.609375 -1.421875 
Q 20.21875 -1.421875 15.453125 -0.5625 
Q 10.6875 0.296875 5.421875 2 
L 5.421875 11.28125 
Q 10.40625 8.6875 15.234375 7.390625 
Q 20.0625 6.109375 24.8125 6.109375 
Q 31.15625 6.109375 34.5625 8.28125 
Q 37.984375 10.453125 37.984375 14.40625 
Q 37.984375 18.0625 35.515625 20.015625 
Q 33.0625 21.96875 24.703125 23.78125 
L 21.578125 24.515625 
Q 13.234375 26.265625 9.515625 29.90625 
Q 5.8125 33.546875 5.8125 39.890625 
Q 5.8125 47.609375 11.28125 51.796875 
Q 16.75 56 26.8125 56 
Q 31.78125 56 36.171875 55.265625 
Q 40.578125 54.546875 44.28125 53.078125 
z
" id="DejaVuSans-115"/>
     <path d="M 9.421875 75.984375 
L 18.40625 75.984375 
L 18.40625 0 
L 9.421875 0 
z
" id="DejaVuSans-108"/>
     <path d="M 54.890625 33.015625 
L 54.890625 0 
L 45.90625 0 
L 45.90625 32.71875 
Q 45.90625 40.484375 42.875 44.328125 
Q 39.84375 48.1875 33.796875 48.1875 
Q 26.515625 48.1875 22.3125 43.546875 
Q 18.109375 38.921875 18.109375 30.90625 
L 18.109375 0 
L 9.078125 0 
L 9.078125 75.984375 
L 18.109375 75.984375 
L 18.109375 46.1875 
Q 21.34375 51.125 25.703125 53.5625 
Q 30.078125 56 35.796875 56 
Q 45.21875 56 50.046875 50.171875 
Q 54.890625 44.34375 54.890625 33.015625 
z
" id="DejaVuSans-104"/>
     <path d="M 10.796875 72.90625 
L 49.515625 72.90625 
L 49.515625 64.59375 
L 19.828125 64.59375 
L 19.828125 46.734375 
Q 21.96875 47.46875 24.109375 47.828125 
Q 26.265625 48.1875 28.421875 48.1875 
Q 40.625 48.1875 47.75 41.5 
Q 54.890625 34.8125 54.890625 23.390625 
Q 54.890625 11.625 47.5625 5.09375 
Q 40.234375 -1.421875 26.90625 -1.421875 
Q 22.3125 -1.421875 17.546875 -0.640625 
Q 12.796875 0.140625 7.71875 1.703125 
L 7.71875 11.625 
Q 12.109375 9.234375 16.796875 8.0625 
Q 21.484375 6.890625 26.703125 6.890625 
Q 35.15625 6.890625 40.078125 11.328125 
Q 45.015625 15.765625 45.015625 23.390625 
Q 45.015625 31 40.078125 35.4375 
Q 35.15625 39.890625 26.703125 39.890625 
Q 22.75 39.890625 18.8125 39.015625 
Q 14.890625 38.140625 10.796875 36.28125 
z
" id="DejaVuSans-53"/>
     <path d="M 50.984375 -16.609375 
L 50.984375 -23.578125 
L -0.984375 -23.578125 
L -0.984375 -16.609375 
z
" id="DejaVuSans-95"/>
     <path d="M 19.1875 8.296875 
L 53.609375 8.296875 
L 53.609375 0 
L 7.328125 0 
L 7.328125 8.296875 
Q 12.9375 14.109375 22.625 23.890625 
Q 32.328125 33.6875 34.8125 36.53125 
Q 39.546875 41.84375 41.421875 45.53125 
Q 43.3125 49.21875 43.3125 52.78125 
Q 43.3125 58.59375 39.234375 62.25 
Q 35.15625 65.921875 28.609375 65.921875 
Q 23.96875 65.921875 18.8125 64.3125 
Q 13.671875 62.703125 7.8125 59.421875 
L 7.8125 69.390625 
Q 13.765625 71.78125 18.9375 73 
Q 24.125 74.21875 28.421875 74.21875 
Q 39.75 74.21875 46.484375 68.546875 
Q 53.21875 62.890625 53.21875 53.421875 
Q 53.21875 48.921875 51.53125 44.890625 
Q 49.859375 40.875 45.40625 35.40625 
Q 44.1875 33.984375 37.640625 27.21875 
Q 31.109375 20.453125 19.1875 8.296875 
z
" id="DejaVuSans-50"/>
     <path d="M 37.796875 64.3125 
L 12.890625 25.390625 
L 37.796875 25.390625 
z
M 35.203125 72.90625 
L 47.609375 72.90625 
L 47.609375 25.390625 
L 58.015625 25.390625 
L 58.015625 17.1875 
L 47.609375 17.1875 
L 47.609375 0 
L 37.796875 0 
L 37.796875 17.1875 
L 4.890625 17.1875 
L 4.890625 26.703125 
z
" id="DejaVuSans-52"/>
     <path d="M 9.8125 72.90625 
L 51.703125 72.90625 
L 51.703125 64.59375 
L 19.671875 64.59375 
L 19.671875 43.109375 
L 48.578125 43.109375 
L 48.578125 34.8125 
L 19.671875 34.8125 
L 19.671875 0 
L 9.8125 0 
z
" id="DejaVuSans-70"/>
    </defs>
    <g transform="translate(-5.572625 -161.175495)rotate(-298.440719)scale(0.1 -0.1)">
     <use xlink:href="#DejaVuSans-69"/>
     <use x="63.183594" xlink:href="#DejaVuSans-114"/>
     <use x="104.296875" xlink:href="#DejaVuSans-121"/>
     <use x="163.476562" xlink:href="#DejaVuSans-115"/>
     <use x="215.576172" xlink:href="#DejaVuSans-105"/>
     <use x="243.359375" xlink:href="#DejaVuSans-112"/>
     <use x="306.835938" xlink:href="#DejaVuSans-101"/>
     <use x="368.359375" xlink:href="#DejaVuSans-108"/>
     <use x="396.142578" xlink:href="#DejaVuSans-111"/>
     <use x="457.324219" xlink:href="#DejaVuSans-116"/>
     <use x="496.533203" xlink:href="#DejaVuSans-114"/>
     <use x="537.646484" xlink:href="#DejaVuSans-105"/>
     <use x="565.429688" xlink:href="#DejaVuSans-99"/>
     <use x="620.410156" xlink:href="#DejaVuSans-104"/>
     <use x="683.789062" xlink:href="#DejaVuSans-97"/>
     <use x="745.068359" xlink:href="#DejaVuSans-99"/>
     <use x="800.048828" xlink:href="#DejaVuSans-101"/>
     <use x="861.572266" xlink:href="#DejaVuSans-97"/>
     <use x="922.851562" xlink:href="#DejaVuSans-101"/>
     <use x="984.375" xlink:href="#DejaVuSans-32"/>
     <use x="1016.162109" xlink:href="#DejaVuSans-98"/>
     <use x="1079.638672" xlink:href="#DejaVuSans-97"/>
     <use x="1140.917969" xlink:href="#DejaVuSans-99"/>
     <use x="1195.898438" xlink:href="#DejaVuSans-116"/>
     <use x="1235.107422" xlink:href="#DejaVuSans-101"/>
     <use x="1296.630859" xlink:href="#DejaVuSans-114"/>
     <use x="1337.744141" xlink:href="#DejaVuSans-105"/>
     <use x="1365.527344" xlink:href="#DejaVuSans-117"/>
     <use x="1428.90625" xlink:href="#DejaVuSans-109"/>
     <use x="1526.318359" xlink:href="#DejaVuSans-32"/>
     <use x="1558.105469" xlink:href="#DejaVuSans-53"/>
     <use x="1621.728516" xlink:href="#DejaVuSans-95"/>
     <use x="1671.728516" xlink:href="#DejaVuSans-50"/>
     <use x="1735.351562" xlink:href="#DejaVuSans-95"/>
     <use x="1785.351562" xlink:href="#DejaVuSans-53"/>
     <use x="1848.974609" xlink:href="#DejaVuSans-52"/>
     <use x="1912.597656" xlink:href="#DejaVuSans-70"/>
     <use x="1960.992188" xlink:href="#DejaVuSans-65"/>
     <use x="2032.150391" xlink:href="#DejaVuSans-65"/>
     <use x="2100.558594" xlink:href="#DejaVuSans-32"/>
     <use x="2132.345703" xlink:href="#DejaVuSans-40"/>
     <use x="2171.359375" xlink:href="#DejaVuSans-49"/>
     <use x="2234.982422" xlink:href="#DejaVuSans-46"/>
     <use x="2266.769531" xlink:href="#DejaVuSans-53"/>
     <use x="2330.392578" xlink:href="#DejaVuSans-37"/>
     <use x="2425.412109" xlink:href="#DejaVuSans-41"/>
    </g>
   </g>
   <g id="text_3">
    <!-- Thermoplasmatales archaeon I-plasma (1.9%) -->
    <defs>
     <path d="M -0.296875 72.90625 
L 61.375 72.90625 
L 61.375 64.59375 
L 35.5 64.59375 
L 35.5 0 
L 25.59375 0 
L 25.59375 64.59375 
L -0.296875 64.59375 
z
" id="DejaVuSans-84"/>
     <path d="M 54.890625 33.015625 
L 54.890625 0 
L 45.90625 0 
L 45.90625 32.71875 
Q 45.90625 40.484375 42.875 44.328125 
Q 39.84375 48.1875 33.796875 48.1875 
Q 26.515625 48.1875 22.3125 43.546875 
Q 18.109375 38.921875 18.109375 30.90625 
L 18.109375 0 
L 9.078125 0 
L 9.078125 54.6875 
L 18.109375 54.6875 
L 18.109375 46.1875 
Q 21.34375 51.125 25.703125 53.5625 
Q 30.078125 56 35.796875 56 
Q 45.21875 56 50.046875 50.171875 
Q 54.890625 44.34375 54.890625 33.015625 
z
" id="DejaVuSans-110"/>
     <path d="M 9.8125 72.90625 
L 19.671875 72.90625 
L 19.671875 0 
L 9.8125 0 
z
" id="DejaVuSans-73"/>
     <path d="M 10.984375 1.515625 
L 10.984375 10.5 
Q 14.703125 8.734375 18.5 7.8125 
Q 22.3125 6.890625 25.984375 6.890625 
Q 35.75 6.890625 40.890625 13.453125 
Q 46.046875 20.015625 46.78125 33.40625 
Q 43.953125 29.203125 39.59375 26.953125 
Q 35.25 24.703125 29.984375 24.703125 
Q 19.046875 24.703125 12.671875 31.3125 
Q 6.296875 37.9375 6.296875 49.421875 
Q 6.296875 60.640625 12.9375 67.421875 
Q 19.578125 74.21875 30.609375 74.21875 
Q 43.265625 74.21875 49.921875 64.515625 
Q 56.59375 54.828125 56.59375 36.375 
Q 56.59375 19.140625 48.40625 8.859375 
Q 40.234375 -1.421875 26.421875 -1.421875 
Q 22.703125 -1.421875 18.890625 -0.6875 
Q 15.09375 0.046875 10.984375 1.515625 
z
M 30.609375 32.421875 
Q 37.25 32.421875 41.125 36.953125 
Q 45.015625 41.5 45.015625 49.421875 
Q 45.015625 57.28125 41.125 61.84375 
Q 37.25 66.40625 30.609375 66.40625 
Q 23.96875 66.40625 20.09375 61.84375 
Q 16.21875 57.28125 16.21875 49.421875 
Q 16.21875 41.5 20.09375 36.953125 
Q 23.96875 32.421875 30.609375 32.421875 
z
" id="DejaVuSans-57"/>
    </defs>
    <g transform="translate(-32.156236 -126.703221)rotate(-304.678579)scale(0.1 -0.1)">
     <use xlink:href="#DejaVuSans-84"/>
     <use x="61.083984" xlink:href="#DejaVuSans-104"/>
     <use x="124.462891" xlink:href="#DejaVuSans-101"/>
     <use x="185.986328" xlink:href="#DejaVuSans-114"/>
     <use x="225.349609" xlink:href="#DejaVuSans-109"/>
     <use x="322.761719" xlink:href="#DejaVuSans-111"/>
     <use x="383.943359" xlink:href="#DejaVuSans-112"/>
     <use x="447.419922" xlink:href="#DejaVuSans-108"/>
     <use x="475.203125" xlink:href="#DejaVuSans-97"/>
     <use x="536.482422" xlink:href="#DejaVuSans-115"/>
     <use x="588.582031" xlink:href="#DejaVuSans-109"/>
     <use x="685.994141" xlink:href="#DejaVuSans-97"/>
     <use x="747.273438" xlink:href="#DejaVuSans-116"/>
     <use x="786.482422" xlink:href="#DejaVuSans-97"/>
     <use x="847.761719" xlink:href="#DejaVuSans-108"/>
     <use x="875.544922" xlink:href="#DejaVuSans-101"/>
     <use x="937.068359" xlink:href="#DejaVuSans-115"/>
     <use x="989.167969" xlink:href="#DejaVuSans-32"/>
     <use x="1020.955078" xlink:href="#DejaVuSans-97"/>
     <use x="1082.234375" xlink:href="#DejaVuSans-114"/>
     <use x="1121.097656" xlink:href="#DejaVuSans-99"/>
     <use x="1176.078125" xlink:href="#DejaVuSans-104"/>
     <use x="1239.457031" xlink:href="#DejaVuSans-97"/>
     <use x="1300.736328" xlink:href="#DejaVuSans-101"/>
     <use x="1362.259766" xlink:href="#DejaVuSans-111"/>
     <use x="1423.441406" xlink:href="#DejaVuSans-110"/>
     <use x="1486.820312" xlink:href="#DejaVuSans-32"/>
     <use x="1518.607422" xlink:href="#DejaVuSans-73"/>
     <use x="1548.099609" xlink:href="#DejaVuSans-45"/>
     <use x="1584.183594" xlink:href="#DejaVuSans-112"/>
     <use x="1647.660156" xlink:href="#DejaVuSans-108"/>
     <use x="1675.443359" xlink:href="#DejaVuSans-97"/>
     <use x="1736.722656" xlink:href="#DejaVuSans-115"/>
     <use x="1788.822266" xlink:href="#DejaVuSans-109"/>
     <use x="1886.234375" xlink:href="#DejaVuSans-97"/>
     <use x="1947.513672" xlink:href="#DejaVuSans-32"/>
     <use x="1979.300781" xlink:href="#DejaVuSans-40"/>
     <use x="2018.314453" xlink:href="#DejaVuSans-49"/>
     <use x="2081.9375" xlink:href="#DejaVuSans-46"/>
     <use x="2113.724609" xlink:href="#DejaVuSans-57"/>
     <use x="2177.347656" xlink:href="#DejaVuSans-37"/>
     <use x="2272.367188" xlink:href="#DejaVuSans-41"/>
    </g>
   </g>
   <g id="text_4">
    <!-- Paenibacillus sp. Aloe-11 (2.1%) -->
    <defs>
     <path d="M 19.671875 64.796875 
L 19.671875 37.40625 
L 32.078125 37.40625 
Q 38.96875 37.40625 42.71875 40.96875 
Q 46.484375 44.53125 46.484375 51.125 
Q 46.484375 57.671875 42.71875 61.234375 
Q 38.96875 64.796875 32.078125 64.796875 
z
M 9.8125 72.90625 
L 32.078125 72.90625 
Q 44.34375 72.90625 50.609375 67.359375 
Q 56.890625 61.8125 56.890625 51.125 
Q 56.890625 40.328125 50.609375 34.8125 
Q 44.34375 29.296875 32.078125 29.296875 
L 19.671875 29.296875 
L 19.671875 0 
L 9.8125 0 
z
" id="DejaVuSans-80"/>
    </defs>
    <g transform="translate(-21.230656 -45.264331)rotate(-311.963156)scale(0.1 -0.1)">
     <use xlink:href="#DejaVuSans-80"/>
     <use x="55.802734" xlink:href="#DejaVuSans-97"/>
     <use x="117.082031" xlink:href="#DejaVuSans-101"/>
     <use x="178.605469" xlink:href="#DejaVuSans-110"/>
     <use x="241.984375" xlink:href="#DejaVuSans-105"/>
     <use x="269.767578" xlink:href="#DejaVuSans-98"/>
     <use x="333.244141" xlink:href="#DejaVuSans-97"/>
     <use x="394.523438" xlink:href="#DejaVuSans-99"/>
     <use x="449.503906" xlink:href="#DejaVuSans-105"/>
     <use x="477.287109" xlink:href="#DejaVuSans-108"/>
     <use x="505.070312" xlink:href="#DejaVuSans-108"/>
     <use x="532.853516" xlink:href="#DejaVuSans-117"/>
     <use x="596.232422" xlink:href="#DejaVuSans-115"/>
     <use x="648.332031" xlink:href="#DejaVuSans-32"/>
     <use x="680.119141" xlink:href="#DejaVuSans-115"/>
     <use x="732.21875" xlink:href="#DejaVuSans-112"/>
     <use x="795.695312" xlink:href="#DejaVuSans-46"/>
     <use x="827.482422" xlink:href="#DejaVuSans-32"/>
     <use x="859.269531" xlink:href="#DejaVuSans-65"/>
     <use x="927.677734" xlink:href="#DejaVuSans-108"/>
     <use x="955.460938" xlink:href="#DejaVuSans-111"/>
     <use x="1016.642578" xlink:href="#DejaVuSans-101"/>
     <use x="1078.166016" xlink:href="#DejaVuSans-45"/>
     <use x="1114.25" xlink:href="#DejaVuSans-49"/>
     <use x="1177.873047" xlink:href="#DejaVuSans-49"/>
     <use x="1241.496094" xlink:href="#DejaVuSans-32"/>
     <use x="1273.283203" xlink:href="#DejaVuSans-40"/>
     <use x="1312.296875" xlink:href="#DejaVuSans-50"/>
     <use x="1375.919922" xlink:href="#DejaVuSans-46"/>
     <use x="1407.707031" xlink:href="#DejaVuSans-49"/>
     <use x="1471.330078" xlink:href="#DejaVuSans-37"/>
     <use x="1566.349609" xlink:href="#DejaVuSans-41"/>
    </g>
   </g>
   <g id="text_5">
    <!-- marine gamma proteobacterium HTCC2080 (5.0%) -->
    <defs>
     <path d="M 9.8125 72.90625 
L 19.671875 72.90625 
L 19.671875 43.015625 
L 55.515625 43.015625 
L 55.515625 72.90625 
L 65.375 72.90625 
L 65.375 0 
L 55.515625 0 
L 55.515625 34.71875 
L 19.671875 34.71875 
L 19.671875 0 
L 9.8125 0 
z
" id="DejaVuSans-72"/>
     <path d="M 31.78125 34.625 
Q 24.75 34.625 20.71875 30.859375 
Q 16.703125 27.09375 16.703125 20.515625 
Q 16.703125 13.921875 20.71875 10.15625 
Q 24.75 6.390625 31.78125 6.390625 
Q 38.8125 6.390625 42.859375 10.171875 
Q 46.921875 13.96875 46.921875 20.515625 
Q 46.921875 27.09375 42.890625 30.859375 
Q 38.875 34.625 31.78125 34.625 
z
M 21.921875 38.8125 
Q 15.578125 40.375 12.03125 44.71875 
Q 8.5 49.078125 8.5 55.328125 
Q 8.5 64.0625 14.71875 69.140625 
Q 20.953125 74.21875 31.78125 74.21875 
Q 42.671875 74.21875 48.875 69.140625 
Q 55.078125 64.0625 55.078125 55.328125 
Q 55.078125 49.078125 51.53125 44.71875 
Q 48 40.375 41.703125 38.8125 
Q 48.828125 37.15625 52.796875 32.3125 
Q 56.78125 27.484375 56.78125 20.515625 
Q 56.78125 9.90625 50.3125 4.234375 
Q 43.84375 -1.421875 31.78125 -1.421875 
Q 19.734375 -1.421875 13.25 4.234375 
Q 6.78125 9.90625 6.78125 20.515625 
Q 6.78125 27.484375 10.78125 32.3125 
Q 14.796875 37.15625 21.921875 38.8125 
z
M 18.3125 54.390625 
Q 18.3125 48.734375 21.84375 45.5625 
Q 25.390625 42.390625 31.78125 42.390625 
Q 38.140625 42.390625 41.71875 45.5625 
Q 45.3125 48.734375 45.3125 54.390625 
Q 45.3125 60.0625 41.71875 63.234375 
Q 38.140625 66.40625 31.78125 66.40625 
Q 25.390625 66.40625 21.84375 63.234375 
Q 18.3125 60.0625 18.3125 54.390625 
z
" id="DejaVuSans-56"/>
    </defs>
    <g transform="translate(-141.967291 -49.945521)rotate(-324.835084)scale(0.1 -0.1)">
     <use xlink:href="#DejaVuSans-109"/>
     <use x="97.412109" xlink:href="#DejaVuSans-97"/>
     <use x="158.691406" xlink:href="#DejaVuSans-114"/>
     <use x="199.804688" xlink:href="#DejaVuSans-105"/>
     <use x="227.587891" xlink:href="#DejaVuSans-110"/>
     <use x="290.966797" xlink:href="#DejaVuSans-101"/>
     <use x="352.490234" xlink:href="#DejaVuSans-32"/>
     <use x="384.277344" xlink:href="#DejaVuSans-103"/>
     <use x="447.753906" xlink:href="#DejaVuSans-97"/>
     <use x="509.033203" xlink:href="#DejaVuSans-109"/>
     <use x="606.445312" xlink:href="#DejaVuSans-109"/>
     <use x="703.857422" xlink:href="#DejaVuSans-97"/>
     <use x="765.136719" xlink:href="#DejaVuSans-32"/>
     <use x="796.923828" xlink:href="#DejaVuSans-112"/>
     <use x="860.400391" xlink:href="#DejaVuSans-114"/>
     <use x="899.263672" xlink:href="#DejaVuSans-111"/>
     <use x="960.445312" xlink:href="#DejaVuSans-116"/>
     <use x="999.654297" xlink:href="#DejaVuSans-101"/>
     <use x="1061.177734" xlink:href="#DejaVuSans-111"/>
     <use x="1122.359375" xlink:href="#DejaVuSans-98"/>
     <use x="1185.835938" xlink:href="#DejaVuSans-97"/>
     <use x="1247.115234" xlink:href="#DejaVuSans-99"/>
     <use x="1302.095703" xlink:href="#DejaVuSans-116"/>
     <use x="1341.304688" xlink:href="#DejaVuSans-101"/>
     <use x="1402.828125" xlink:href="#DejaVuSans-114"/>
     <use x="1443.941406" xlink:href="#DejaVuSans-105"/>
     <use x="1471.724609" xlink:href="#DejaVuSans-117"/>
     <use x="1535.103516" xlink:href="#DejaVuSans-109"/>
     <use x="1632.515625" xlink:href="#DejaVuSans-32"/>
     <use x="1664.302734" xlink:href="#DejaVuSans-72"/>
     <use x="1739.498047" xlink:href="#DejaVuSans-84"/>
     <use x="1794.707031" xlink:href="#DejaVuSans-67"/>
     <use x="1864.53125" xlink:href="#DejaVuSans-67"/>
     <use x="1934.355469" xlink:href="#DejaVuSans-50"/>
     <use x="1997.978516" xlink:href="#DejaVuSans-48"/>
     <use x="2061.601562" xlink:href="#DejaVuSans-56"/>
     <use x="2125.224609" xlink:href="#DejaVuSans-48"/>
     <use x="2188.847656" xlink:href="#DejaVuSans-32"/>
     <use x="2220.634766" xlink:href="#DejaVuSans-40"/>
     <use x="2259.648438" xlink:href="#DejaVuSans-53"/>
     <use x="2323.271484" xlink:href="#DejaVuSans-46"/>
     <use x="2355.058594" xlink:href="#DejaVuSans-48"/>
     <use x="2418.681641" xlink:href="#DejaVuSans-37"/>
     <use x="2513.701172" xlink:href="#DejaVuSans-41"/>
    </g>
   </g>
   <g id="text_6">
    <!-- 5.0% -->
    <g transform="translate(84.189432 119.708539)scale(0.1 -0.1)">
     <use xlink:href="#DejaVuSans-53"/>
     <use x="63.623047" xlink:href="#DejaVuSans-46"/>
     <use x="95.410156" xlink:href="#DejaVuSans-48"/>
     <use x="159.033203" xlink:href="#DejaVuSans-37"/>
    </g>
   </g>
   <g id="text_7">
    <!-- gamma proteobacterium IMCC2047 (82.2%) -->
    <defs>
     <path d="M 9.8125 72.90625 
L 24.515625 72.90625 
L 43.109375 23.296875 
L 61.8125 72.90625 
L 76.515625 72.90625 
L 76.515625 0 
L 66.890625 0 
L 66.890625 64.015625 
L 48.09375 14.015625 
L 38.1875 14.015625 
L 19.390625 64.015625 
L 19.390625 0 
L 9.8125 0 
z
" id="DejaVuSans-77"/>
    </defs>
    <g transform="translate(259.855174 300.58482)rotate(-301.951742)scale(0.1 -0.1)">
     <use xlink:href="#DejaVuSans-103"/>
     <use x="63.476562" xlink:href="#DejaVuSans-97"/>
     <use x="124.755859" xlink:href="#DejaVuSans-109"/>
     <use x="222.167969" xlink:href="#DejaVuSans-109"/>
     <use x="319.580078" xlink:href="#DejaVuSans-97"/>
     <use x="380.859375" xlink:href="#DejaVuSans-32"/>
     <use x="412.646484" xlink:href="#DejaVuSans-112"/>
     <use x="476.123047" xlink:href="#DejaVuSans-114"/>
     <use x="514.986328" xlink:href="#DejaVuSans-111"/>
     <use x="576.167969" xlink:href="#DejaVuSans-116"/>
     <use x="615.376953" xlink:href="#DejaVuSans-101"/>
     <use x="676.900391" xlink:href="#DejaVuSans-111"/>
     <use x="738.082031" xlink:href="#DejaVuSans-98"/>
     <use x="801.558594" xlink:href="#DejaVuSans-97"/>
     <use x="862.837891" xlink:href="#DejaVuSans-99"/>
     <use x="917.818359" xlink:href="#DejaVuSans-116"/>
     <use x="957.027344" xlink:href="#DejaVuSans-101"/>
     <use x="1018.550781" xlink:href="#DejaVuSans-114"/>
     <use x="1059.664062" xlink:href="#DejaVuSans-105"/>
     <use x="1087.447266" xlink:href="#DejaVuSans-117"/>
     <use x="1150.826172" xlink:href="#DejaVuSans-109"/>
     <use x="1248.238281" xlink:href="#DejaVuSans-32"/>
     <use x="1280.025391" xlink:href="#DejaVuSans-73"/>
     <use x="1309.517578" xlink:href="#DejaVuSans-77"/>
     <use x="1395.796875" xlink:href="#DejaVuSans-67"/>
     <use x="1465.621094" xlink:href="#DejaVuSans-67"/>
     <use x="1535.445312" xlink:href="#DejaVuSans-50"/>
     <use x="1599.068359" xlink:href="#DejaVuSans-48"/>
     <use x="1662.691406" xlink:href="#DejaVuSans-52"/>
     <use x="1726.314453" xlink:href="#DejaVuSans-55"/>
     <use x="1789.9375" xlink:href="#DejaVuSans-32"/>
     <use x="1821.724609" xlink:href="#DejaVuSans-40"/>
     <use x="1860.738281" xlink:href="#DejaVuSans-56"/>
     <use x="1924.361328" xlink:href="#DejaVuSans-50"/>
     <use x="1987.984375" xlink:href="#DejaVuSans-46"/>
     <use x="2019.771484" xlink:href="#DejaVuSans-50"/>
     <use x="2083.394531" xlink:href="#DejaVuSans-37"/>
     <use x="2178.414062" xlink:href="#DejaVuSans-41"/>
    </g>
   </g>
   <g id="text_8">
    <!-- 82.2% -->
    <g transform="translate(225.506256 272.546164)scale(0.1 -0.1)">
     <use xlink:href="#DejaVuSans-56"/>
     <use x="63.623047" xlink:href="#DejaVuSans-50"/>
     <use x="127.246094" xlink:href="#DejaVuSans-46"/>
     <use x="159.033203" xlink:href="#DejaVuSans-50"/>
     <use x="222.65625" xlink:href="#DejaVuSans-37"/>
    </g>
   </g>
  </g>
 </g>
</svg>
