<?xml version="1.0" encoding="utf-8" standalone="no"?>
<!DOCTYPE svg PUBLIC "-//W3C//DTD SVG 1.1//EN"
  "http://www.w3.org/Graphics/SVG/1.1/DTD/svg11.dtd">
<!-- Created with matplotlib (https://matplotlib.org/) -->
<svg height="432pt" version="1.1" viewBox="0 0 864 432" width="864pt" xmlns="http://www.w3.org/2000/svg" xmlns:xlink="http://www.w3.org/1999/xlink">
 <defs>
  <style type="text/css">
*{stroke-linecap:butt;stroke-linejoin:round;}
  </style>
 </defs>
 <g id="figure_1">
  <g id="patch_1">
   <path d="M 0 432 
L 864 432 
L 864 0 
L 0 0 
z
" style="fill:#ffffff;"/>
  </g>
  <g id="axes_1">
   <g id="patch_2">
    <path d="M 108 378 
L 777.6 378 
L 777.6 51.84 
L 108 51.84 
z
" style="fill:#ffffff;"/>
   </g>
   <g id="patch_3">
    <path clip-path="url(#pd9d12cf1c4)" d="M 113.58 378 
L 124.74 378 
L 124.74 67.371429 
L 113.58 67.371429 
z
" style="fill:#1f77b4;"/>
   </g>
   <g id="patch_4">
    <path clip-path="url(#pd9d12cf1c4)" d="M 135.9 378 
L 147.06 378 
L 147.06 207.76563 
L 135.9 207.76563 
z
" style="fill:#1f77b4;"/>
   </g>
   <g id="patch_5">
    <path clip-path="url(#pd9d12cf1c4)" d="M 158.22 378 
L 169.38 378 
L 169.38 259.560953 
L 158.22 259.560953 
z
" style="fill:#1f77b4;"/>
   </g>
   <g id="patch_6">
    <path clip-path="url(#pd9d12cf1c4)" d="M 180.54 378 
L 191.7 378 
L 191.7 264.824455 
L 180.54 264.824455 
z
" style="fill:#1f77b4;"/>
   </g>
   <g id="patch_7">
    <path clip-path="url(#pd9d12cf1c4)" d="M 202.86 378 
L 214.02 378 
L 214.02 275.105694 
L 202.86 275.105694 
z
" style="fill:#1f77b4;"/>
   </g>
   <g id="patch_8">
    <path clip-path="url(#pd9d12cf1c4)" d="M 225.18 378 
L 236.34 378 
L 236.34 293.742998 
L 225.18 293.742998 
z
" style="fill:#1f77b4;"/>
   </g>
   <g id="patch_9">
    <path clip-path="url(#pd9d12cf1c4)" d="M 247.5 378 
L 258.66 378 
L 258.66 334.929394 
L 247.5 334.929394 
z
" style="fill:#1f77b4;"/>
   </g>
   <g id="patch_10">
    <path clip-path="url(#pd9d12cf1c4)" d="M 269.82 378 
L 280.98 378 
L 280.98 342.220471 
L 269.82 342.220471 
z
" style="fill:#1f77b4;"/>
   </g>
   <g id="patch_11">
    <path clip-path="url(#pd9d12cf1c4)" d="M 292.14 378 
L 303.3 378 
L 303.3 345.292554 
L 292.14 345.292554 
z
" style="fill:#1f77b4;"/>
   </g>
   <g id="patch_12">
    <path clip-path="url(#pd9d12cf1c4)" d="M 314.46 378 
L 325.62 378 
L 325.62 351.743929 
L 314.46 351.743929 
z
" style="fill:#1f77b4;"/>
   </g>
   <g id="patch_13">
    <path clip-path="url(#pd9d12cf1c4)" d="M 336.78 378 
L 347.94 378 
L 347.94 357.539926 
L 336.78 357.539926 
z
" style="fill:#1f77b4;"/>
   </g>
   <g id="patch_14">
    <path clip-path="url(#pd9d12cf1c4)" d="M 359.1 378 
L 370.26 378 
L 370.26 361.308348 
L 359.1 361.308348 
z
" style="fill:#1f77b4;"/>
   </g>
   <g id="patch_15">
    <path clip-path="url(#pd9d12cf1c4)" d="M 381.42 378 
L 392.58 378 
L 392.58 361.308348 
L 381.42 361.308348 
z
" style="fill:#1f77b4;"/>
   </g>
   <g id="patch_16">
    <path clip-path="url(#pd9d12cf1c4)" d="M 403.74 378 
L 414.9 378 
L 414.9 368.497023 
L 403.74 368.497023 
z
" style="fill:#1f77b4;"/>
   </g>
   <g id="patch_17">
    <path clip-path="url(#pd9d12cf1c4)" d="M 426.06 378 
L 437.22 378 
L 437.22 369.316245 
L 426.06 369.316245 
z
" style="fill:#1f77b4;"/>
   </g>
   <g id="patch_18">
    <path clip-path="url(#pd9d12cf1c4)" d="M 448.38 378 
L 459.54 378 
L 459.54 370.770364 
L 448.38 370.770364 
z
" style="fill:#1f77b4;"/>
   </g>
   <g id="patch_19">
    <path clip-path="url(#pd9d12cf1c4)" d="M 470.7 378 
L 481.86 378 
L 481.86 371.159495 
L 470.7 371.159495 
z
" style="fill:#1f77b4;"/>
   </g>
   <g id="patch_20">
    <path clip-path="url(#pd9d12cf1c4)" d="M 493.02 378 
L 504.18 378 
L 504.18 371.487184 
L 493.02 371.487184 
z
" style="fill:#1f77b4;"/>
   </g>
   <g id="patch_21">
    <path clip-path="url(#pd9d12cf1c4)" d="M 515.34 378 
L 526.5 378 
L 526.5 371.773911 
L 515.34 371.773911 
z
" style="fill:#1f77b4;"/>
   </g>
   <g id="patch_22">
    <path clip-path="url(#pd9d12cf1c4)" d="M 537.66 378 
L 548.82 378 
L 548.82 372.613614 
L 537.66 372.613614 
z
" style="fill:#1f77b4;"/>
   </g>
   <g id="patch_23">
    <path clip-path="url(#pd9d12cf1c4)" d="M 559.98 378 
L 571.14 378 
L 571.14 376.054347 
L 559.98 376.054347 
z
" style="fill:#1f77b4;"/>
   </g>
   <g id="patch_24">
    <path clip-path="url(#pd9d12cf1c4)" d="M 582.3 378 
L 593.46 378 
L 593.46 376.300114 
L 582.3 376.300114 
z
" style="fill:#1f77b4;"/>
   </g>
   <g id="patch_25">
    <path clip-path="url(#pd9d12cf1c4)" d="M 604.62 378 
L 615.78 378 
L 615.78 376.50492 
L 604.62 376.50492 
z
" style="fill:#1f77b4;"/>
   </g>
   <g id="patch_26">
    <path clip-path="url(#pd9d12cf1c4)" d="M 626.94 378 
L 638.1 378 
L 638.1 376.812128 
L 626.94 376.812128 
z
" style="fill:#1f77b4;"/>
   </g>
   <g id="patch_27">
    <path clip-path="url(#pd9d12cf1c4)" d="M 649.26 378 
L 660.42 378 
L 660.42 377.037414 
L 649.26 377.037414 
z
" style="fill:#1f77b4;"/>
   </g>
   <g id="patch_28">
    <path clip-path="url(#pd9d12cf1c4)" d="M 671.58 378 
L 682.74 378 
L 682.74 377.344622 
L 671.58 377.344622 
z
" style="fill:#1f77b4;"/>
   </g>
   <g id="patch_29">
    <path clip-path="url(#pd9d12cf1c4)" d="M 693.9 378 
L 705.06 378 
L 705.06 377.487986 
L 693.9 377.487986 
z
" style="fill:#1f77b4;"/>
   </g>
   <g id="patch_30">
    <path clip-path="url(#pd9d12cf1c4)" d="M 716.22 378 
L 727.38 378 
L 727.38 377.877117 
L 716.22 377.877117 
z
" style="fill:#1f77b4;"/>
   </g>
   <g id="patch_31">
    <path clip-path="url(#pd9d12cf1c4)" d="M 738.54 378 
L 749.7 378 
L 749.7 377.938558 
L 738.54 377.938558 
z
" style="fill:#1f77b4;"/>
   </g>
   <g id="patch_32">
    <path clip-path="url(#pd9d12cf1c4)" d="M 760.86 378 
L 772.02 378 
L 772.02 377.959039 
L 760.86 377.959039 
z
" style="fill:#1f77b4;"/>
   </g>
   <g id="matplotlib.axis_1">
    <g id="xtick_1">
     <g id="line2d_1">
      <defs>
       <path d="M 0 0 
L 0 3.5 
" id="m307f77b948" style="stroke:#000000;stroke-width:0.8;"/>
      </defs>
      <g>
       <use style="stroke:#000000;stroke-width:0.8;" x="119.16" xlink:href="#m307f77b948" y="378"/>
      </g>
     </g>
     <g id="text_1">
      <!-- 1230476.1 -->
      <defs>
       <path d="M 12.40625 8.296875 
L 28.515625 8.296875 
L 28.515625 63.921875 
L 10.984375 60.40625 
L 10.984375 69.390625 
L 28.421875 72.90625 
L 38.28125 72.90625 
L 38.28125 8.296875 
L 54.390625 8.296875 
L 54.390625 0 
L 12.40625 0 
z
" id="DejaVuSans-49"/>
       <path d="M 19.1875 8.296875 
L 53.609375 8.296875 
L 53.609375 0 
L 7.328125 0 
L 7.328125 8.296875 
Q 12.9375 14.109375 22.625 23.890625 
Q 32.328125 33.6875 34.8125 36.53125 
Q 39.546875 41.84375 41.421875 45.53125 
Q 43.3125 49.21875 43.3125 52.78125 
Q 43.3125 58.59375 39.234375 62.25 
Q 35.15625 65.921875 28.609375 65.921875 
Q 23.96875 65.921875 18.8125 64.3125 
Q 13.671875 62.703125 7.8125 59.421875 
L 7.8125 69.390625 
Q 13.765625 71.78125 18.9375 73 
Q 24.125 74.21875 28.421875 74.21875 
Q 39.75 74.21875 46.484375 68.546875 
Q 53.21875 62.890625 53.21875 53.421875 
Q 53.21875 48.921875 51.53125 44.890625 
Q 49.859375 40.875 45.40625 35.40625 
Q 44.1875 33.984375 37.640625 27.21875 
Q 31.109375 20.453125 19.1875 8.296875 
z
" id="DejaVuSans-50"/>
       <path d="M 40.578125 39.3125 
Q 47.65625 37.796875 51.625 33 
Q 55.609375 28.21875 55.609375 21.1875 
Q 55.609375 10.40625 48.1875 4.484375 
Q 40.765625 -1.421875 27.09375 -1.421875 
Q 22.515625 -1.421875 17.65625 -0.515625 
Q 12.796875 0.390625 7.625 2.203125 
L 7.625 11.71875 
Q 11.71875 9.328125 16.59375 8.109375 
Q 21.484375 6.890625 26.8125 6.890625 
Q 36.078125 6.890625 40.9375 10.546875 
Q 45.796875 14.203125 45.796875 21.1875 
Q 45.796875 27.640625 41.28125 31.265625 
Q 36.765625 34.90625 28.71875 34.90625 
L 20.21875 34.90625 
L 20.21875 43.015625 
L 29.109375 43.015625 
Q 36.375 43.015625 40.234375 45.921875 
Q 44.09375 48.828125 44.09375 54.296875 
Q 44.09375 59.90625 40.109375 62.90625 
Q 36.140625 65.921875 28.71875 65.921875 
Q 24.65625 65.921875 20.015625 65.03125 
Q 15.375 64.15625 9.8125 62.3125 
L 9.8125 71.09375 
Q 15.4375 72.65625 20.34375 73.4375 
Q 25.25 74.21875 29.59375 74.21875 
Q 40.828125 74.21875 47.359375 69.109375 
Q 53.90625 64.015625 53.90625 55.328125 
Q 53.90625 49.265625 50.4375 45.09375 
Q 46.96875 40.921875 40.578125 39.3125 
z
" id="DejaVuSans-51"/>
       <path d="M 31.78125 66.40625 
Q 24.171875 66.40625 20.328125 58.90625 
Q 16.5 51.421875 16.5 36.375 
Q 16.5 21.390625 20.328125 13.890625 
Q 24.171875 6.390625 31.78125 6.390625 
Q 39.453125 6.390625 43.28125 13.890625 
Q 47.125 21.390625 47.125 36.375 
Q 47.125 51.421875 43.28125 58.90625 
Q 39.453125 66.40625 31.78125 66.40625 
z
M 31.78125 74.21875 
Q 44.046875 74.21875 50.515625 64.515625 
Q 56.984375 54.828125 56.984375 36.375 
Q 56.984375 17.96875 50.515625 8.265625 
Q 44.046875 -1.421875 31.78125 -1.421875 
Q 19.53125 -1.421875 13.0625 8.265625 
Q 6.59375 17.96875 6.59375 36.375 
Q 6.59375 54.828125 13.0625 64.515625 
Q 19.53125 74.21875 31.78125 74.21875 
z
" id="DejaVuSans-48"/>
       <path d="M 37.796875 64.3125 
L 12.890625 25.390625 
L 37.796875 25.390625 
z
M 35.203125 72.90625 
L 47.609375 72.90625 
L 47.609375 25.390625 
L 58.015625 25.390625 
L 58.015625 17.1875 
L 47.609375 17.1875 
L 47.609375 0 
L 37.796875 0 
L 37.796875 17.1875 
L 4.890625 17.1875 
L 4.890625 26.703125 
z
" id="DejaVuSans-52"/>
       <path d="M 8.203125 72.90625 
L 55.078125 72.90625 
L 55.078125 68.703125 
L 28.609375 0 
L 18.3125 0 
L 43.21875 64.59375 
L 8.203125 64.59375 
z
" id="DejaVuSans-55"/>
       <path d="M 33.015625 40.375 
Q 26.375 40.375 22.484375 35.828125 
Q 18.609375 31.296875 18.609375 23.390625 
Q 18.609375 15.53125 22.484375 10.953125 
Q 26.375 6.390625 33.015625 6.390625 
Q 39.65625 6.390625 43.53125 10.953125 
Q 47.40625 15.53125 47.40625 23.390625 
Q 47.40625 31.296875 43.53125 35.828125 
Q 39.65625 40.375 33.015625 40.375 
z
M 52.59375 71.296875 
L 52.59375 62.3125 
Q 48.875 64.0625 45.09375 64.984375 
Q 41.3125 65.921875 37.59375 65.921875 
Q 27.828125 65.921875 22.671875 59.328125 
Q 17.53125 52.734375 16.796875 39.40625 
Q 19.671875 43.65625 24.015625 45.921875 
Q 28.375 48.1875 33.59375 48.1875 
Q 44.578125 48.1875 50.953125 41.515625 
Q 57.328125 34.859375 57.328125 23.390625 
Q 57.328125 12.15625 50.6875 5.359375 
Q 44.046875 -1.421875 33.015625 -1.421875 
Q 20.359375 -1.421875 13.671875 8.265625 
Q 6.984375 17.96875 6.984375 36.375 
Q 6.984375 53.65625 15.1875 63.9375 
Q 23.390625 74.21875 37.203125 74.21875 
Q 40.921875 74.21875 44.703125 73.484375 
Q 48.484375 72.75 52.59375 71.296875 
z
" id="DejaVuSans-54"/>
       <path d="M 10.6875 12.40625 
L 21 12.40625 
L 21 0 
L 10.6875 0 
z
" id="DejaVuSans-46"/>
      </defs>
      <g transform="translate(121.919375 439.078125)rotate(-90)scale(0.1 -0.1)">
       <use xlink:href="#DejaVuSans-49"/>
       <use x="63.623047" xlink:href="#DejaVuSans-50"/>
       <use x="127.246094" xlink:href="#DejaVuSans-51"/>
       <use x="190.869141" xlink:href="#DejaVuSans-48"/>
       <use x="254.492188" xlink:href="#DejaVuSans-52"/>
       <use x="318.115234" xlink:href="#DejaVuSans-55"/>
       <use x="381.738281" xlink:href="#DejaVuSans-54"/>
       <use x="445.361328" xlink:href="#DejaVuSans-46"/>
       <use x="477.148438" xlink:href="#DejaVuSans-49"/>
      </g>
     </g>
    </g>
    <g id="xtick_2">
     <g id="line2d_2">
      <g>
       <use style="stroke:#000000;stroke-width:0.8;" x="141.48" xlink:href="#m307f77b948" y="378"/>
      </g>
     </g>
     <g id="text_2">
      <!-- 349101.1 -->
      <defs>
       <path d="M 10.984375 1.515625 
L 10.984375 10.5 
Q 14.703125 8.734375 18.5 7.8125 
Q 22.3125 6.890625 25.984375 6.890625 
Q 35.75 6.890625 40.890625 13.453125 
Q 46.046875 20.015625 46.78125 33.40625 
Q 43.953125 29.203125 39.59375 26.953125 
Q 35.25 24.703125 29.984375 24.703125 
Q 19.046875 24.703125 12.671875 31.3125 
Q 6.296875 37.9375 6.296875 49.421875 
Q 6.296875 60.640625 12.9375 67.421875 
Q 19.578125 74.21875 30.609375 74.21875 
Q 43.265625 74.21875 49.921875 64.515625 
Q 56.59375 54.828125 56.59375 36.375 
Q 56.59375 19.140625 48.40625 8.859375 
Q 40.234375 -1.421875 26.421875 -1.421875 
Q 22.703125 -1.421875 18.890625 -0.6875 
Q 15.09375 0.046875 10.984375 1.515625 
z
M 30.609375 32.421875 
Q 37.25 32.421875 41.125 36.953125 
Q 45.015625 41.5 45.015625 49.421875 
Q 45.015625 57.28125 41.125 61.84375 
Q 37.25 66.40625 30.609375 66.40625 
Q 23.96875 66.40625 20.09375 61.84375 
Q 16.21875 57.28125 16.21875 49.421875 
Q 16.21875 41.5 20.09375 36.953125 
Q 23.96875 32.421875 30.609375 32.421875 
z
" id="DejaVuSans-57"/>
      </defs>
      <g transform="translate(144.239375 432.715625)rotate(-90)scale(0.1 -0.1)">
       <use xlink:href="#DejaVuSans-51"/>
       <use x="63.623047" xlink:href="#DejaVuSans-52"/>
       <use x="127.246094" xlink:href="#DejaVuSans-57"/>
       <use x="190.869141" xlink:href="#DejaVuSans-49"/>
       <use x="254.492188" xlink:href="#DejaVuSans-48"/>
       <use x="318.115234" xlink:href="#DejaVuSans-49"/>
       <use x="381.738281" xlink:href="#DejaVuSans-46"/>
       <use x="413.525391" xlink:href="#DejaVuSans-49"/>
      </g>
     </g>
    </g>
    <g id="xtick_3">
     <g id="line2d_3">
      <g>
       <use style="stroke:#000000;stroke-width:0.8;" x="163.8" xlink:href="#m307f77b948" y="378"/>
      </g>
     </g>
     <g id="text_3">
      <!-- 1174684.1 -->
      <defs>
       <path d="M 31.78125 34.625 
Q 24.75 34.625 20.71875 30.859375 
Q 16.703125 27.09375 16.703125 20.515625 
Q 16.703125 13.921875 20.71875 10.15625 
Q 24.75 6.390625 31.78125 6.390625 
Q 38.8125 6.390625 42.859375 10.171875 
Q 46.921875 13.96875 46.921875 20.515625 
Q 46.921875 27.09375 42.890625 30.859375 
Q 38.875 34.625 31.78125 34.625 
z
M 21.921875 38.8125 
Q 15.578125 40.375 12.03125 44.71875 
Q 8.5 49.078125 8.5 55.328125 
Q 8.5 64.0625 14.71875 69.140625 
Q 20.953125 74.21875 31.78125 74.21875 
Q 42.671875 74.21875 48.875 69.140625 
Q 55.078125 64.0625 55.078125 55.328125 
Q 55.078125 49.078125 51.53125 44.71875 
Q 48 40.375 41.703125 38.8125 
Q 48.828125 37.15625 52.796875 32.3125 
Q 56.78125 27.484375 56.78125 20.515625 
Q 56.78125 9.90625 50.3125 4.234375 
Q 43.84375 -1.421875 31.78125 -1.421875 
Q 19.734375 -1.421875 13.25 4.234375 
Q 6.78125 9.90625 6.78125 20.515625 
Q 6.78125 27.484375 10.78125 32.3125 
Q 14.796875 37.15625 21.921875 38.8125 
z
M 18.3125 54.390625 
Q 18.3125 48.734375 21.84375 45.5625 
Q 25.390625 42.390625 31.78125 42.390625 
Q 38.140625 42.390625 41.71875 45.5625 
Q 45.3125 48.734375 45.3125 54.390625 
Q 45.3125 60.0625 41.71875 63.234375 
Q 38.140625 66.40625 31.78125 66.40625 
Q 25.390625 66.40625 21.84375 63.234375 
Q 18.3125 60.0625 18.3125 54.390625 
z
" id="DejaVuSans-56"/>
      </defs>
      <g transform="translate(166.559375 439.078125)rotate(-90)scale(0.1 -0.1)">
       <use xlink:href="#DejaVuSans-49"/>
       <use x="63.623047" xlink:href="#DejaVuSans-49"/>
       <use x="127.246094" xlink:href="#DejaVuSans-55"/>
       <use x="190.869141" xlink:href="#DejaVuSans-52"/>
       <use x="254.492188" xlink:href="#DejaVuSans-54"/>
       <use x="318.115234" xlink:href="#DejaVuSans-56"/>
       <use x="381.738281" xlink:href="#DejaVuSans-52"/>
       <use x="445.361328" xlink:href="#DejaVuSans-46"/>
       <use x="477.148438" xlink:href="#DejaVuSans-49"/>
      </g>
     </g>
    </g>
    <g id="xtick_4">
     <g id="line2d_4">
      <g>
       <use style="stroke:#000000;stroke-width:0.8;" x="186.12" xlink:href="#m307f77b948" y="378"/>
      </g>
     </g>
     <g id="text_4">
      <!-- 1263006.1 -->
      <g transform="translate(188.879375 439.078125)rotate(-90)scale(0.1 -0.1)">
       <use xlink:href="#DejaVuSans-49"/>
       <use x="63.623047" xlink:href="#DejaVuSans-50"/>
       <use x="127.246094" xlink:href="#DejaVuSans-54"/>
       <use x="190.869141" xlink:href="#DejaVuSans-51"/>
       <use x="254.492188" xlink:href="#DejaVuSans-48"/>
       <use x="318.115234" xlink:href="#DejaVuSans-48"/>
       <use x="381.738281" xlink:href="#DejaVuSans-54"/>
       <use x="445.361328" xlink:href="#DejaVuSans-46"/>
       <use x="477.148438" xlink:href="#DejaVuSans-49"/>
      </g>
     </g>
    </g>
    <g id="xtick_5">
     <g id="line2d_5">
      <g>
       <use style="stroke:#000000;stroke-width:0.8;" x="208.44" xlink:href="#m307f77b948" y="378"/>
      </g>
     </g>
     <g id="text_5">
      <!-- 245012.1 -->
      <defs>
       <path d="M 10.796875 72.90625 
L 49.515625 72.90625 
L 49.515625 64.59375 
L 19.828125 64.59375 
L 19.828125 46.734375 
Q 21.96875 47.46875 24.109375 47.828125 
Q 26.265625 48.1875 28.421875 48.1875 
Q 40.625 48.1875 47.75 41.5 
Q 54.890625 34.8125 54.890625 23.390625 
Q 54.890625 11.625 47.5625 5.09375 
Q 40.234375 -1.421875 26.90625 -1.421875 
Q 22.3125 -1.421875 17.546875 -0.640625 
Q 12.796875 0.140625 7.71875 1.703125 
L 7.71875 11.625 
Q 12.109375 9.234375 16.796875 8.0625 
Q 21.484375 6.890625 26.703125 6.890625 
Q 35.15625 6.890625 40.078125 11.328125 
Q 45.015625 15.765625 45.015625 23.390625 
Q 45.015625 31 40.078125 35.4375 
Q 35.15625 39.890625 26.703125 39.890625 
Q 22.75 39.890625 18.8125 39.015625 
Q 14.890625 38.140625 10.796875 36.28125 
z
" id="DejaVuSans-53"/>
      </defs>
      <g transform="translate(211.199375 432.715625)rotate(-90)scale(0.1 -0.1)">
       <use xlink:href="#DejaVuSans-50"/>
       <use x="63.623047" xlink:href="#DejaVuSans-52"/>
       <use x="127.246094" xlink:href="#DejaVuSans-53"/>
       <use x="190.869141" xlink:href="#DejaVuSans-48"/>
       <use x="254.492188" xlink:href="#DejaVuSans-49"/>
       <use x="318.115234" xlink:href="#DejaVuSans-50"/>
       <use x="381.738281" xlink:href="#DejaVuSans-46"/>
       <use x="413.525391" xlink:href="#DejaVuSans-49"/>
      </g>
     </g>
    </g>
    <g id="xtick_6">
     <g id="line2d_6">
      <g>
       <use style="stroke:#000000;stroke-width:0.8;" x="230.76" xlink:href="#m307f77b948" y="378"/>
      </g>
     </g>
     <g id="text_6">
      <!-- 939301.1 -->
      <g transform="translate(233.519375 432.715625)rotate(-90)scale(0.1 -0.1)">
       <use xlink:href="#DejaVuSans-57"/>
       <use x="63.623047" xlink:href="#DejaVuSans-51"/>
       <use x="127.246094" xlink:href="#DejaVuSans-57"/>
       <use x="190.869141" xlink:href="#DejaVuSans-51"/>
       <use x="254.492188" xlink:href="#DejaVuSans-48"/>
       <use x="318.115234" xlink:href="#DejaVuSans-49"/>
       <use x="381.738281" xlink:href="#DejaVuSans-46"/>
       <use x="413.525391" xlink:href="#DejaVuSans-49"/>
      </g>
     </g>
    </g>
    <g id="xtick_7">
     <g id="line2d_7">
      <g>
       <use style="stroke:#000000;stroke-width:0.8;" x="253.08" xlink:href="#m307f77b948" y="378"/>
      </g>
     </g>
     <g id="text_7">
      <!-- 1009708.1 -->
      <g transform="translate(255.839375 439.078125)rotate(-90)scale(0.1 -0.1)">
       <use xlink:href="#DejaVuSans-49"/>
       <use x="63.623047" xlink:href="#DejaVuSans-48"/>
       <use x="127.246094" xlink:href="#DejaVuSans-48"/>
       <use x="190.869141" xlink:href="#DejaVuSans-57"/>
       <use x="254.492188" xlink:href="#DejaVuSans-55"/>
       <use x="318.115234" xlink:href="#DejaVuSans-48"/>
       <use x="381.738281" xlink:href="#DejaVuSans-56"/>
       <use x="445.361328" xlink:href="#DejaVuSans-46"/>
       <use x="477.148438" xlink:href="#DejaVuSans-49"/>
      </g>
     </g>
    </g>
    <g id="xtick_8">
     <g id="line2d_8">
      <g>
       <use style="stroke:#000000;stroke-width:0.8;" x="275.4" xlink:href="#m307f77b948" y="378"/>
      </g>
     </g>
     <g id="text_8">
      <!-- 1394711.1 -->
      <g transform="translate(278.159375 439.078125)rotate(-90)scale(0.1 -0.1)">
       <use xlink:href="#DejaVuSans-49"/>
       <use x="63.623047" xlink:href="#DejaVuSans-51"/>
       <use x="127.246094" xlink:href="#DejaVuSans-57"/>
       <use x="190.869141" xlink:href="#DejaVuSans-52"/>
       <use x="254.492188" xlink:href="#DejaVuSans-55"/>
       <use x="318.115234" xlink:href="#DejaVuSans-49"/>
       <use x="381.738281" xlink:href="#DejaVuSans-49"/>
       <use x="445.361328" xlink:href="#DejaVuSans-46"/>
       <use x="477.148438" xlink:href="#DejaVuSans-49"/>
      </g>
     </g>
    </g>
    <g id="xtick_9">
     <g id="line2d_9">
      <g>
       <use style="stroke:#000000;stroke-width:0.8;" x="297.72" xlink:href="#m307f77b948" y="378"/>
      </g>
     </g>
     <g id="text_9">
      <!-- 370895.1 -->
      <g transform="translate(300.479375 432.715625)rotate(-90)scale(0.1 -0.1)">
       <use xlink:href="#DejaVuSans-51"/>
       <use x="63.623047" xlink:href="#DejaVuSans-55"/>
       <use x="127.246094" xlink:href="#DejaVuSans-48"/>
       <use x="190.869141" xlink:href="#DejaVuSans-56"/>
       <use x="254.492188" xlink:href="#DejaVuSans-57"/>
       <use x="318.115234" xlink:href="#DejaVuSans-53"/>
       <use x="381.738281" xlink:href="#DejaVuSans-46"/>
       <use x="413.525391" xlink:href="#DejaVuSans-49"/>
      </g>
     </g>
    </g>
    <g id="xtick_10">
     <g id="line2d_10">
      <g>
       <use style="stroke:#000000;stroke-width:0.8;" x="320.04" xlink:href="#m307f77b948" y="378"/>
      </g>
     </g>
     <g id="text_10">
      <!-- 742723.1 -->
      <g transform="translate(322.799375 432.715625)rotate(-90)scale(0.1 -0.1)">
       <use xlink:href="#DejaVuSans-55"/>
       <use x="63.623047" xlink:href="#DejaVuSans-52"/>
       <use x="127.246094" xlink:href="#DejaVuSans-50"/>
       <use x="190.869141" xlink:href="#DejaVuSans-55"/>
       <use x="254.492188" xlink:href="#DejaVuSans-50"/>
       <use x="318.115234" xlink:href="#DejaVuSans-51"/>
       <use x="381.738281" xlink:href="#DejaVuSans-46"/>
       <use x="413.525391" xlink:href="#DejaVuSans-49"/>
      </g>
     </g>
    </g>
    <g id="xtick_11">
     <g id="line2d_11">
      <g>
       <use style="stroke:#000000;stroke-width:0.8;" x="342.36" xlink:href="#m307f77b948" y="378"/>
      </g>
     </g>
     <g id="text_11">
      <!-- 1045854.1 -->
      <g transform="translate(345.119375 439.078125)rotate(-90)scale(0.1 -0.1)">
       <use xlink:href="#DejaVuSans-49"/>
       <use x="63.623047" xlink:href="#DejaVuSans-48"/>
       <use x="127.246094" xlink:href="#DejaVuSans-52"/>
       <use x="190.869141" xlink:href="#DejaVuSans-53"/>
       <use x="254.492188" xlink:href="#DejaVuSans-56"/>
       <use x="318.115234" xlink:href="#DejaVuSans-53"/>
       <use x="381.738281" xlink:href="#DejaVuSans-52"/>
       <use x="445.361328" xlink:href="#DejaVuSans-46"/>
       <use x="477.148438" xlink:href="#DejaVuSans-49"/>
      </g>
     </g>
    </g>
    <g id="xtick_12">
     <g id="line2d_12">
      <g>
       <use style="stroke:#000000;stroke-width:0.8;" x="364.68" xlink:href="#m307f77b948" y="378"/>
      </g>
     </g>
     <g id="text_12">
      <!-- 1235799.1 -->
      <g transform="translate(367.439375 439.078125)rotate(-90)scale(0.1 -0.1)">
       <use xlink:href="#DejaVuSans-49"/>
       <use x="63.623047" xlink:href="#DejaVuSans-50"/>
       <use x="127.246094" xlink:href="#DejaVuSans-51"/>
       <use x="190.869141" xlink:href="#DejaVuSans-53"/>
       <use x="254.492188" xlink:href="#DejaVuSans-55"/>
       <use x="318.115234" xlink:href="#DejaVuSans-57"/>
       <use x="381.738281" xlink:href="#DejaVuSans-57"/>
       <use x="445.361328" xlink:href="#DejaVuSans-46"/>
       <use x="477.148438" xlink:href="#DejaVuSans-49"/>
      </g>
     </g>
    </g>
    <g id="xtick_13">
     <g id="line2d_13">
      <g>
       <use style="stroke:#000000;stroke-width:0.8;" x="387" xlink:href="#m307f77b948" y="378"/>
      </g>
     </g>
     <g id="text_13">
      <!-- 434085.1 -->
      <g transform="translate(389.759375 432.715625)rotate(-90)scale(0.1 -0.1)">
       <use xlink:href="#DejaVuSans-52"/>
       <use x="63.623047" xlink:href="#DejaVuSans-51"/>
       <use x="127.246094" xlink:href="#DejaVuSans-52"/>
       <use x="190.869141" xlink:href="#DejaVuSans-48"/>
       <use x="254.492188" xlink:href="#DejaVuSans-56"/>
       <use x="318.115234" xlink:href="#DejaVuSans-53"/>
       <use x="381.738281" xlink:href="#DejaVuSans-46"/>
       <use x="413.525391" xlink:href="#DejaVuSans-49"/>
      </g>
     </g>
    </g>
    <g id="xtick_14">
     <g id="line2d_14">
      <g>
       <use style="stroke:#000000;stroke-width:0.8;" x="409.32" xlink:href="#m307f77b948" y="378"/>
      </g>
     </g>
     <g id="text_14">
      <!-- 1229484.1 -->
      <g transform="translate(412.079375 439.078125)rotate(-90)scale(0.1 -0.1)">
       <use xlink:href="#DejaVuSans-49"/>
       <use x="63.623047" xlink:href="#DejaVuSans-50"/>
       <use x="127.246094" xlink:href="#DejaVuSans-50"/>
       <use x="190.869141" xlink:href="#DejaVuSans-57"/>
       <use x="254.492188" xlink:href="#DejaVuSans-52"/>
       <use x="318.115234" xlink:href="#DejaVuSans-56"/>
       <use x="381.738281" xlink:href="#DejaVuSans-52"/>
       <use x="445.361328" xlink:href="#DejaVuSans-46"/>
       <use x="477.148438" xlink:href="#DejaVuSans-49"/>
      </g>
     </g>
    </g>
    <g id="xtick_15">
     <g id="line2d_15">
      <g>
       <use style="stroke:#000000;stroke-width:0.8;" x="431.64" xlink:href="#m307f77b948" y="378"/>
      </g>
     </g>
     <g id="text_15">
      <!-- 1229781.1 -->
      <g transform="translate(434.399375 439.078125)rotate(-90)scale(0.1 -0.1)">
       <use xlink:href="#DejaVuSans-49"/>
       <use x="63.623047" xlink:href="#DejaVuSans-50"/>
       <use x="127.246094" xlink:href="#DejaVuSans-50"/>
       <use x="190.869141" xlink:href="#DejaVuSans-57"/>
       <use x="254.492188" xlink:href="#DejaVuSans-55"/>
       <use x="318.115234" xlink:href="#DejaVuSans-56"/>
       <use x="381.738281" xlink:href="#DejaVuSans-49"/>
       <use x="445.361328" xlink:href="#DejaVuSans-46"/>
       <use x="477.148438" xlink:href="#DejaVuSans-49"/>
      </g>
     </g>
    </g>
    <g id="xtick_16">
     <g id="line2d_16">
      <g>
       <use style="stroke:#000000;stroke-width:0.8;" x="453.96" xlink:href="#m307f77b948" y="378"/>
      </g>
     </g>
     <g id="text_16">
      <!-- 1097667.1 -->
      <g transform="translate(456.719375 439.078125)rotate(-90)scale(0.1 -0.1)">
       <use xlink:href="#DejaVuSans-49"/>
       <use x="63.623047" xlink:href="#DejaVuSans-48"/>
       <use x="127.246094" xlink:href="#DejaVuSans-57"/>
       <use x="190.869141" xlink:href="#DejaVuSans-55"/>
       <use x="254.492188" xlink:href="#DejaVuSans-54"/>
       <use x="318.115234" xlink:href="#DejaVuSans-54"/>
       <use x="381.738281" xlink:href="#DejaVuSans-55"/>
       <use x="445.361328" xlink:href="#DejaVuSans-46"/>
       <use x="477.148438" xlink:href="#DejaVuSans-49"/>
      </g>
     </g>
    </g>
    <g id="xtick_17">
     <g id="line2d_17">
      <g>
       <use style="stroke:#000000;stroke-width:0.8;" x="476.28" xlink:href="#m307f77b948" y="378"/>
      </g>
     </g>
     <g id="text_17">
      <!-- 1050222.1 -->
      <g transform="translate(479.039375 439.078125)rotate(-90)scale(0.1 -0.1)">
       <use xlink:href="#DejaVuSans-49"/>
       <use x="63.623047" xlink:href="#DejaVuSans-48"/>
       <use x="127.246094" xlink:href="#DejaVuSans-53"/>
       <use x="190.869141" xlink:href="#DejaVuSans-48"/>
       <use x="254.492188" xlink:href="#DejaVuSans-50"/>
       <use x="318.115234" xlink:href="#DejaVuSans-50"/>
       <use x="381.738281" xlink:href="#DejaVuSans-50"/>
       <use x="445.361328" xlink:href="#DejaVuSans-46"/>
       <use x="477.148438" xlink:href="#DejaVuSans-49"/>
      </g>
     </g>
    </g>
    <g id="xtick_18">
     <g id="line2d_18">
      <g>
       <use style="stroke:#000000;stroke-width:0.8;" x="498.6" xlink:href="#m307f77b948" y="378"/>
      </g>
     </g>
     <g id="text_18">
      <!-- 1263001.1 -->
      <g transform="translate(501.359375 439.078125)rotate(-90)scale(0.1 -0.1)">
       <use xlink:href="#DejaVuSans-49"/>
       <use x="63.623047" xlink:href="#DejaVuSans-50"/>
       <use x="127.246094" xlink:href="#DejaVuSans-54"/>
       <use x="190.869141" xlink:href="#DejaVuSans-51"/>
       <use x="254.492188" xlink:href="#DejaVuSans-48"/>
       <use x="318.115234" xlink:href="#DejaVuSans-48"/>
       <use x="381.738281" xlink:href="#DejaVuSans-49"/>
       <use x="445.361328" xlink:href="#DejaVuSans-46"/>
       <use x="477.148438" xlink:href="#DejaVuSans-49"/>
      </g>
     </g>
    </g>
    <g id="xtick_19">
     <g id="line2d_19">
      <g>
       <use style="stroke:#000000;stroke-width:0.8;" x="520.92" xlink:href="#m307f77b948" y="378"/>
      </g>
     </g>
     <g id="text_19">
      <!-- 1412874.1 -->
      <g transform="translate(523.679375 439.078125)rotate(-90)scale(0.1 -0.1)">
       <use xlink:href="#DejaVuSans-49"/>
       <use x="63.623047" xlink:href="#DejaVuSans-52"/>
       <use x="127.246094" xlink:href="#DejaVuSans-49"/>
       <use x="190.869141" xlink:href="#DejaVuSans-50"/>
       <use x="254.492188" xlink:href="#DejaVuSans-56"/>
       <use x="318.115234" xlink:href="#DejaVuSans-55"/>
       <use x="381.738281" xlink:href="#DejaVuSans-52"/>
       <use x="445.361328" xlink:href="#DejaVuSans-46"/>
       <use x="477.148438" xlink:href="#DejaVuSans-49"/>
      </g>
     </g>
    </g>
    <g id="xtick_20">
     <g id="line2d_20">
      <g>
       <use style="stroke:#000000;stroke-width:0.8;" x="543.24" xlink:href="#m307f77b948" y="378"/>
      </g>
     </g>
     <g id="text_20">
      <!-- 1131273.1 -->
      <g transform="translate(545.999375 439.078125)rotate(-90)scale(0.1 -0.1)">
       <use xlink:href="#DejaVuSans-49"/>
       <use x="63.623047" xlink:href="#DejaVuSans-49"/>
       <use x="127.246094" xlink:href="#DejaVuSans-51"/>
       <use x="190.869141" xlink:href="#DejaVuSans-49"/>
       <use x="254.492188" xlink:href="#DejaVuSans-50"/>
       <use x="318.115234" xlink:href="#DejaVuSans-55"/>
       <use x="381.738281" xlink:href="#DejaVuSans-51"/>
       <use x="445.361328" xlink:href="#DejaVuSans-46"/>
       <use x="477.148438" xlink:href="#DejaVuSans-49"/>
      </g>
     </g>
    </g>
    <g id="xtick_21">
     <g id="line2d_21">
      <g>
       <use style="stroke:#000000;stroke-width:0.8;" x="565.56" xlink:href="#m307f77b948" y="378"/>
      </g>
     </g>
     <g id="text_21">
      <!-- 1007115.1 -->
      <g transform="translate(568.319375 439.078125)rotate(-90)scale(0.1 -0.1)">
       <use xlink:href="#DejaVuSans-49"/>
       <use x="63.623047" xlink:href="#DejaVuSans-48"/>
       <use x="127.246094" xlink:href="#DejaVuSans-48"/>
       <use x="190.869141" xlink:href="#DejaVuSans-55"/>
       <use x="254.492188" xlink:href="#DejaVuSans-49"/>
       <use x="318.115234" xlink:href="#DejaVuSans-49"/>
       <use x="381.738281" xlink:href="#DejaVuSans-53"/>
       <use x="445.361328" xlink:href="#DejaVuSans-46"/>
       <use x="477.148438" xlink:href="#DejaVuSans-49"/>
      </g>
     </g>
    </g>
    <g id="xtick_22">
     <g id="line2d_22">
      <g>
       <use style="stroke:#000000;stroke-width:0.8;" x="587.88" xlink:href="#m307f77b948" y="378"/>
      </g>
     </g>
     <g id="text_22">
      <!-- 552396.1 -->
      <g transform="translate(590.639375 432.715625)rotate(-90)scale(0.1 -0.1)">
       <use xlink:href="#DejaVuSans-53"/>
       <use x="63.623047" xlink:href="#DejaVuSans-53"/>
       <use x="127.246094" xlink:href="#DejaVuSans-50"/>
       <use x="190.869141" xlink:href="#DejaVuSans-51"/>
       <use x="254.492188" xlink:href="#DejaVuSans-57"/>
       <use x="318.115234" xlink:href="#DejaVuSans-54"/>
       <use x="381.738281" xlink:href="#DejaVuSans-46"/>
       <use x="413.525391" xlink:href="#DejaVuSans-49"/>
      </g>
     </g>
    </g>
    <g id="xtick_23">
     <g id="line2d_23">
      <g>
       <use style="stroke:#000000;stroke-width:0.8;" x="610.2" xlink:href="#m307f77b948" y="378"/>
      </g>
     </g>
     <g id="text_23">
      <!-- 1131272.1 -->
      <g transform="translate(612.959375 439.078125)rotate(-90)scale(0.1 -0.1)">
       <use xlink:href="#DejaVuSans-49"/>
       <use x="63.623047" xlink:href="#DejaVuSans-49"/>
       <use x="127.246094" xlink:href="#DejaVuSans-51"/>
       <use x="190.869141" xlink:href="#DejaVuSans-49"/>
       <use x="254.492188" xlink:href="#DejaVuSans-50"/>
       <use x="318.115234" xlink:href="#DejaVuSans-55"/>
       <use x="381.738281" xlink:href="#DejaVuSans-50"/>
       <use x="445.361328" xlink:href="#DejaVuSans-46"/>
       <use x="477.148438" xlink:href="#DejaVuSans-49"/>
      </g>
     </g>
    </g>
    <g id="xtick_24">
     <g id="line2d_24">
      <g>
       <use style="stroke:#000000;stroke-width:0.8;" x="632.52" xlink:href="#m307f77b948" y="378"/>
      </g>
     </g>
     <g id="text_24">
      <!-- 1224136.1 -->
      <g transform="translate(635.279375 439.078125)rotate(-90)scale(0.1 -0.1)">
       <use xlink:href="#DejaVuSans-49"/>
       <use x="63.623047" xlink:href="#DejaVuSans-50"/>
       <use x="127.246094" xlink:href="#DejaVuSans-50"/>
       <use x="190.869141" xlink:href="#DejaVuSans-52"/>
       <use x="254.492188" xlink:href="#DejaVuSans-49"/>
       <use x="318.115234" xlink:href="#DejaVuSans-51"/>
       <use x="381.738281" xlink:href="#DejaVuSans-54"/>
       <use x="445.361328" xlink:href="#DejaVuSans-46"/>
       <use x="477.148438" xlink:href="#DejaVuSans-49"/>
      </g>
     </g>
    </g>
    <g id="xtick_25">
     <g id="line2d_25">
      <g>
       <use style="stroke:#000000;stroke-width:0.8;" x="654.84" xlink:href="#m307f77b948" y="378"/>
      </g>
     </g>
     <g id="text_25">
      <!-- 1137281.1 -->
      <g transform="translate(657.599375 439.078125)rotate(-90)scale(0.1 -0.1)">
       <use xlink:href="#DejaVuSans-49"/>
       <use x="63.623047" xlink:href="#DejaVuSans-49"/>
       <use x="127.246094" xlink:href="#DejaVuSans-51"/>
       <use x="190.869141" xlink:href="#DejaVuSans-55"/>
       <use x="254.492188" xlink:href="#DejaVuSans-50"/>
       <use x="318.115234" xlink:href="#DejaVuSans-56"/>
       <use x="381.738281" xlink:href="#DejaVuSans-49"/>
       <use x="445.361328" xlink:href="#DejaVuSans-46"/>
       <use x="477.148438" xlink:href="#DejaVuSans-49"/>
      </g>
     </g>
    </g>
    <g id="xtick_26">
     <g id="line2d_26">
      <g>
       <use style="stroke:#000000;stroke-width:0.8;" x="677.16" xlink:href="#m307f77b948" y="378"/>
      </g>
     </g>
     <g id="text_26">
      <!-- 1122939.1 -->
      <g transform="translate(679.919375 439.078125)rotate(-90)scale(0.1 -0.1)">
       <use xlink:href="#DejaVuSans-49"/>
       <use x="63.623047" xlink:href="#DejaVuSans-49"/>
       <use x="127.246094" xlink:href="#DejaVuSans-50"/>
       <use x="190.869141" xlink:href="#DejaVuSans-50"/>
       <use x="254.492188" xlink:href="#DejaVuSans-57"/>
       <use x="318.115234" xlink:href="#DejaVuSans-51"/>
       <use x="381.738281" xlink:href="#DejaVuSans-57"/>
       <use x="445.361328" xlink:href="#DejaVuSans-46"/>
       <use x="477.148438" xlink:href="#DejaVuSans-49"/>
      </g>
     </g>
    </g>
    <g id="xtick_27">
     <g id="line2d_27">
      <g>
       <use style="stroke:#000000;stroke-width:0.8;" x="699.48" xlink:href="#m307f77b948" y="378"/>
      </g>
     </g>
     <g id="text_27">
      <!-- 247639.1 -->
      <g transform="translate(702.239375 432.715625)rotate(-90)scale(0.1 -0.1)">
       <use xlink:href="#DejaVuSans-50"/>
       <use x="63.623047" xlink:href="#DejaVuSans-52"/>
       <use x="127.246094" xlink:href="#DejaVuSans-55"/>
       <use x="190.869141" xlink:href="#DejaVuSans-54"/>
       <use x="254.492188" xlink:href="#DejaVuSans-51"/>
       <use x="318.115234" xlink:href="#DejaVuSans-57"/>
       <use x="381.738281" xlink:href="#DejaVuSans-46"/>
       <use x="413.525391" xlink:href="#DejaVuSans-49"/>
      </g>
     </g>
    </g>
    <g id="xtick_28">
     <g id="line2d_28">
      <g>
       <use style="stroke:#000000;stroke-width:0.8;" x="721.8" xlink:href="#m307f77b948" y="378"/>
      </g>
     </g>
     <g id="text_28">
      <!-- 667138.1 -->
      <g transform="translate(724.559375 432.715625)rotate(-90)scale(0.1 -0.1)">
       <use xlink:href="#DejaVuSans-54"/>
       <use x="63.623047" xlink:href="#DejaVuSans-54"/>
       <use x="127.246094" xlink:href="#DejaVuSans-55"/>
       <use x="190.869141" xlink:href="#DejaVuSans-49"/>
       <use x="254.492188" xlink:href="#DejaVuSans-51"/>
       <use x="318.115234" xlink:href="#DejaVuSans-56"/>
       <use x="381.738281" xlink:href="#DejaVuSans-46"/>
       <use x="413.525391" xlink:href="#DejaVuSans-49"/>
      </g>
     </g>
    </g>
    <g id="xtick_29">
     <g id="line2d_29">
      <g>
       <use style="stroke:#000000;stroke-width:0.8;" x="744.12" xlink:href="#m307f77b948" y="378"/>
      </g>
     </g>
     <g id="text_29">
      <!-- 1345697.1 -->
      <g transform="translate(746.879375 439.078125)rotate(-90)scale(0.1 -0.1)">
       <use xlink:href="#DejaVuSans-49"/>
       <use x="63.623047" xlink:href="#DejaVuSans-51"/>
       <use x="127.246094" xlink:href="#DejaVuSans-52"/>
       <use x="190.869141" xlink:href="#DejaVuSans-53"/>
       <use x="254.492188" xlink:href="#DejaVuSans-54"/>
       <use x="318.115234" xlink:href="#DejaVuSans-57"/>
       <use x="381.738281" xlink:href="#DejaVuSans-55"/>
       <use x="445.361328" xlink:href="#DejaVuSans-46"/>
       <use x="477.148438" xlink:href="#DejaVuSans-49"/>
      </g>
     </g>
    </g>
    <g id="xtick_30">
     <g id="line2d_30">
      <g>
       <use style="stroke:#000000;stroke-width:0.8;" x="766.44" xlink:href="#m307f77b948" y="378"/>
      </g>
     </g>
     <g id="text_30">
      <!-- 1111069.1 -->
      <g transform="translate(769.199375 439.078125)rotate(-90)scale(0.1 -0.1)">
       <use xlink:href="#DejaVuSans-49"/>
       <use x="63.623047" xlink:href="#DejaVuSans-49"/>
       <use x="127.246094" xlink:href="#DejaVuSans-49"/>
       <use x="190.869141" xlink:href="#DejaVuSans-49"/>
       <use x="254.492188" xlink:href="#DejaVuSans-48"/>
       <use x="318.115234" xlink:href="#DejaVuSans-54"/>
       <use x="381.738281" xlink:href="#DejaVuSans-57"/>
       <use x="445.361328" xlink:href="#DejaVuSans-46"/>
       <use x="477.148438" xlink:href="#DejaVuSans-49"/>
      </g>
     </g>
    </g>
    <g id="text_31">
     <!-- ﻡﻮﻧﮊ ﻪﺳﺎﻨﺷ -->
     <defs>
      <path d="M 29.78125 14.40625 
Q 35.75 12.359375 39.453125 12.359375 
Q 41.609375 12.359375 42.625 13.421875 
Q 45.21875 16.21875 45.21875 19.046875 
Q 45.21875 20.21875 44.921875 21.1875 
Q 43.890625 25.484375 41.015625 26.3125 
Q 39.0625 26.90625 36.8125 26.90625 
Q 33.9375 26.90625 32.625 25.59375 
Q 29.296875 22.265625 29.296875 18.953125 
Q 29.296875 17 29.78125 14.40625 
z
M 23.921875 7.5625 
Q 21.484375 8.9375 17.828125 5.125 
Q 16.609375 3.859375 16.609375 0 
L 16.609375 -24.03125 
L 6.84375 -24.03125 
L 6.84375 0 
Q 6.84375 8.453125 12.703125 13.421875 
Q 15.875 16.109375 20.265625 16.109375 
Q 20.171875 18.171875 20.171875 20.125 
Q 20.171875 27.34375 28.078125 33.796875 
Q 31.84375 36.859375 36.328125 36.859375 
Q 40.09375 36.859375 43.953125 35.109375 
Q 52.828125 31.0625 54.203125 22.90625 
Q 54.59375 20.703125 54.59375 17.96875 
Q 54.59375 10.84375 49.8125 7.671875 
Q 43.953125 3.765625 39.65625 3.765625 
Q 30.953125 3.65625 23.921875 7.5625 
z
" id="DejaVuSans-65249"/>
      <path d="M 31.890625 8.984375 
Q 31.890625 12.703125 31.109375 15.484375 
Q 29.9375 19.390625 27.6875 20.84375 
Q 24.75 22.859375 21.828125 21.578125 
Q 18.5625 20.171875 17.921875 17.4375 
Q 17.09375 13.765625 20.21875 11.140625 
Q 22.515625 9.1875 31.890625 8.984375 
z
M 40.625 8.984375 
L 52.640625 8.984375 
L 52.640625 0 
L 43.171875 0 
L 39.75 0.046875 
Q 38.53125 -7.5625 32.234375 -13.875 
Q 28.171875 -17.921875 23.046875 -20.21875 
Q 13.671875 -24.421875 -4.15625 -24.421875 
L -4.15625 -15.4375 
Q 13.484375 -15.4375 19.921875 -11.71875 
Q 28.125 -7.078125 31.15625 0.140625 
Q 25.390625 0.296875 23.1875 0.640625 
Q 16.40625 1.8125 13.921875 3.90625 
Q 8.734375 8.25 8.25 14.84375 
Q 8.15625 16.359375 8.640625 19.140625 
Q 9.96875 26.703125 18.5625 30.375 
Q 21.4375 31.59375 24.609375 31.546875 
Q 28.859375 31.453125 32.234375 29.046875 
Q 38.71875 24.5625 39.796875 17.671875 
Q 40.4375 13.625 40.625 8.984375 
z
" id="DejaVuSans-65262"/>
      <path d="M 11 49.328125 
L 18.328125 49.328125 
L 18.328125 42 
L 11 42 
z
M 14.59375 4.203125 
Q 11.078125 0 3.421875 0 
L -0.984375 0 
L -0.984375 8.984375 
L 0.734375 8.984375 
Q 5.5625 8.984375 7.71875 11.140625 
Q 10.109375 13.53125 10.109375 18.703125 
L 10.109375 29.296875 
L 19.09375 29.296875 
L 19.09375 18.703125 
Q 19.09375 9.578125 14.59375 4.203125 
z
" id="DejaVuSans-65255"/>
      <path d="M 30.484375 58.53125 
L 37.796875 58.53125 
L 37.796875 51.203125 
L 30.484375 51.203125 
z
M 36.578125 46.328125 
L 43.90625 46.328125 
L 43.90625 39 
L 36.578125 39 
z
M 24.375 46.328125 
L 31.703125 46.328125 
L 31.703125 39 
L 24.375 39 
z
M 32.953125 7.71875 
Q 33.453125 10.546875 33.453125 14.0625 
Q 33.453125 20.21875 30.859375 26.859375 
L 39.84375 26.859375 
Q 42.28125 21.09375 42.28125 14.65625 
Q 42.28125 10.640625 41.890625 7.625 
Q 39.65625 -9.46875 25.4375 -17.046875 
Q 11.578125 -24.421875 -4.15625 -24.421875 
L -4.15625 -15.4375 
Q 10.6875 -15.4375 20.609375 -9.1875 
Q 31.25 -2.4375 32.953125 7.71875 
z
" id="DejaVuSans-64394"/>
      <path id="DejaVuSans-32"/>
      <path d="M 33.015625 13.765625 
Q 32.28125 15.828125 31.640625 18.21875 
Q 31 20.65625 30.421875 25.59375 
Q 24.5625 25 20.5625 21.734375 
Q 15.140625 17.390625 15.234375 14.359375 
Q 15.28125 12.359375 19.671875 11.125 
Q 24.078125 9.90625 33.015625 13.765625 
z
M 29.734375 32.625 
Q 29.546875 34.515625 29.390625 36.625 
L 38.375 36.625 
Q 38.421875 28.421875 40.1875 19.921875 
Q 41.21875 14.984375 43.953125 11.140625 
Q 45.453125 8.984375 50.921875 8.984375 
L 54.59375 8.984375 
L 54.59375 0 
L 48.25 0 
Q 43.84375 0 40.28125 2.484375 
Q 38.09375 4 36.234375 6.890625 
Q 29.5 3.328125 21.875 3.328125 
Q 19.140625 3.328125 16.3125 4.046875 
Q 7.078125 6.390625 7.078125 13.921875 
Q 7.078125 22.359375 17.046875 28.5625 
Q 22.359375 31.890625 29.734375 32.625 
z
" id="DejaVuSans-65258"/>
      <path d="M 18.75 6.734375 
Q 16.65625 3.859375 13.921875 2.25 
Q 10.203125 0 5.375 0 
L -0.984375 0 
L -0.984375 8.984375 
L 2.6875 8.984375 
Q 7.515625 8.984375 9.671875 11.140625 
Q 13.578125 15.046875 13.578125 19.921875 
L 13.578125 29.296875 
L 22.5625 29.296875 
L 22.5625 21.6875 
Q 22.5625 18.5625 24.703125 13.671875 
Q 26.8125 8.84375 31.890625 8.84375 
Q 37.203125 8.84375 39.359375 14.796875 
Q 41.15625 19.828125 41.15625 29.296875 
L 50.140625 29.296875 
Q 50.140625 19.28125 51.078125 16.84375 
Q 54.203125 8.546875 59.578125 8.59375 
Q 66.5 8.6875 66.5 22.265625 
L 66.5 36.625 
L 75.484375 36.625 
L 75.484375 19.921875 
Q 75.484375 10.203125 71 4.6875 
Q 67.328125 0.203125 62.359375 -0.984375 
Q 60.546875 -1.421875 58.84375 -1.421875 
Q 55.765625 -1.421875 53.078125 -0.203125 
Q 46.390625 2.78125 45.515625 9.234375 
Q 43.171875 1.609375 38.484375 0 
Q 35.15625 -1.171875 31.984375 -1.171875 
Q 27.203125 -1.171875 23.6875 1.21875 
Q 20.75 3.171875 18.75 6.734375 
z
" id="DejaVuSans-65203"/>
      <path d="M 9.421875 18.109375 
L 9.421875 75.984375 
L 18.40625 75.984375 
L 18.40625 18.703125 
Q 18.40625 13.53125 20.796875 11.140625 
Q 22.953125 8.984375 27.78125 8.984375 
L 31.453125 8.984375 
L 31.453125 0 
L 25.09375 0 
Q 17.578125 0 13.671875 4.5 
Q 9.421875 9.421875 9.421875 18.109375 
z
" id="DejaVuSans-65166"/>
      <path d="M 11 49.328125 
L 18.328125 49.328125 
L 18.328125 42 
L 11 42 
z
M 14.59375 4.203125 
Q 10.84375 0 3.421875 0 
L -0.984375 0 
L -0.984375 8.984375 
L 0.734375 8.984375 
Q 5.5625 8.984375 7.71875 11.140625 
Q 10.109375 13.53125 10.109375 18.703125 
L 10.109375 29.296875 
L 19.09375 29.296875 
L 19.09375 18.703125 
Q 19.09375 13.53125 21.484375 11.140625 
Q 23.640625 8.984375 28.46875 8.984375 
L 31.15625 8.984375 
L 31.15625 0 
L 25.78125 0 
Q 18.453125 0 14.59375 4.203125 
z
" id="DejaVuSans-65256"/>
      <path d="M 18.75 6.734375 
Q 16.65625 3.859375 13.921875 2.25 
Q 10.203125 0 5.375 0 
L -0.984375 0 
L -0.984375 8.984375 
L 2.6875 8.984375 
Q 7.515625 8.984375 9.671875 11.140625 
Q 13.578125 15.046875 13.578125 19.921875 
L 13.578125 29.296875 
L 22.5625 29.296875 
L 22.5625 21.6875 
Q 22.5625 18.5625 24.703125 13.671875 
Q 26.8125 8.84375 31.890625 8.84375 
Q 37.203125 8.84375 39.359375 14.796875 
Q 41.15625 19.828125 41.15625 29.296875 
L 50.140625 29.296875 
Q 50.140625 19.28125 51.078125 16.84375 
Q 54.203125 8.546875 59.578125 8.59375 
Q 66.5 8.6875 66.5 22.265625 
L 66.5 36.625 
L 75.484375 36.625 
L 75.484375 19.921875 
Q 75.484375 10.203125 71 4.6875 
Q 67.328125 0.203125 62.359375 -0.984375 
Q 60.546875 -1.421875 58.84375 -1.421875 
Q 55.765625 -1.421875 53.078125 -0.203125 
Q 46.390625 2.78125 45.515625 9.234375 
Q 43.171875 1.609375 38.484375 0 
Q 35.15625 -1.171875 31.984375 -1.171875 
Q 27.203125 -1.171875 23.6875 1.21875 
Q 20.75 3.171875 18.75 6.734375 
z
M 37.859375 58.53125 
L 45.171875 58.53125 
L 45.171875 51.203125 
L 37.859375 51.203125 
z
M 43.953125 46.328125 
L 51.28125 46.328125 
L 51.28125 39 
L 43.953125 39 
z
M 31.75 46.328125 
L 39.078125 46.328125 
L 39.078125 39 
L 31.75 39 
z
" id="DejaVuSans-65207"/>
     </defs>
     <g transform="translate(417.633594 450.676562)scale(0.1 -0.1)">
      <use xlink:href="#DejaVuSans-65249"/>
      <use x="61.914062" xlink:href="#DejaVuSans-65262"/>
      <use x="113.574219" xlink:href="#DejaVuSans-65255"/>
      <use x="141.40625" xlink:href="#DejaVuSans-64394"/>
      <use x="189.697266" xlink:href="#DejaVuSans-32"/>
      <use x="221.484375" xlink:href="#DejaVuSans-65258"/>
      <use x="275.097656" xlink:href="#DejaVuSans-65203"/>
      <use x="358.886719" xlink:href="#DejaVuSans-65166"/>
      <use x="389.355469" xlink:href="#DejaVuSans-65256"/>
      <use x="419.53125" xlink:href="#DejaVuSans-65207"/>
     </g>
    </g>
   </g>
   <g id="matplotlib.axis_2">
    <g id="ytick_1">
     <g id="line2d_31">
      <defs>
       <path d="M 0 0 
L -3.5 0 
" id="mb551b574ef" style="stroke:#000000;stroke-width:0.8;"/>
      </defs>
      <g>
       <use style="stroke:#000000;stroke-width:0.8;" x="108" xlink:href="#mb551b574ef" y="378"/>
      </g>
     </g>
     <g id="text_32">
      <!-- 0 -->
      <g transform="translate(94.6375 381.799219)scale(0.1 -0.1)">
       <use xlink:href="#DejaVuSans-48"/>
      </g>
     </g>
    </g>
    <g id="ytick_2">
     <g id="line2d_32">
      <g>
       <use style="stroke:#000000;stroke-width:0.8;" x="108" xlink:href="#mb551b574ef" y="337.038891"/>
      </g>
     </g>
     <g id="text_33">
      <!-- 2000 -->
      <g transform="translate(75.55 340.83811)scale(0.1 -0.1)">
       <use xlink:href="#DejaVuSans-50"/>
       <use x="63.623047" xlink:href="#DejaVuSans-48"/>
       <use x="127.246094" xlink:href="#DejaVuSans-48"/>
       <use x="190.869141" xlink:href="#DejaVuSans-48"/>
      </g>
     </g>
    </g>
    <g id="ytick_3">
     <g id="line2d_33">
      <g>
       <use style="stroke:#000000;stroke-width:0.8;" x="108" xlink:href="#mb551b574ef" y="296.077782"/>
      </g>
     </g>
     <g id="text_34">
      <!-- 4000 -->
      <g transform="translate(75.55 299.877)scale(0.1 -0.1)">
       <use xlink:href="#DejaVuSans-52"/>
       <use x="63.623047" xlink:href="#DejaVuSans-48"/>
       <use x="127.246094" xlink:href="#DejaVuSans-48"/>
       <use x="190.869141" xlink:href="#DejaVuSans-48"/>
      </g>
     </g>
    </g>
    <g id="ytick_4">
     <g id="line2d_34">
      <g>
       <use style="stroke:#000000;stroke-width:0.8;" x="108" xlink:href="#mb551b574ef" y="255.116672"/>
      </g>
     </g>
     <g id="text_35">
      <!-- 6000 -->
      <g transform="translate(75.55 258.915891)scale(0.1 -0.1)">
       <use xlink:href="#DejaVuSans-54"/>
       <use x="63.623047" xlink:href="#DejaVuSans-48"/>
       <use x="127.246094" xlink:href="#DejaVuSans-48"/>
       <use x="190.869141" xlink:href="#DejaVuSans-48"/>
      </g>
     </g>
    </g>
    <g id="ytick_5">
     <g id="line2d_35">
      <g>
       <use style="stroke:#000000;stroke-width:0.8;" x="108" xlink:href="#mb551b574ef" y="214.155563"/>
      </g>
     </g>
     <g id="text_36">
      <!-- 8000 -->
      <g transform="translate(75.55 217.954782)scale(0.1 -0.1)">
       <use xlink:href="#DejaVuSans-56"/>
       <use x="63.623047" xlink:href="#DejaVuSans-48"/>
       <use x="127.246094" xlink:href="#DejaVuSans-48"/>
       <use x="190.869141" xlink:href="#DejaVuSans-48"/>
      </g>
     </g>
    </g>
    <g id="ytick_6">
     <g id="line2d_36">
      <g>
       <use style="stroke:#000000;stroke-width:0.8;" x="108" xlink:href="#mb551b574ef" y="173.194454"/>
      </g>
     </g>
     <g id="text_37">
      <!-- 10000 -->
      <g transform="translate(69.1875 176.993673)scale(0.1 -0.1)">
       <use xlink:href="#DejaVuSans-49"/>
       <use x="63.623047" xlink:href="#DejaVuSans-48"/>
       <use x="127.246094" xlink:href="#DejaVuSans-48"/>
       <use x="190.869141" xlink:href="#DejaVuSans-48"/>
       <use x="254.492188" xlink:href="#DejaVuSans-48"/>
      </g>
     </g>
    </g>
    <g id="ytick_7">
     <g id="line2d_37">
      <g>
       <use style="stroke:#000000;stroke-width:0.8;" x="108" xlink:href="#mb551b574ef" y="132.233345"/>
      </g>
     </g>
     <g id="text_38">
      <!-- 12000 -->
      <g transform="translate(69.1875 136.032564)scale(0.1 -0.1)">
       <use xlink:href="#DejaVuSans-49"/>
       <use x="63.623047" xlink:href="#DejaVuSans-50"/>
       <use x="127.246094" xlink:href="#DejaVuSans-48"/>
       <use x="190.869141" xlink:href="#DejaVuSans-48"/>
       <use x="254.492188" xlink:href="#DejaVuSans-48"/>
      </g>
     </g>
    </g>
    <g id="ytick_8">
     <g id="line2d_38">
      <g>
       <use style="stroke:#000000;stroke-width:0.8;" x="108" xlink:href="#mb551b574ef" y="91.272236"/>
      </g>
     </g>
     <g id="text_39">
      <!-- 14000 -->
      <g transform="translate(69.1875 95.071455)scale(0.1 -0.1)">
       <use xlink:href="#DejaVuSans-49"/>
       <use x="63.623047" xlink:href="#DejaVuSans-52"/>
       <use x="127.246094" xlink:href="#DejaVuSans-48"/>
       <use x="190.869141" xlink:href="#DejaVuSans-48"/>
       <use x="254.492188" xlink:href="#DejaVuSans-48"/>
      </g>
     </g>
    </g>
    <g id="text_40">
     <!-- ﻡﻮﻧﮊ ﮓﯿﺘﻧﺎﮐ ﺩﺍﺪﻌﺗ -->
     <defs>
      <path d="M 70.125 5.859375 
Q 65.28125 2.15625 57.03125 -0.78125 
Q 47.015625 -4.34375 38.09375 -4.34375 
Q 28.71875 -4.34375 22.46875 -2.484375 
Q 6.34375 2.296875 6.34375 15.328125 
Q 6.34375 22.078125 9.421875 26.5625 
L 18.40625 26.5625 
Q 15.234375 21.96875 15.234375 15.328125 
Q 15.234375 9.1875 25.140625 5.953125 
Q 30.21875 4.296875 37.59375 4.296875 
Q 46.578125 4.296875 56.0625 8.203125 
Q 63.765625 11.375 65.484375 14.0625 
Q 66.265625 15.328125 66.265625 17.578125 
Q 66.265625 20.953125 63.625 24.171875 
L 48.484375 42.71875 
Q 46.046875 45.703125 46.046875 49.65625 
Q 46.046875 51.375 46.53125 52.984375 
Q 48.25 58.796875 53.125 60.84375 
L 89.5 75.984375 
L 89.5 66.890625 
L 60.453125 54.6875 
Q 56.984375 53.21875 55.953125 51.265625 
Q 55.671875 50.734375 55.671875 49.515625 
Q 55.671875 47.953125 57.171875 46.140625 
L 85.640625 11.71875 
Q 86.71875 10.453125 88.578125 9.765625 
Q 90.671875 8.984375 93.796875 8.984375 
L 98.09375 8.984375 
L 98.09375 0 
L 91.65625 0 
Q 88.484375 0 85.640625 1.171875 
Q 80.609375 3.265625 79 5.28125 
L 74.265625 11.140625 
Q 73.046875 8.015625 70.125 5.859375 
z
M 89.515625 82.28125 
L 47.375 64.984375 
L 47.375 72.3125 
L 89.515625 89.59375 
z
" id="DejaVuSans-64403"/>
      <path d="M 14.59375 4.203125 
Q 10.84375 0 3.421875 0 
L -0.984375 0 
L -0.984375 8.984375 
L 0.734375 8.984375 
Q 5.5625 8.984375 7.71875 11.140625 
Q 10.109375 13.53125 10.109375 18.703125 
L 10.109375 29.296875 
L 19.09375 29.296875 
L 19.09375 18.703125 
Q 19.09375 13.53125 21.484375 11.140625 
Q 23.640625 8.984375 28.46875 8.984375 
L 31.15625 8.984375 
L 31.15625 0 
L 25.78125 0 
Q 18.453125 0 14.59375 4.203125 
z
M 17.078125 -7.671875 
L 24.40625 -7.671875 
L 24.40625 -15 
L 17.078125 -15 
z
M 4.875 -7.671875 
L 12.203125 -7.671875 
L 12.203125 -15 
L 4.875 -15 
z
" id="DejaVuSans-64511"/>
      <path d="M 14.59375 4.203125 
Q 10.84375 0 3.421875 0 
L -0.984375 0 
L -0.984375 8.984375 
L 0.734375 8.984375 
Q 5.5625 8.984375 7.71875 11.140625 
Q 10.109375 13.53125 10.109375 18.703125 
L 10.109375 29.296875 
L 19.09375 29.296875 
L 19.09375 18.703125 
Q 19.09375 13.53125 21.484375 11.140625 
Q 23.640625 8.984375 28.46875 8.984375 
L 31.15625 8.984375 
L 31.15625 0 
L 25.78125 0 
Q 18.453125 0 14.59375 4.203125 
z
M 17.078125 49.328125 
L 24.40625 49.328125 
L 24.40625 42 
L 17.078125 42 
z
M 4.875 49.328125 
L 12.203125 49.328125 
L 12.203125 42 
L 4.875 42 
z
" id="DejaVuSans-65176"/>
      <path d="M 15.140625 0 
L -0.984375 0 
L -0.984375 8.984375 
L 14.15625 8.984375 
Q 21.390625 8.984375 23.578125 14.0625 
Q 24.359375 15.828125 24.359375 17.578125 
Q 24.359375 20.953125 21.734375 24.171875 
L 6.59375 42.71875 
Q 4.15625 45.703125 4.15625 49.65625 
Q 4.15625 51.375 4.640625 52.984375 
Q 6.15625 58.734375 11.234375 60.84375 
L 47.609375 75.984375 
L 47.609375 66.890625 
L 18.5625 54.6875 
Q 15.09375 53.21875 14.0625 51.265625 
Q 13.765625 50.734375 13.765625 49.515625 
Q 13.765625 47.953125 15.28125 46.140625 
L 28.71875 30.03125 
Q 33.6875 24.03125 33.6875 18.015625 
Q 33.6875 12.5 30.671875 7.5625 
Q 26.03125 0 15.140625 0 
z
" id="DejaVuSans-64400"/>
      <path d="M 19.09375 7.375 
Q 27.484375 9.765625 29.203125 15.234375 
Q 29.59375 16.546875 29.59375 18.609375 
Q 29.59375 22.40625 26.65625 28.078125 
Q 23.4375 34.375 14.984375 41.5 
L 26.078125 41.5 
Q 31.59375 37.0625 34.8125 31 
Q 38.8125 23.578125 38.8125 18.453125 
Q 38.8125 13.625 37.25 9.96875 
Q 33.34375 0.484375 20.5625 -1.515625 
Q 18.3125 -1.859375 16.109375 -1.859375 
Q 11.140625 -1.859375 6.109375 0 
L 6.109375 8.984375 
Q 11.71875 6.9375 15.828125 6.9375 
Q 17.4375 6.9375 19.09375 7.375 
z
" id="DejaVuSans-65193"/>
      <path d="M 9.421875 75.984375 
L 18.40625 75.984375 
L 18.40625 0 
L 9.421875 0 
z
" id="DejaVuSans-65165"/>
      <path d="M 26.65625 28.078125 
Q 23.875 34.03125 14.984375 41.5 
L 26.078125 41.5 
Q 30.8125 37.703125 34.8125 31 
Q 38.765625 24.46875 38.765625 18.75 
Q 38.765625 15.1875 42.828125 11.140625 
Q 44.96875 8.984375 49.8125 8.984375 
L 53.46875 8.984375 
L 53.46875 0 
L 47.125 0 
Q 39.9375 0 35.203125 6.34375 
Q 30.671875 0.09375 20.5625 -1.515625 
Q 18.3125 -1.859375 16.109375 -1.859375 
Q 11.140625 -1.859375 6.109375 0 
L 6.109375 8.984375 
Q 11.71875 6.9375 15.828125 6.9375 
Q 17.4375 6.9375 19.09375 7.375 
Q 27.484375 9.765625 29.203125 15.234375 
Q 29.59375 16.546875 29.59375 18.609375 
Q 29.59375 21.921875 26.65625 28.078125 
z
" id="DejaVuSans-65194"/>
      <path d="M 24.125 9.03125 
Q 14.65625 0 4.78125 0 
L -0.984375 0 
L -0.984375 8.984375 
L 3.71875 8.984375 
Q 8.9375 8.984375 12.15625 10.9375 
Q 15.046875 12.703125 17 14.59375 
Q 12.25 18.75 8.9375 23.140625 
Q 7.46875 25.046875 7.46875 27.25 
Q 7.46875 28.765625 8.109375 30.765625 
Q 8.890625 33.453125 13.96875 35.984375 
Q 18.3125 38.1875 24.125 38.1875 
Q 29.9375 38.1875 34.28125 35.984375 
Q 39.359375 33.453125 40.140625 30.765625 
Q 40.765625 28.765625 40.765625 27.25 
Q 40.765625 25.046875 39.3125 23.140625 
Q 35.546875 18.359375 31.25 14.59375 
Q 32.765625 13.09375 36.078125 10.9375 
Q 39.0625 8.984375 44.53125 8.984375 
L 49.21875 8.984375 
L 49.21875 0 
L 43.453125 0 
Q 33.59375 0 24.125 9.03125 
z
M 26.859375 28.8125 
Q 25.390625 29.15625 24.125 29.15625 
Q 22.859375 29.15625 21.390625 28.8125 
Q 19.09375 28.21875 19.09375 26.65625 
Q 19.09375 25.25 24.125 20.609375 
Q 29.15625 25.25 29.15625 26.65625 
Q 29.15625 28.21875 26.859375 28.8125 
z
" id="DejaVuSans-65228"/>
      <path d="M 14.59375 4.203125 
Q 11.078125 0 3.421875 0 
L -0.984375 0 
L -0.984375 8.984375 
L 0.734375 8.984375 
Q 5.5625 8.984375 7.71875 11.140625 
Q 10.109375 13.53125 10.109375 18.703125 
L 10.109375 29.296875 
L 19.09375 29.296875 
L 19.09375 18.703125 
Q 19.09375 9.578125 14.59375 4.203125 
z
M 17.078125 49.328125 
L 24.40625 49.328125 
L 24.40625 42 
L 17.078125 42 
z
M 4.875 49.328125 
L 12.203125 49.328125 
L 12.203125 42 
L 4.875 42 
z
" id="DejaVuSans-65175"/>
     </defs>
     <g transform="translate(62.745312 250.414531)rotate(-90)scale(0.1 -0.1)">
      <use xlink:href="#DejaVuSans-65249"/>
      <use x="61.914062" xlink:href="#DejaVuSans-65262"/>
      <use x="113.574219" xlink:href="#DejaVuSans-65255"/>
      <use x="141.40625" xlink:href="#DejaVuSans-64394"/>
      <use x="189.697266" xlink:href="#DejaVuSans-32"/>
      <use x="221.484375" xlink:href="#DejaVuSans-64403"/>
      <use x="310.986328" xlink:href="#DejaVuSans-64511"/>
      <use x="341.162109" xlink:href="#DejaVuSans-65176"/>
      <use x="371.337891" xlink:href="#DejaVuSans-65255"/>
      <use x="399.169922" xlink:href="#DejaVuSans-65166"/>
      <use x="429.638672" xlink:href="#DejaVuSans-64400"/>
      <use x="477.246094" xlink:href="#DejaVuSans-32"/>
      <use x="509.033203" xlink:href="#DejaVuSans-65193"/>
      <use x="553.564453" xlink:href="#DejaVuSans-65165"/>
      <use x="581.347656" xlink:href="#DejaVuSans-65194"/>
      <use x="633.837891" xlink:href="#DejaVuSans-65228"/>
      <use x="682.080078" xlink:href="#DejaVuSans-65175"/>
     </g>
    </g>
   </g>
   <g id="patch_33">
    <path d="M 108 378 
L 108 51.84 
" style="fill:none;stroke:#000000;stroke-linecap:square;stroke-linejoin:miter;stroke-width:0.8;"/>
   </g>
   <g id="patch_34">
    <path d="M 777.6 378 
L 777.6 51.84 
" style="fill:none;stroke:#000000;stroke-linecap:square;stroke-linejoin:miter;stroke-width:0.8;"/>
   </g>
   <g id="patch_35">
    <path d="M 108 378 
L 777.6 378 
" style="fill:none;stroke:#000000;stroke-linecap:square;stroke-linejoin:miter;stroke-width:0.8;"/>
   </g>
   <g id="patch_36">
    <path d="M 108 51.84 
L 777.6 51.84 
" style="fill:none;stroke:#000000;stroke-linecap:square;stroke-linejoin:miter;stroke-width:0.8;"/>
   </g>
   <g id="text_41">
    <!-- ﺎﻫﮓﯿﺘﻧﺎﮐ ﻝﻮﻃ ﯽﻧﺍﻭﺍﺮﻓ ﺭﺍﺩﻮﻤﻧ -->
    <defs>
     <path d="M 19.734375 13.140625 
Q 21.484375 14.453125 23.140625 17.578125 
Q 25.046875 21.09375 25.046875 24.078125 
Q 25.046875 26.3125 24.3125 28.125 
Q 23.25 30.671875 20.40625 30.671875 
Q 17.234375 30.671875 16.109375 28.46875 
Q 15.046875 26.375 15.046875 24.65625 
Q 15.046875 23.1875 15.375 21.390625 
Q 16.40625 15.625 19.734375 13.140625 
z
M 4.25 8.984375 
Q 6.78125 8.984375 10.59375 9.515625 
Q 8.40625 14.65625 7.671875 18.015625 
Q 6.78125 21.828125 6.78125 24.953125 
Q 6.78125 29.046875 8.984375 33.109375 
Q 11.328125 37.5 15.09375 37.0625 
Q 12.9375 38.96875 8.984375 39.65625 
L 8.984375 48.6875 
Q 19.875 45.359375 30.421875 36.625 
Q 42.921875 26.421875 46.046875 15.578125 
Q 46.734375 13.03125 46.734375 10.25 
Q 46.734375 5.21875 44.78125 2.25 
Q 41.15625 -3.265625 32.625 -3.265625 
Q 26.21875 -3.265625 18.703125 2 
Q 12.84375 0 5.71875 0 
L -0.984375 0 
L -0.984375 8.984375 
z
M 32.375 24.8125 
Q 32.671875 23 32.671875 21.09375 
Q 32.671875 13.921875 27.875 8.796875 
Q 27.296875 8.109375 26.46875 7.171875 
Q 29 4.9375 31.390625 4.9375 
Q 37.5 4.9375 38.328125 8.203125 
Q 38.671875 9.671875 38.671875 11.28125 
Q 38.671875 14.203125 37.0625 18.015625 
Q 35.640625 21.390625 32.375 24.8125 
z
" id="DejaVuSans-65259"/>
     <path d="M 50.875 3.5625 
Q 54.6875 9.71875 54.6875 20.796875 
L 54.6875 75.984375 
L 63.671875 75.984375 
L 63.671875 20.796875 
Q 63.671875 5.328125 58.890625 -1.703125 
Q 52.984375 -10.359375 40.234375 -13.578125 
Q 33.6875 -15.234375 29.546875 -15.234375 
Q 24.90625 -15.234375 21.34375 -14.15625 
Q 7.078125 -9.671875 7.03125 3.65625 
Q 6.984375 10.40625 10.109375 14.890625 
L 19.09375 14.890625 
Q 15.921875 9.28125 15.921875 3.65625 
Q 15.921875 -2.6875 24.03125 -5.71875 
Q 25.984375 -6.5 29.546875 -6.5 
Q 33.453125 -6.5 38.765625 -4.828125 
Q 47.265625 -2.25 50.875 3.5625 
z
" id="DejaVuSans-65245"/>
     <path d="M 27.78125 8.984375 
L 36.921875 8.984375 
Q 48.484375 8.984375 54.78125 12.0625 
Q 63.921875 16.609375 63.875 19.921875 
Q 63.765625 26.515625 57.078125 27.4375 
Q 55.28125 27.6875 52.9375 27.6875 
Q 49.03125 27.6875 43.0625 23.734375 
Q 34.421875 17.875 27.78125 8.984375 
z
M 40.140625 0 
L 12.0625 0 
L -0.984375 0 
L -0.984375 8.984375 
L 12.0625 8.984375 
L 12.0625 75.984375 
L 21.046875 75.984375 
L 21.046875 14.15625 
Q 31.640625 29.734375 45.125 34.578125 
Q 49.609375 36.1875 52.9375 36.1875 
Q 58.640625 36.1875 63.765625 34.28125 
Q 72.859375 30.90625 72.859375 19.4375 
Q 72.859375 11.1875 63.875 5.859375 
Q 54 0 40.140625 0 
z
" id="DejaVuSans-65219"/>
     <path d="M 53.71875 -1.609375 
Q 58.15625 0.875 58.15625 2.484375 
Q 58.109375 4.59375 55.8125 5.21875 
Q 54.390625 5.609375 52.9375 7.5625 
Q 50.78125 10.453125 50.78125 13.421875 
Q 50.78125 16.609375 53.328125 19.53125 
Q 57.234375 24.125 61.328125 24.8125 
Q 62.796875 25.09375 64.84375 25.09375 
Q 70.5625 25.09375 74.8125 18.5625 
Q 81.0625 8.984375 82.625 8.984375 
L 84.328125 8.984375 
L 84.328125 0 
L 82.625 0 
Q 77.046875 0 71.578125 8.40625 
Q 66.3125 16.453125 65.046875 16.453125 
Q 63.28125 16.453125 62.546875 16.15625 
Q 60.359375 15.328125 60.359375 13.625 
Q 60.359375 11.28125 63.53125 9.96875 
Q 67.09375 8.5 67.234375 2.484375 
Q 67.390625 -2.296875 61.859375 -6.5 
Q 55.609375 -11.1875 44.96875 -12.703125 
Q 40.625 -13.28125 35.546875 -13.28125 
Q 26.375 -13.28125 20.65625 -11.28125 
Q 6.34375 -6.25 6.34375 6.546875 
Q 6.34375 14.015625 9.421875 18.40625 
L 18.40625 18.40625 
Q 15.234375 14.015625 15.234375 6.546875 
Q 15.234375 0.984375 23.34375 -2.828125 
Q 26.5625 -4.34375 35.296875 -4.34375 
Q 39.75 -4.34375 43.5 -3.953125 
Q 50.78125 -3.21875 53.71875 -1.609375 
z
" id="DejaVuSans-64509"/>
     <path d="M 24.125 22.078125 
Q 21.046875 22.078125 18.890625 19.28125 
Q 17.71875 17.671875 17.71875 15.921875 
Q 17.71875 13.421875 20.21875 11.140625 
Q 22.515625 8.984375 31.890625 8.984375 
Q 31.890625 17.96875 27.6875 20.84375 
Q 25.875 22.078125 24.125 22.078125 
z
M 40.625 8.984375 
Q 40.625 -6.0625 32.234375 -13.875 
Q 27.59375 -18.171875 23.046875 -20.21875 
Q 13.671875 -24.421875 -4.15625 -24.421875 
L -4.15625 -15.4375 
Q 13.375 -15.4375 19.921875 -11.71875 
Q 28.125 -7.078125 31.15625 0.140625 
Q 25.390625 0.140625 23.1875 0.640625 
Q 15.875 2.25 13.921875 3.90625 
Q 8.25 8.6875 8.25 15.375 
Q 8.25 22.265625 12.59375 26.515625 
Q 17.671875 31.546875 24.359375 31.546875 
Q 28.71875 31.546875 32.234375 29.046875 
Q 38.578125 24.65625 39.796875 17.671875 
Q 40.625 12.703125 40.625 8.984375 
z
" id="DejaVuSans-65261"/>
     <path d="M 30.859375 26.859375 
L 39.84375 26.859375 
Q 41.3125 21.390625 41.453125 19.921875 
Q 41.9375 14.890625 45.515625 11.140625 
Q 47.5625 8.984375 52.484375 8.984375 
L 56.15625 8.984375 
L 56.15625 0 
L 49.8125 0 
Q 43.453125 0 41.015625 3.03125 
Q 37.703125 -10.546875 25.4375 -17.046875 
Q 11.578125 -24.421875 -4.15625 -24.421875 
L -4.15625 -15.4375 
Q 10.6875 -15.4375 20.609375 -9.1875 
Q 31.25 -2.4375 32.953125 7.71875 
Q 33.453125 10.546875 33.453125 14.0625 
Q 33.453125 20.21875 30.859375 26.859375 
z
" id="DejaVuSans-65198"/>
     <path d="M 29.203125 26.21875 
Q 31.203125 28.328125 31.203125 32.078125 
Q 31.203125 34.96875 27.984375 37.453125 
Q 26.46875 38.671875 24.3125 38.625 
Q 21.78125 38.578125 19.828125 36.53125 
Q 17.875 34.515625 17.828125 32.03125 
Q 17.828125 28.125 20.515625 26.265625 
Q 22.46875 25.046875 24.515625 25.046875 
Q 28.03125 25.046875 29.203125 26.21875 
z
M -0.984375 8.984375 
L 10.796875 8.984375 
Q 14.890625 8.984375 22.265625 10.109375 
Q 26.125 10.6875 29.046875 15.234375 
Q 30.5625 17.578125 31.296875 20.015625 
Q 28.21875 17.328125 23.484375 17.234375 
Q 17.140625 17.140625 13.328125 20.515625 
Q 8.546875 24.75 8.546875 31.0625 
Q 8.546875 33.59375 8.9375 35.75 
Q 10.0625 42.96875 17.390625 46.34375 
Q 21.1875 48.09375 24.90625 48.09375 
Q 29.296875 48.09375 32.515625 45.65625 
Q 37.203125 42.140625 39.453125 37.15625 
Q 40.578125 34.671875 40.578125 27.828125 
Q 40.578125 17.671875 36.765625 10.6875 
Q 33.15625 4.046875 27.09375 1.90625 
Q 21.78125 0 14.703125 0 
L -0.984375 0 
z
M 20.75 63.328125 
L 28.078125 63.328125 
L 28.078125 56 
L 20.75 56 
z
" id="DejaVuSans-65235"/>
     <path d="M 32.953125 7.71875 
Q 33.453125 10.546875 33.453125 14.0625 
Q 33.453125 20.21875 30.859375 26.859375 
L 39.84375 26.859375 
Q 42.28125 21.09375 42.28125 14.65625 
Q 42.28125 10.640625 41.890625 7.625 
Q 39.65625 -9.46875 25.4375 -17.046875 
Q 11.578125 -24.421875 -4.15625 -24.421875 
L -4.15625 -15.4375 
Q 10.6875 -15.4375 20.609375 -9.1875 
Q 31.25 -2.4375 32.953125 7.71875 
z
" id="DejaVuSans-65197"/>
     <path d="M 42.390625 2.546875 
Q 37.640625 -2.4375 30.859375 -2.4375 
Q 20.40625 -2.4375 15.046875 2.34375 
Q 11.921875 0 6.84375 0 
L -0.984375 0 
L -0.984375 8.984375 
L 4.6875 8.984375 
Q 7.234375 8.984375 9.375 10.75 
Q 11.46875 12.453125 11.71875 14.84375 
Q 12.703125 23.6875 19.28125 27.59375 
Q 23.875 30.328125 28.421875 30.328125 
Q 31.9375 30.328125 35.15625 28.90625 
Q 44.578125 24.859375 45.40625 16.703125 
Q 45.65625 14.3125 48.140625 11.28125 
Q 49.90625 9.125 55.125 9.125 
L 58.796875 9.125 
L 58.796875 0.140625 
L 52.4375 0.140625 
Q 43.84375 0.140625 42.390625 2.546875 
z
M 19.828125 9.71875 
Q 22.859375 6.34375 30.609375 6.34375 
Q 32.90625 6.34375 33.84375 7.234375 
Q 36.375 9.8125 36.375 13.1875 
Q 36.375 14.109375 36.140625 14.984375 
Q 35.0625 19.28125 32.234375 20.125 
Q 30.328125 20.703125 28.421875 20.703125 
Q 25.828125 20.703125 23.828125 19.390625 
Q 21.390625 17.78125 20.65625 13.03125 
Q 20.3125 11.234375 19.828125 9.71875 
z
" id="DejaVuSans-65252"/>
    </defs>
    <g transform="translate(369.953438 45.84)scale(0.12 -0.12)">
     <use xlink:href="#DejaVuSans-65166"/>
     <use x="30.46875" xlink:href="#DejaVuSans-65259"/>
     <use x="83.203125" xlink:href="#DejaVuSans-64403"/>
     <use x="172.705078" xlink:href="#DejaVuSans-64511"/>
     <use x="202.880859" xlink:href="#DejaVuSans-65176"/>
     <use x="233.056641" xlink:href="#DejaVuSans-65255"/>
     <use x="260.888672" xlink:href="#DejaVuSans-65166"/>
     <use x="291.357422" xlink:href="#DejaVuSans-64400"/>
     <use x="338.964844" xlink:href="#DejaVuSans-32"/>
     <use x="370.751953" xlink:href="#DejaVuSans-65245"/>
     <use x="443.408203" xlink:href="#DejaVuSans-65262"/>
     <use x="495.068359" xlink:href="#DejaVuSans-65219"/>
     <use x="574.658203" xlink:href="#DejaVuSans-32"/>
     <use x="606.445312" xlink:href="#DejaVuSans-64509"/>
     <use x="689.794922" xlink:href="#DejaVuSans-65255"/>
     <use x="717.626953" xlink:href="#DejaVuSans-65165"/>
     <use x="745.410156" xlink:href="#DejaVuSans-65261"/>
     <use x="793.701172" xlink:href="#DejaVuSans-65165"/>
     <use x="821.484375" xlink:href="#DejaVuSans-65198"/>
     <use x="876.660156" xlink:href="#DejaVuSans-65235"/>
     <use x="924.462891" xlink:href="#DejaVuSans-32"/>
     <use x="956.25" xlink:href="#DejaVuSans-65197"/>
     <use x="1004.541016" xlink:href="#DejaVuSans-65165"/>
     <use x="1032.324219" xlink:href="#DejaVuSans-65193"/>
     <use x="1076.855469" xlink:href="#DejaVuSans-65262"/>
     <use x="1128.515625" xlink:href="#DejaVuSans-65252"/>
     <use x="1186.328125" xlink:href="#DejaVuSans-65255"/>
    </g>
   </g>
  </g>
 </g>
 <defs>
  <clipPath id="pd9d12cf1c4">
   <rect height="326.16" width="669.6" x="108" y="51.84"/>
  </clipPath>
 </defs>
</svg>
