<?xml version="1.0" encoding="utf-8" standalone="no"?>
<!DOCTYPE svg PUBLIC "-//W3C//DTD SVG 1.1//EN"
  "http://www.w3.org/Graphics/SVG/1.1/DTD/svg11.dtd">
<!-- Created with matplotlib (https://matplotlib.org/) -->
<svg height="432pt" version="1.1" viewBox="0 0 864 432" width="864pt" xmlns="http://www.w3.org/2000/svg" xmlns:xlink="http://www.w3.org/1999/xlink">
 <defs>
  <style type="text/css">
*{stroke-linecap:butt;stroke-linejoin:round;}
  </style>
 </defs>
 <g id="figure_1">
  <g id="patch_1">
   <path d="M 0 432 
L 864 432 
L 864 0 
L 0 0 
z
" style="fill:#ffffff;"/>
  </g>
  <g id="axes_1">
   <g id="patch_2">
    <path d="M 108 378 
L 777.6 378 
L 777.6 51.84 
L 108 51.84 
z
" style="fill:#ffffff;"/>
   </g>
   <g id="patch_3">
    <path clip-path="url(#pf65c1d1dde)" d="M 138.436364 378 
L 144.523636 378 
L 144.523636 87.91633 
L 138.436364 87.91633 
z
" style="fill:#1f77b4;"/>
   </g>
   <g id="patch_4">
    <path clip-path="url(#pf65c1d1dde)" d="M 144.523636 378 
L 150.610909 378 
L 150.610909 367.081483 
L 144.523636 367.081483 
z
" style="fill:#1f77b4;"/>
   </g>
   <g id="patch_5">
    <path clip-path="url(#pf65c1d1dde)" d="M 150.610909 378 
L 156.698182 378 
L 156.698182 303.637794 
L 150.610909 303.637794 
z
" style="fill:#1f77b4;"/>
   </g>
   <g id="patch_6">
    <path clip-path="url(#pf65c1d1dde)" d="M 156.698182 378 
L 162.785455 378 
L 162.785455 139.407797 
L 156.698182 139.407797 
z
" style="fill:#1f77b4;"/>
   </g>
   <g id="patch_7">
    <path clip-path="url(#pf65c1d1dde)" d="M 162.785455 378 
L 168.872727 378 
L 168.872727 67.371429 
L 162.785455 67.371429 
z
" style="fill:#1f77b4;"/>
   </g>
   <g id="patch_8">
    <path clip-path="url(#pf65c1d1dde)" d="M 168.872727 378 
L 174.96 378 
L 174.96 218.292465 
L 168.872727 218.292465 
z
" style="fill:#1f77b4;"/>
   </g>
   <g id="patch_9">
    <path clip-path="url(#pf65c1d1dde)" d="M 174.96 378 
L 181.047273 378 
L 181.047273 261.966532 
L 174.96 261.966532 
z
" style="fill:#1f77b4;"/>
   </g>
   <g id="patch_10">
    <path clip-path="url(#pf65c1d1dde)" d="M 181.047273 378 
L 187.134545 378 
L 187.134545 258.994628 
L 181.047273 258.994628 
z
" style="fill:#1f77b4;"/>
   </g>
   <g id="patch_11">
    <path clip-path="url(#pf65c1d1dde)" d="M 187.134545 378 
L 193.221818 378 
L 193.221818 267.32888 
L 187.134545 267.32888 
z
" style="fill:#1f77b4;"/>
   </g>
   <g id="patch_12">
    <path clip-path="url(#pf65c1d1dde)" d="M 193.221818 378 
L 199.309091 378 
L 199.309091 270.753031 
L 193.221818 270.753031 
z
" style="fill:#1f77b4;"/>
   </g>
   <g id="patch_13">
    <path clip-path="url(#pf65c1d1dde)" d="M 199.309091 378 
L 205.396364 378 
L 205.396364 280.120989 
L 199.309091 280.120989 
z
" style="fill:#1f77b4;"/>
   </g>
   <g id="patch_14">
    <path clip-path="url(#pf65c1d1dde)" d="M 205.396364 378 
L 211.483636 378 
L 211.483636 283.415926 
L 205.396364 283.415926 
z
" style="fill:#1f77b4;"/>
   </g>
   <g id="patch_15">
    <path clip-path="url(#pf65c1d1dde)" d="M 211.483636 378 
L 217.570909 378 
L 217.570909 286.904683 
L 211.483636 286.904683 
z
" style="fill:#1f77b4;"/>
   </g>
   <g id="patch_16">
    <path clip-path="url(#pf65c1d1dde)" d="M 217.570909 378 
L 223.658182 378 
L 223.658182 296.014214 
L 217.570909 296.014214 
z
" style="fill:#1f77b4;"/>
   </g>
   <g id="patch_17">
    <path clip-path="url(#pf65c1d1dde)" d="M 223.658182 378 
L 229.745455 378 
L 229.745455 303.443974 
L 223.658182 303.443974 
z
" style="fill:#1f77b4;"/>
   </g>
   <g id="patch_18">
    <path clip-path="url(#pf65c1d1dde)" d="M 229.745455 378 
L 235.832727 378 
L 235.832727 306.932731 
L 229.745455 306.932731 
z
" style="fill:#1f77b4;"/>
   </g>
   <g id="patch_19">
    <path clip-path="url(#pf65c1d1dde)" d="M 235.832727 378 
L 241.92 378 
L 241.92 314.233278 
L 235.832727 314.233278 
z
" style="fill:#1f77b4;"/>
   </g>
   <g id="patch_20">
    <path clip-path="url(#pf65c1d1dde)" d="M 241.92 378 
L 248.007273 378 
L 248.007273 317.075969 
L 241.92 317.075969 
z
" style="fill:#1f77b4;"/>
   </g>
   <g id="patch_21">
    <path clip-path="url(#pf65c1d1dde)" d="M 248.007273 378 
L 254.094545 378 
L 254.094545 321.986071 
L 248.007273 321.986071 
z
" style="fill:#1f77b4;"/>
   </g>
   <g id="patch_22">
    <path clip-path="url(#pf65c1d1dde)" d="M 254.094545 378 
L 260.181818 378 
L 260.181818 320.758545 
L 254.094545 320.758545 
z
" style="fill:#1f77b4;"/>
   </g>
   <g id="patch_23">
    <path clip-path="url(#pf65c1d1dde)" d="M 260.181818 378 
L 266.269091 378 
L 266.269091 330.449536 
L 260.181818 330.449536 
z
" style="fill:#1f77b4;"/>
   </g>
   <g id="patch_24">
    <path clip-path="url(#pf65c1d1dde)" d="M 266.269091 378 
L 272.356364 378 
L 272.356364 329.545044 
L 266.269091 329.545044 
z
" style="fill:#1f77b4;"/>
   </g>
   <g id="patch_25">
    <path clip-path="url(#pf65c1d1dde)" d="M 272.356364 378 
L 278.443636 378 
L 278.443636 332.323128 
L 272.356364 332.323128 
z
" style="fill:#1f77b4;"/>
   </g>
   <g id="patch_26">
    <path clip-path="url(#pf65c1d1dde)" d="M 278.443636 378 
L 284.530909 378 
L 284.530909 336.910197 
L 278.443636 336.910197 
z
" style="fill:#1f77b4;"/>
   </g>
   <g id="patch_27">
    <path clip-path="url(#pf65c1d1dde)" d="M 284.530909 378 
L 290.618182 378 
L 290.618182 338.073116 
L 284.530909 338.073116 
z
" style="fill:#1f77b4;"/>
   </g>
   <g id="patch_28">
    <path clip-path="url(#pf65c1d1dde)" d="M 290.618182 378 
L 296.705455 378 
L 296.705455 340.980414 
L 290.618182 340.980414 
z
" style="fill:#1f77b4;"/>
   </g>
   <g id="patch_29">
    <path clip-path="url(#pf65c1d1dde)" d="M 296.705455 378 
L 302.792727 378 
L 302.792727 342.078726 
L 296.705455 342.078726 
z
" style="fill:#1f77b4;"/>
   </g>
   <g id="patch_30">
    <path clip-path="url(#pf65c1d1dde)" d="M 302.792727 378 
L 308.88 378 
L 308.88 345.502876 
L 302.792727 345.502876 
z
" style="fill:#1f77b4;"/>
   </g>
   <g id="patch_31">
    <path clip-path="url(#pf65c1d1dde)" d="M 308.88 378 
L 314.967273 378 
L 314.967273 347.053435 
L 308.88 347.053435 
z
" style="fill:#1f77b4;"/>
   </g>
   <g id="patch_32">
    <path clip-path="url(#pf65c1d1dde)" d="M 314.967273 378 
L 321.054545 378 
L 321.054545 348.797813 
L 314.967273 348.797813 
z
" style="fill:#1f77b4;"/>
   </g>
   <g id="patch_33">
    <path clip-path="url(#pf65c1d1dde)" d="M 321.054545 378 
L 327.141818 378 
L 327.141818 349.896126 
L 321.054545 349.896126 
z
" style="fill:#1f77b4;"/>
   </g>
   <g id="patch_34">
    <path clip-path="url(#pf65c1d1dde)" d="M 327.141818 378 
L 333.229091 378 
L 333.229091 350.865225 
L 327.141818 350.865225 
z
" style="fill:#1f77b4;"/>
   </g>
   <g id="patch_35">
    <path clip-path="url(#pf65c1d1dde)" d="M 333.229091 378 
L 339.316364 378 
L 339.316364 355.387687 
L 333.229091 355.387687 
z
" style="fill:#1f77b4;"/>
   </g>
   <g id="patch_36">
    <path clip-path="url(#pf65c1d1dde)" d="M 339.316364 378 
L 345.403636 378 
L 345.403636 354.030948 
L 339.316364 354.030948 
z
" style="fill:#1f77b4;"/>
   </g>
   <g id="patch_37">
    <path clip-path="url(#pf65c1d1dde)" d="M 345.403636 378 
L 351.490909 378 
L 351.490909 353.643309 
L 345.403636 353.643309 
z
" style="fill:#1f77b4;"/>
   </g>
   <g id="patch_38">
    <path clip-path="url(#pf65c1d1dde)" d="M 351.490909 378 
L 357.578182 378 
L 357.578182 358.359591 
L 351.490909 358.359591 
z
" style="fill:#1f77b4;"/>
   </g>
   <g id="patch_39">
    <path clip-path="url(#pf65c1d1dde)" d="M 357.578182 378 
L 363.665455 378 
L 363.665455 357.390492 
L 357.578182 357.390492 
z
" style="fill:#1f77b4;"/>
   </g>
   <g id="patch_40">
    <path clip-path="url(#pf65c1d1dde)" d="M 363.665455 378 
L 369.752727 378 
L 369.752727 358.876444 
L 363.665455 358.876444 
z
" style="fill:#1f77b4;"/>
   </g>
   <g id="patch_41">
    <path clip-path="url(#pf65c1d1dde)" d="M 369.752727 378 
L 375.84 378 
L 375.84 360.556216 
L 369.752727 360.556216 
z
" style="fill:#1f77b4;"/>
   </g>
   <g id="patch_42">
    <path clip-path="url(#pf65c1d1dde)" d="M 375.84 378 
L 381.927273 378 
L 381.927273 361.137675 
L 375.84 361.137675 
z
" style="fill:#1f77b4;"/>
   </g>
   <g id="patch_43">
    <path clip-path="url(#pf65c1d1dde)" d="M 381.927273 378 
L 388.014545 378 
L 388.014545 361.008462 
L 381.927273 361.008462 
z
" style="fill:#1f77b4;"/>
   </g>
   <g id="patch_44">
    <path clip-path="url(#pf65c1d1dde)" d="M 388.014545 378 
L 394.101818 378 
L 394.101818 361.848348 
L 388.014545 361.848348 
z
" style="fill:#1f77b4;"/>
   </g>
   <g id="patch_45">
    <path clip-path="url(#pf65c1d1dde)" d="M 394.101818 378 
L 400.189091 378 
L 400.189091 363.3343 
L 394.101818 363.3343 
z
" style="fill:#1f77b4;"/>
   </g>
   <g id="patch_46">
    <path clip-path="url(#pf65c1d1dde)" d="M 400.189091 378 
L 406.276364 378 
L 406.276364 364.626432 
L 400.189091 364.626432 
z
" style="fill:#1f77b4;"/>
   </g>
   <g id="patch_47">
    <path clip-path="url(#pf65c1d1dde)" d="M 406.276364 378 
L 412.363636 378 
L 412.363636 364.691039 
L 406.276364 364.691039 
z
" style="fill:#1f77b4;"/>
   </g>
   <g id="patch_48">
    <path clip-path="url(#pf65c1d1dde)" d="M 412.363636 378 
L 418.450909 378 
L 418.450909 363.915759 
L 412.363636 363.915759 
z
" style="fill:#1f77b4;"/>
   </g>
   <g id="patch_49">
    <path clip-path="url(#pf65c1d1dde)" d="M 418.450909 378 
L 424.538182 378 
L 424.538182 364.949465 
L 418.450909 364.949465 
z
" style="fill:#1f77b4;"/>
   </g>
   <g id="patch_50">
    <path clip-path="url(#pf65c1d1dde)" d="M 424.538182 378 
L 430.625455 378 
L 430.625455 365.143285 
L 424.538182 365.143285 
z
" style="fill:#1f77b4;"/>
   </g>
   <g id="patch_51">
    <path clip-path="url(#pf65c1d1dde)" d="M 430.625455 378 
L 436.712727 378 
L 436.712727 367.33991 
L 430.625455 367.33991 
z
" style="fill:#1f77b4;"/>
   </g>
   <g id="patch_52">
    <path clip-path="url(#pf65c1d1dde)" d="M 436.712727 378 
L 442.8 378 
L 442.8 367.792156 
L 436.712727 367.792156 
z
" style="fill:#1f77b4;"/>
   </g>
   <g id="patch_53">
    <path clip-path="url(#pf65c1d1dde)" d="M 442.8 378 
L 448.887273 378 
L 448.887273 367.275303 
L 442.8 367.275303 
z
" style="fill:#1f77b4;"/>
   </g>
   <g id="patch_54">
    <path clip-path="url(#pf65c1d1dde)" d="M 448.887273 378 
L 454.974545 378 
L 454.974545 368.244402 
L 448.887273 368.244402 
z
" style="fill:#1f77b4;"/>
   </g>
   <g id="patch_55">
    <path clip-path="url(#pf65c1d1dde)" d="M 454.974545 378 
L 461.061818 378 
L 461.061818 368.050582 
L 454.974545 368.050582 
z
" style="fill:#1f77b4;"/>
   </g>
   <g id="patch_56">
    <path clip-path="url(#pf65c1d1dde)" d="M 461.061818 378 
L 467.149091 378 
L 467.149091 368.179796 
L 461.061818 368.179796 
z
" style="fill:#1f77b4;"/>
   </g>
   <g id="patch_57">
    <path clip-path="url(#pf65c1d1dde)" d="M 467.149091 378 
L 473.236364 378 
L 473.236364 369.665748 
L 467.149091 369.665748 
z
" style="fill:#1f77b4;"/>
   </g>
   <g id="patch_58">
    <path clip-path="url(#pf65c1d1dde)" d="M 473.236364 378 
L 479.323636 378 
L 479.323636 368.696648 
L 473.236364 368.696648 
z
" style="fill:#1f77b4;"/>
   </g>
   <g id="patch_59">
    <path clip-path="url(#pf65c1d1dde)" d="M 479.323636 378 
L 485.410909 378 
L 485.410909 369.278108 
L 479.323636 369.278108 
z
" style="fill:#1f77b4;"/>
   </g>
   <g id="patch_60">
    <path clip-path="url(#pf65c1d1dde)" d="M 485.410909 378 
L 491.498182 378 
L 491.498182 371.022486 
L 485.410909 371.022486 
z
" style="fill:#1f77b4;"/>
   </g>
   <g id="patch_61">
    <path clip-path="url(#pf65c1d1dde)" d="M 491.498182 378 
L 497.585455 378 
L 497.585455 370.247207 
L 491.498182 370.247207 
z
" style="fill:#1f77b4;"/>
   </g>
   <g id="patch_62">
    <path clip-path="url(#pf65c1d1dde)" d="M 497.585455 378 
L 503.672727 378 
L 503.672727 369.859567 
L 497.585455 369.859567 
z
" style="fill:#1f77b4;"/>
   </g>
   <g id="patch_63">
    <path clip-path="url(#pf65c1d1dde)" d="M 503.672727 378 
L 509.76 378 
L 509.76 372.314618 
L 503.672727 372.314618 
z
" style="fill:#1f77b4;"/>
   </g>
   <g id="patch_64">
    <path clip-path="url(#pf65c1d1dde)" d="M 509.76 378 
L 515.847273 378 
L 515.847273 371.216306 
L 509.76 371.216306 
z
" style="fill:#1f77b4;"/>
   </g>
   <g id="patch_65">
    <path clip-path="url(#pf65c1d1dde)" d="M 515.847273 378 
L 521.934545 378 
L 521.934545 372.250012 
L 515.847273 372.250012 
z
" style="fill:#1f77b4;"/>
   </g>
   <g id="patch_66">
    <path clip-path="url(#pf65c1d1dde)" d="M 521.934545 378 
L 528.021818 378 
L 528.021818 371.410126 
L 521.934545 371.410126 
z
" style="fill:#1f77b4;"/>
   </g>
   <g id="patch_67">
    <path clip-path="url(#pf65c1d1dde)" d="M 528.021818 378 
L 534.109091 378 
L 534.109091 371.862372 
L 528.021818 371.862372 
z
" style="fill:#1f77b4;"/>
   </g>
   <g id="patch_68">
    <path clip-path="url(#pf65c1d1dde)" d="M 534.109091 378 
L 540.196364 378 
L 540.196364 372.766865 
L 534.109091 372.766865 
z
" style="fill:#1f77b4;"/>
   </g>
   <g id="patch_69">
    <path clip-path="url(#pf65c1d1dde)" d="M 540.196364 378 
L 546.283636 378 
L 546.283636 371.474733 
L 540.196364 371.474733 
z
" style="fill:#1f77b4;"/>
   </g>
   <g id="patch_70">
    <path clip-path="url(#pf65c1d1dde)" d="M 546.283636 378 
L 552.370909 378 
L 552.370909 372.896078 
L 546.283636 372.896078 
z
" style="fill:#1f77b4;"/>
   </g>
   <g id="patch_71">
    <path clip-path="url(#pf65c1d1dde)" d="M 552.370909 378 
L 558.458182 378 
L 558.458182 372.379225 
L 552.370909 372.379225 
z
" style="fill:#1f77b4;"/>
   </g>
   <g id="patch_72">
    <path clip-path="url(#pf65c1d1dde)" d="M 558.458182 378 
L 564.545455 378 
L 564.545455 372.508438 
L 558.458182 372.508438 
z
" style="fill:#1f77b4;"/>
   </g>
   <g id="patch_73">
    <path clip-path="url(#pf65c1d1dde)" d="M 564.545455 378 
L 570.632727 378 
L 570.632727 373.412931 
L 564.545455 373.412931 
z
" style="fill:#1f77b4;"/>
   </g>
   <g id="patch_74">
    <path clip-path="url(#pf65c1d1dde)" d="M 570.632727 378 
L 576.72 378 
L 576.72 373.025291 
L 570.632727 373.025291 
z
" style="fill:#1f77b4;"/>
   </g>
   <g id="patch_75">
    <path clip-path="url(#pf65c1d1dde)" d="M 576.72 378 
L 582.807273 378 
L 582.807273 373.089898 
L 576.72 373.089898 
z
" style="fill:#1f77b4;"/>
   </g>
   <g id="patch_76">
    <path clip-path="url(#pf65c1d1dde)" d="M 582.807273 378 
L 588.894545 378 
L 588.894545 373.348324 
L 582.807273 373.348324 
z
" style="fill:#1f77b4;"/>
   </g>
   <g id="patch_77">
    <path clip-path="url(#pf65c1d1dde)" d="M 588.894545 378 
L 594.981818 378 
L 594.981818 372.766865 
L 588.894545 372.766865 
z
" style="fill:#1f77b4;"/>
   </g>
   <g id="patch_78">
    <path clip-path="url(#pf65c1d1dde)" d="M 594.981818 378 
L 601.069091 378 
L 601.069091 373.99439 
L 594.981818 373.99439 
z
" style="fill:#1f77b4;"/>
   </g>
   <g id="patch_79">
    <path clip-path="url(#pf65c1d1dde)" d="M 601.069091 378 
L 607.156364 378 
L 607.156364 373.154504 
L 601.069091 373.154504 
z
" style="fill:#1f77b4;"/>
   </g>
   <g id="patch_80">
    <path clip-path="url(#pf65c1d1dde)" d="M 607.156364 378 
L 613.243636 378 
L 613.243636 373.477537 
L 607.156364 373.477537 
z
" style="fill:#1f77b4;"/>
   </g>
   <g id="patch_81">
    <path clip-path="url(#pf65c1d1dde)" d="M 613.243636 378 
L 619.330909 378 
L 619.330909 373.735964 
L 613.243636 373.735964 
z
" style="fill:#1f77b4;"/>
   </g>
   <g id="patch_82">
    <path clip-path="url(#pf65c1d1dde)" d="M 619.330909 378 
L 625.418182 378 
L 625.418182 374.317423 
L 619.330909 374.317423 
z
" style="fill:#1f77b4;"/>
   </g>
   <g id="patch_83">
    <path clip-path="url(#pf65c1d1dde)" d="M 625.418182 378 
L 631.505455 378 
L 631.505455 373.80057 
L 625.418182 373.80057 
z
" style="fill:#1f77b4;"/>
   </g>
   <g id="patch_84">
    <path clip-path="url(#pf65c1d1dde)" d="M 631.505455 378 
L 637.592727 378 
L 637.592727 374.446637 
L 631.505455 374.446637 
z
" style="fill:#1f77b4;"/>
   </g>
   <g id="patch_85">
    <path clip-path="url(#pf65c1d1dde)" d="M 637.592727 378 
L 643.68 378 
L 643.68 374.317423 
L 637.592727 374.317423 
z
" style="fill:#1f77b4;"/>
   </g>
   <g id="patch_86">
    <path clip-path="url(#pf65c1d1dde)" d="M 643.68 378 
L 649.767273 378 
L 649.767273 374.058997 
L 643.68 374.058997 
z
" style="fill:#1f77b4;"/>
   </g>
   <g id="patch_87">
    <path clip-path="url(#pf65c1d1dde)" d="M 649.767273 378 
L 655.854545 378 
L 655.854545 374.898883 
L 649.767273 374.898883 
z
" style="fill:#1f77b4;"/>
   </g>
   <g id="patch_88">
    <path clip-path="url(#pf65c1d1dde)" d="M 655.854545 378 
L 661.941818 378 
L 661.941818 374.511243 
L 655.854545 374.511243 
z
" style="fill:#1f77b4;"/>
   </g>
   <g id="patch_89">
    <path clip-path="url(#pf65c1d1dde)" d="M 661.941818 378 
L 668.029091 378 
L 668.029091 374.57585 
L 661.941818 374.57585 
z
" style="fill:#1f77b4;"/>
   </g>
   <g id="patch_90">
    <path clip-path="url(#pf65c1d1dde)" d="M 668.029091 378 
L 674.116364 378 
L 674.116364 374.834276 
L 668.029091 374.834276 
z
" style="fill:#1f77b4;"/>
   </g>
   <g id="patch_91">
    <path clip-path="url(#pf65c1d1dde)" d="M 674.116364 378 
L 680.203636 378 
L 680.203636 375.092703 
L 674.116364 375.092703 
z
" style="fill:#1f77b4;"/>
   </g>
   <g id="patch_92">
    <path clip-path="url(#pf65c1d1dde)" d="M 680.203636 378 
L 686.290909 378 
L 686.290909 374.57585 
L 680.203636 374.57585 
z
" style="fill:#1f77b4;"/>
   </g>
   <g id="patch_93">
    <path clip-path="url(#pf65c1d1dde)" d="M 686.290909 378 
L 692.378182 378 
L 692.378182 374.834276 
L 686.290909 374.834276 
z
" style="fill:#1f77b4;"/>
   </g>
   <g id="patch_94">
    <path clip-path="url(#pf65c1d1dde)" d="M 692.378182 378 
L 698.465455 378 
L 698.465455 375.221916 
L 692.378182 375.221916 
z
" style="fill:#1f77b4;"/>
   </g>
   <g id="patch_95">
    <path clip-path="url(#pf65c1d1dde)" d="M 698.465455 378 
L 704.552727 378 
L 704.552727 375.738769 
L 698.465455 375.738769 
z
" style="fill:#1f77b4;"/>
   </g>
   <g id="patch_96">
    <path clip-path="url(#pf65c1d1dde)" d="M 704.552727 378 
L 710.64 378 
L 710.64 375.286522 
L 704.552727 375.286522 
z
" style="fill:#1f77b4;"/>
   </g>
   <g id="patch_97">
    <path clip-path="url(#pf65c1d1dde)" d="M 710.64 378 
L 716.727273 378 
L 716.727273 375.415736 
L 710.64 375.415736 
z
" style="fill:#1f77b4;"/>
   </g>
   <g id="patch_98">
    <path clip-path="url(#pf65c1d1dde)" d="M 716.727273 378 
L 722.814545 378 
L 722.814545 375.415736 
L 716.727273 375.415736 
z
" style="fill:#1f77b4;"/>
   </g>
   <g id="patch_99">
    <path clip-path="url(#pf65c1d1dde)" d="M 722.814545 378 
L 728.901818 378 
L 728.901818 375.286522 
L 722.814545 375.286522 
z
" style="fill:#1f77b4;"/>
   </g>
   <g id="patch_100">
    <path clip-path="url(#pf65c1d1dde)" d="M 728.901818 378 
L 734.989091 378 
L 734.989091 375.609556 
L 728.901818 375.609556 
z
" style="fill:#1f77b4;"/>
   </g>
   <g id="patch_101">
    <path clip-path="url(#pf65c1d1dde)" d="M 734.989091 378 
L 741.076364 378 
L 741.076364 375.544949 
L 734.989091 375.544949 
z
" style="fill:#1f77b4;"/>
   </g>
   <g id="patch_102">
    <path clip-path="url(#pf65c1d1dde)" d="M 741.076364 378 
L 747.163636 378 
L 747.163636 375.221916 
L 741.076364 375.221916 
z
" style="fill:#1f77b4;"/>
   </g>
   <g id="matplotlib.axis_1">
    <g id="xtick_1">
     <g id="line2d_1">
      <defs>
       <path d="M 0 0 
L 0 3.5 
" id="m2845b19459" style="stroke:#000000;stroke-width:0.8;"/>
      </defs>
      <g>
       <use style="stroke:#000000;stroke-width:0.8;" x="186.54442" xlink:href="#m2845b19459" y="378"/>
      </g>
     </g>
     <g id="text_1">
      <!-- 250 -->
      <defs>
       <path d="M 19.1875 8.296875 
L 53.609375 8.296875 
L 53.609375 0 
L 7.328125 0 
L 7.328125 8.296875 
Q 12.9375 14.109375 22.625 23.890625 
Q 32.328125 33.6875 34.8125 36.53125 
Q 39.546875 41.84375 41.421875 45.53125 
Q 43.3125 49.21875 43.3125 52.78125 
Q 43.3125 58.59375 39.234375 62.25 
Q 35.15625 65.921875 28.609375 65.921875 
Q 23.96875 65.921875 18.8125 64.3125 
Q 13.671875 62.703125 7.8125 59.421875 
L 7.8125 69.390625 
Q 13.765625 71.78125 18.9375 73 
Q 24.125 74.21875 28.421875 74.21875 
Q 39.75 74.21875 46.484375 68.546875 
Q 53.21875 62.890625 53.21875 53.421875 
Q 53.21875 48.921875 51.53125 44.890625 
Q 49.859375 40.875 45.40625 35.40625 
Q 44.1875 33.984375 37.640625 27.21875 
Q 31.109375 20.453125 19.1875 8.296875 
z
" id="DejaVuSans-50"/>
       <path d="M 10.796875 72.90625 
L 49.515625 72.90625 
L 49.515625 64.59375 
L 19.828125 64.59375 
L 19.828125 46.734375 
Q 21.96875 47.46875 24.109375 47.828125 
Q 26.265625 48.1875 28.421875 48.1875 
Q 40.625 48.1875 47.75 41.5 
Q 54.890625 34.8125 54.890625 23.390625 
Q 54.890625 11.625 47.5625 5.09375 
Q 40.234375 -1.421875 26.90625 -1.421875 
Q 22.3125 -1.421875 17.546875 -0.640625 
Q 12.796875 0.140625 7.71875 1.703125 
L 7.71875 11.625 
Q 12.109375 9.234375 16.796875 8.0625 
Q 21.484375 6.890625 26.703125 6.890625 
Q 35.15625 6.890625 40.078125 11.328125 
Q 45.015625 15.765625 45.015625 23.390625 
Q 45.015625 31 40.078125 35.4375 
Q 35.15625 39.890625 26.703125 39.890625 
Q 22.75 39.890625 18.8125 39.015625 
Q 14.890625 38.140625 10.796875 36.28125 
z
" id="DejaVuSans-53"/>
       <path d="M 31.78125 66.40625 
Q 24.171875 66.40625 20.328125 58.90625 
Q 16.5 51.421875 16.5 36.375 
Q 16.5 21.390625 20.328125 13.890625 
Q 24.171875 6.390625 31.78125 6.390625 
Q 39.453125 6.390625 43.28125 13.890625 
Q 47.125 21.390625 47.125 36.375 
Q 47.125 51.421875 43.28125 58.90625 
Q 39.453125 66.40625 31.78125 66.40625 
z
M 31.78125 74.21875 
Q 44.046875 74.21875 50.515625 64.515625 
Q 56.984375 54.828125 56.984375 36.375 
Q 56.984375 17.96875 50.515625 8.265625 
Q 44.046875 -1.421875 31.78125 -1.421875 
Q 19.53125 -1.421875 13.0625 8.265625 
Q 6.59375 17.96875 6.59375 36.375 
Q 6.59375 54.828125 13.0625 64.515625 
Q 19.53125 74.21875 31.78125 74.21875 
z
" id="DejaVuSans-48"/>
      </defs>
      <g transform="translate(177.00067 392.598437)scale(0.1 -0.1)">
       <use xlink:href="#DejaVuSans-50"/>
       <use x="63.623047" xlink:href="#DejaVuSans-53"/>
       <use x="127.246094" xlink:href="#DejaVuSans-48"/>
      </g>
     </g>
    </g>
    <g id="xtick_2">
     <g id="line2d_2">
      <g>
       <use style="stroke:#000000;stroke-width:0.8;" x="266.724514" xlink:href="#m2845b19459" y="378"/>
      </g>
     </g>
     <g id="text_2">
      <!-- 500 -->
      <g transform="translate(257.180764 392.598437)scale(0.1 -0.1)">
       <use xlink:href="#DejaVuSans-53"/>
       <use x="63.623047" xlink:href="#DejaVuSans-48"/>
       <use x="127.246094" xlink:href="#DejaVuSans-48"/>
      </g>
     </g>
    </g>
    <g id="xtick_3">
     <g id="line2d_3">
      <g>
       <use style="stroke:#000000;stroke-width:0.8;" x="346.904608" xlink:href="#m2845b19459" y="378"/>
      </g>
     </g>
     <g id="text_3">
      <!-- 750 -->
      <defs>
       <path d="M 8.203125 72.90625 
L 55.078125 72.90625 
L 55.078125 68.703125 
L 28.609375 0 
L 18.3125 0 
L 43.21875 64.59375 
L 8.203125 64.59375 
z
" id="DejaVuSans-55"/>
      </defs>
      <g transform="translate(337.360858 392.598437)scale(0.1 -0.1)">
       <use xlink:href="#DejaVuSans-55"/>
       <use x="63.623047" xlink:href="#DejaVuSans-53"/>
       <use x="127.246094" xlink:href="#DejaVuSans-48"/>
      </g>
     </g>
    </g>
    <g id="xtick_4">
     <g id="line2d_4">
      <g>
       <use style="stroke:#000000;stroke-width:0.8;" x="427.084702" xlink:href="#m2845b19459" y="378"/>
      </g>
     </g>
     <g id="text_4">
      <!-- 1000 -->
      <defs>
       <path d="M 12.40625 8.296875 
L 28.515625 8.296875 
L 28.515625 63.921875 
L 10.984375 60.40625 
L 10.984375 69.390625 
L 28.421875 72.90625 
L 38.28125 72.90625 
L 38.28125 8.296875 
L 54.390625 8.296875 
L 54.390625 0 
L 12.40625 0 
z
" id="DejaVuSans-49"/>
      </defs>
      <g transform="translate(414.359702 392.598437)scale(0.1 -0.1)">
       <use xlink:href="#DejaVuSans-49"/>
       <use x="63.623047" xlink:href="#DejaVuSans-48"/>
       <use x="127.246094" xlink:href="#DejaVuSans-48"/>
       <use x="190.869141" xlink:href="#DejaVuSans-48"/>
      </g>
     </g>
    </g>
    <g id="xtick_5">
     <g id="line2d_5">
      <g>
       <use style="stroke:#000000;stroke-width:0.8;" x="507.264795" xlink:href="#m2845b19459" y="378"/>
      </g>
     </g>
     <g id="text_5">
      <!-- 1250 -->
      <g transform="translate(494.539795 392.598437)scale(0.1 -0.1)">
       <use xlink:href="#DejaVuSans-49"/>
       <use x="63.623047" xlink:href="#DejaVuSans-50"/>
       <use x="127.246094" xlink:href="#DejaVuSans-53"/>
       <use x="190.869141" xlink:href="#DejaVuSans-48"/>
      </g>
     </g>
    </g>
    <g id="xtick_6">
     <g id="line2d_6">
      <g>
       <use style="stroke:#000000;stroke-width:0.8;" x="587.444889" xlink:href="#m2845b19459" y="378"/>
      </g>
     </g>
     <g id="text_6">
      <!-- 1500 -->
      <g transform="translate(574.719889 392.598437)scale(0.1 -0.1)">
       <use xlink:href="#DejaVuSans-49"/>
       <use x="63.623047" xlink:href="#DejaVuSans-53"/>
       <use x="127.246094" xlink:href="#DejaVuSans-48"/>
       <use x="190.869141" xlink:href="#DejaVuSans-48"/>
      </g>
     </g>
    </g>
    <g id="xtick_7">
     <g id="line2d_7">
      <g>
       <use style="stroke:#000000;stroke-width:0.8;" x="667.624983" xlink:href="#m2845b19459" y="378"/>
      </g>
     </g>
     <g id="text_7">
      <!-- 1750 -->
      <g transform="translate(654.899983 392.598437)scale(0.1 -0.1)">
       <use xlink:href="#DejaVuSans-49"/>
       <use x="63.623047" xlink:href="#DejaVuSans-55"/>
       <use x="127.246094" xlink:href="#DejaVuSans-53"/>
       <use x="190.869141" xlink:href="#DejaVuSans-48"/>
      </g>
     </g>
    </g>
    <g id="xtick_8">
     <g id="line2d_8">
      <g>
       <use style="stroke:#000000;stroke-width:0.8;" x="747.805077" xlink:href="#m2845b19459" y="378"/>
      </g>
     </g>
     <g id="text_8">
      <!-- 2000 -->
      <g transform="translate(735.080077 392.598437)scale(0.1 -0.1)">
       <use xlink:href="#DejaVuSans-50"/>
       <use x="63.623047" xlink:href="#DejaVuSans-48"/>
       <use x="127.246094" xlink:href="#DejaVuSans-48"/>
       <use x="190.869141" xlink:href="#DejaVuSans-48"/>
      </g>
     </g>
    </g>
    <g id="text_9">
     <!-- ﮓﯿﺘﻧﺎﮐ ﻝﻮﻃ -->
     <defs>
      <path d="M 70.125 5.859375 
Q 65.28125 2.15625 57.03125 -0.78125 
Q 47.015625 -4.34375 38.09375 -4.34375 
Q 28.71875 -4.34375 22.46875 -2.484375 
Q 6.34375 2.296875 6.34375 15.328125 
Q 6.34375 22.078125 9.421875 26.5625 
L 18.40625 26.5625 
Q 15.234375 21.96875 15.234375 15.328125 
Q 15.234375 9.1875 25.140625 5.953125 
Q 30.21875 4.296875 37.59375 4.296875 
Q 46.578125 4.296875 56.0625 8.203125 
Q 63.765625 11.375 65.484375 14.0625 
Q 66.265625 15.328125 66.265625 17.578125 
Q 66.265625 20.953125 63.625 24.171875 
L 48.484375 42.71875 
Q 46.046875 45.703125 46.046875 49.65625 
Q 46.046875 51.375 46.53125 52.984375 
Q 48.25 58.796875 53.125 60.84375 
L 89.5 75.984375 
L 89.5 66.890625 
L 60.453125 54.6875 
Q 56.984375 53.21875 55.953125 51.265625 
Q 55.671875 50.734375 55.671875 49.515625 
Q 55.671875 47.953125 57.171875 46.140625 
L 85.640625 11.71875 
Q 86.71875 10.453125 88.578125 9.765625 
Q 90.671875 8.984375 93.796875 8.984375 
L 98.09375 8.984375 
L 98.09375 0 
L 91.65625 0 
Q 88.484375 0 85.640625 1.171875 
Q 80.609375 3.265625 79 5.28125 
L 74.265625 11.140625 
Q 73.046875 8.015625 70.125 5.859375 
z
M 89.515625 82.28125 
L 47.375 64.984375 
L 47.375 72.3125 
L 89.515625 89.59375 
z
" id="DejaVuSans-64403"/>
      <path d="M 14.59375 4.203125 
Q 10.84375 0 3.421875 0 
L -0.984375 0 
L -0.984375 8.984375 
L 0.734375 8.984375 
Q 5.5625 8.984375 7.71875 11.140625 
Q 10.109375 13.53125 10.109375 18.703125 
L 10.109375 29.296875 
L 19.09375 29.296875 
L 19.09375 18.703125 
Q 19.09375 13.53125 21.484375 11.140625 
Q 23.640625 8.984375 28.46875 8.984375 
L 31.15625 8.984375 
L 31.15625 0 
L 25.78125 0 
Q 18.453125 0 14.59375 4.203125 
z
M 17.078125 -7.671875 
L 24.40625 -7.671875 
L 24.40625 -15 
L 17.078125 -15 
z
M 4.875 -7.671875 
L 12.203125 -7.671875 
L 12.203125 -15 
L 4.875 -15 
z
" id="DejaVuSans-64511"/>
      <path d="M 14.59375 4.203125 
Q 10.84375 0 3.421875 0 
L -0.984375 0 
L -0.984375 8.984375 
L 0.734375 8.984375 
Q 5.5625 8.984375 7.71875 11.140625 
Q 10.109375 13.53125 10.109375 18.703125 
L 10.109375 29.296875 
L 19.09375 29.296875 
L 19.09375 18.703125 
Q 19.09375 13.53125 21.484375 11.140625 
Q 23.640625 8.984375 28.46875 8.984375 
L 31.15625 8.984375 
L 31.15625 0 
L 25.78125 0 
Q 18.453125 0 14.59375 4.203125 
z
M 17.078125 49.328125 
L 24.40625 49.328125 
L 24.40625 42 
L 17.078125 42 
z
M 4.875 49.328125 
L 12.203125 49.328125 
L 12.203125 42 
L 4.875 42 
z
" id="DejaVuSans-65176"/>
      <path d="M 11 49.328125 
L 18.328125 49.328125 
L 18.328125 42 
L 11 42 
z
M 14.59375 4.203125 
Q 11.078125 0 3.421875 0 
L -0.984375 0 
L -0.984375 8.984375 
L 0.734375 8.984375 
Q 5.5625 8.984375 7.71875 11.140625 
Q 10.109375 13.53125 10.109375 18.703125 
L 10.109375 29.296875 
L 19.09375 29.296875 
L 19.09375 18.703125 
Q 19.09375 9.578125 14.59375 4.203125 
z
" id="DejaVuSans-65255"/>
      <path d="M 9.421875 18.109375 
L 9.421875 75.984375 
L 18.40625 75.984375 
L 18.40625 18.703125 
Q 18.40625 13.53125 20.796875 11.140625 
Q 22.953125 8.984375 27.78125 8.984375 
L 31.453125 8.984375 
L 31.453125 0 
L 25.09375 0 
Q 17.578125 0 13.671875 4.5 
Q 9.421875 9.421875 9.421875 18.109375 
z
" id="DejaVuSans-65166"/>
      <path d="M 15.140625 0 
L -0.984375 0 
L -0.984375 8.984375 
L 14.15625 8.984375 
Q 21.390625 8.984375 23.578125 14.0625 
Q 24.359375 15.828125 24.359375 17.578125 
Q 24.359375 20.953125 21.734375 24.171875 
L 6.59375 42.71875 
Q 4.15625 45.703125 4.15625 49.65625 
Q 4.15625 51.375 4.640625 52.984375 
Q 6.15625 58.734375 11.234375 60.84375 
L 47.609375 75.984375 
L 47.609375 66.890625 
L 18.5625 54.6875 
Q 15.09375 53.21875 14.0625 51.265625 
Q 13.765625 50.734375 13.765625 49.515625 
Q 13.765625 47.953125 15.28125 46.140625 
L 28.71875 30.03125 
Q 33.6875 24.03125 33.6875 18.015625 
Q 33.6875 12.5 30.671875 7.5625 
Q 26.03125 0 15.140625 0 
z
" id="DejaVuSans-64400"/>
      <path id="DejaVuSans-32"/>
      <path d="M 50.875 3.5625 
Q 54.6875 9.71875 54.6875 20.796875 
L 54.6875 75.984375 
L 63.671875 75.984375 
L 63.671875 20.796875 
Q 63.671875 5.328125 58.890625 -1.703125 
Q 52.984375 -10.359375 40.234375 -13.578125 
Q 33.6875 -15.234375 29.546875 -15.234375 
Q 24.90625 -15.234375 21.34375 -14.15625 
Q 7.078125 -9.671875 7.03125 3.65625 
Q 6.984375 10.40625 10.109375 14.890625 
L 19.09375 14.890625 
Q 15.921875 9.28125 15.921875 3.65625 
Q 15.921875 -2.6875 24.03125 -5.71875 
Q 25.984375 -6.5 29.546875 -6.5 
Q 33.453125 -6.5 38.765625 -4.828125 
Q 47.265625 -2.25 50.875 3.5625 
z
" id="DejaVuSans-65245"/>
      <path d="M 31.890625 8.984375 
Q 31.890625 12.703125 31.109375 15.484375 
Q 29.9375 19.390625 27.6875 20.84375 
Q 24.75 22.859375 21.828125 21.578125 
Q 18.5625 20.171875 17.921875 17.4375 
Q 17.09375 13.765625 20.21875 11.140625 
Q 22.515625 9.1875 31.890625 8.984375 
z
M 40.625 8.984375 
L 52.640625 8.984375 
L 52.640625 0 
L 43.171875 0 
L 39.75 0.046875 
Q 38.53125 -7.5625 32.234375 -13.875 
Q 28.171875 -17.921875 23.046875 -20.21875 
Q 13.671875 -24.421875 -4.15625 -24.421875 
L -4.15625 -15.4375 
Q 13.484375 -15.4375 19.921875 -11.71875 
Q 28.125 -7.078125 31.15625 0.140625 
Q 25.390625 0.296875 23.1875 0.640625 
Q 16.40625 1.8125 13.921875 3.90625 
Q 8.734375 8.25 8.25 14.84375 
Q 8.15625 16.359375 8.640625 19.140625 
Q 9.96875 26.703125 18.5625 30.375 
Q 21.4375 31.59375 24.609375 31.546875 
Q 28.859375 31.453125 32.234375 29.046875 
Q 38.71875 24.5625 39.796875 17.671875 
Q 40.4375 13.625 40.625 8.984375 
z
" id="DejaVuSans-65262"/>
      <path d="M 27.78125 8.984375 
L 36.921875 8.984375 
Q 48.484375 8.984375 54.78125 12.0625 
Q 63.921875 16.609375 63.875 19.921875 
Q 63.765625 26.515625 57.078125 27.4375 
Q 55.28125 27.6875 52.9375 27.6875 
Q 49.03125 27.6875 43.0625 23.734375 
Q 34.421875 17.875 27.78125 8.984375 
z
M 40.140625 0 
L 12.0625 0 
L -0.984375 0 
L -0.984375 8.984375 
L 12.0625 8.984375 
L 12.0625 75.984375 
L 21.046875 75.984375 
L 21.046875 14.15625 
Q 31.640625 29.734375 45.125 34.578125 
Q 49.609375 36.1875 52.9375 36.1875 
Q 58.640625 36.1875 63.765625 34.28125 
Q 72.859375 30.90625 72.859375 19.4375 
Q 72.859375 11.1875 63.875 5.859375 
Q 54 0 40.140625 0 
z
" id="DejaVuSans-65219"/>
     </defs>
     <g transform="translate(418.228125 407.6375)scale(0.1 -0.1)">
      <use xlink:href="#DejaVuSans-64403"/>
      <use x="89.501953" xlink:href="#DejaVuSans-64511"/>
      <use x="119.677734" xlink:href="#DejaVuSans-65176"/>
      <use x="149.853516" xlink:href="#DejaVuSans-65255"/>
      <use x="177.685547" xlink:href="#DejaVuSans-65166"/>
      <use x="208.154297" xlink:href="#DejaVuSans-64400"/>
      <use x="255.761719" xlink:href="#DejaVuSans-32"/>
      <use x="287.548828" xlink:href="#DejaVuSans-65245"/>
      <use x="360.205078" xlink:href="#DejaVuSans-65262"/>
      <use x="411.865234" xlink:href="#DejaVuSans-65219"/>
     </g>
    </g>
   </g>
   <g id="matplotlib.axis_2">
    <g id="ytick_1">
     <g id="line2d_9">
      <defs>
       <path d="M 0 0 
L -3.5 0 
" id="m36d93e33f5" style="stroke:#000000;stroke-width:0.8;"/>
      </defs>
      <g>
       <use style="stroke:#000000;stroke-width:0.8;" x="108" xlink:href="#m36d93e33f5" y="378"/>
      </g>
     </g>
     <g id="text_10">
      <!-- 0 -->
      <g transform="translate(94.6375 381.799219)scale(0.1 -0.1)">
       <use xlink:href="#DejaVuSans-48"/>
      </g>
     </g>
    </g>
    <g id="ytick_2">
     <g id="line2d_10">
      <g>
       <use style="stroke:#000000;stroke-width:0.8;" x="108" xlink:href="#m36d93e33f5" y="313.393392"/>
      </g>
     </g>
     <g id="text_11">
      <!-- 1000 -->
      <g transform="translate(75.55 317.192611)scale(0.1 -0.1)">
       <use xlink:href="#DejaVuSans-49"/>
       <use x="63.623047" xlink:href="#DejaVuSans-48"/>
       <use x="127.246094" xlink:href="#DejaVuSans-48"/>
       <use x="190.869141" xlink:href="#DejaVuSans-48"/>
      </g>
     </g>
    </g>
    <g id="ytick_3">
     <g id="line2d_11">
      <g>
       <use style="stroke:#000000;stroke-width:0.8;" x="108" xlink:href="#m36d93e33f5" y="248.786784"/>
      </g>
     </g>
     <g id="text_12">
      <!-- 2000 -->
      <g transform="translate(75.55 252.586003)scale(0.1 -0.1)">
       <use xlink:href="#DejaVuSans-50"/>
       <use x="63.623047" xlink:href="#DejaVuSans-48"/>
       <use x="127.246094" xlink:href="#DejaVuSans-48"/>
       <use x="190.869141" xlink:href="#DejaVuSans-48"/>
      </g>
     </g>
    </g>
    <g id="ytick_4">
     <g id="line2d_12">
      <g>
       <use style="stroke:#000000;stroke-width:0.8;" x="108" xlink:href="#m36d93e33f5" y="184.180176"/>
      </g>
     </g>
     <g id="text_13">
      <!-- 3000 -->
      <defs>
       <path d="M 40.578125 39.3125 
Q 47.65625 37.796875 51.625 33 
Q 55.609375 28.21875 55.609375 21.1875 
Q 55.609375 10.40625 48.1875 4.484375 
Q 40.765625 -1.421875 27.09375 -1.421875 
Q 22.515625 -1.421875 17.65625 -0.515625 
Q 12.796875 0.390625 7.625 2.203125 
L 7.625 11.71875 
Q 11.71875 9.328125 16.59375 8.109375 
Q 21.484375 6.890625 26.8125 6.890625 
Q 36.078125 6.890625 40.9375 10.546875 
Q 45.796875 14.203125 45.796875 21.1875 
Q 45.796875 27.640625 41.28125 31.265625 
Q 36.765625 34.90625 28.71875 34.90625 
L 20.21875 34.90625 
L 20.21875 43.015625 
L 29.109375 43.015625 
Q 36.375 43.015625 40.234375 45.921875 
Q 44.09375 48.828125 44.09375 54.296875 
Q 44.09375 59.90625 40.109375 62.90625 
Q 36.140625 65.921875 28.71875 65.921875 
Q 24.65625 65.921875 20.015625 65.03125 
Q 15.375 64.15625 9.8125 62.3125 
L 9.8125 71.09375 
Q 15.4375 72.65625 20.34375 73.4375 
Q 25.25 74.21875 29.59375 74.21875 
Q 40.828125 74.21875 47.359375 69.109375 
Q 53.90625 64.015625 53.90625 55.328125 
Q 53.90625 49.265625 50.4375 45.09375 
Q 46.96875 40.921875 40.578125 39.3125 
z
" id="DejaVuSans-51"/>
      </defs>
      <g transform="translate(75.55 187.979395)scale(0.1 -0.1)">
       <use xlink:href="#DejaVuSans-51"/>
       <use x="63.623047" xlink:href="#DejaVuSans-48"/>
       <use x="127.246094" xlink:href="#DejaVuSans-48"/>
       <use x="190.869141" xlink:href="#DejaVuSans-48"/>
      </g>
     </g>
    </g>
    <g id="ytick_5">
     <g id="line2d_13">
      <g>
       <use style="stroke:#000000;stroke-width:0.8;" x="108" xlink:href="#m36d93e33f5" y="119.573568"/>
      </g>
     </g>
     <g id="text_14">
      <!-- 4000 -->
      <defs>
       <path d="M 37.796875 64.3125 
L 12.890625 25.390625 
L 37.796875 25.390625 
z
M 35.203125 72.90625 
L 47.609375 72.90625 
L 47.609375 25.390625 
L 58.015625 25.390625 
L 58.015625 17.1875 
L 47.609375 17.1875 
L 47.609375 0 
L 37.796875 0 
L 37.796875 17.1875 
L 4.890625 17.1875 
L 4.890625 26.703125 
z
" id="DejaVuSans-52"/>
      </defs>
      <g transform="translate(75.55 123.372787)scale(0.1 -0.1)">
       <use xlink:href="#DejaVuSans-52"/>
       <use x="63.623047" xlink:href="#DejaVuSans-48"/>
       <use x="127.246094" xlink:href="#DejaVuSans-48"/>
       <use x="190.869141" xlink:href="#DejaVuSans-48"/>
      </g>
     </g>
    </g>
    <g id="ytick_6">
     <g id="line2d_14">
      <g>
       <use style="stroke:#000000;stroke-width:0.8;" x="108" xlink:href="#m36d93e33f5" y="54.96696"/>
      </g>
     </g>
     <g id="text_15">
      <!-- 5000 -->
      <g transform="translate(75.55 58.766179)scale(0.1 -0.1)">
       <use xlink:href="#DejaVuSans-53"/>
       <use x="63.623047" xlink:href="#DejaVuSans-48"/>
       <use x="127.246094" xlink:href="#DejaVuSans-48"/>
       <use x="190.869141" xlink:href="#DejaVuSans-48"/>
      </g>
     </g>
    </g>
    <g id="text_16">
     <!-- ﯽﻧﺍﻭﺍﺮﻓ -->
     <defs>
      <path d="M 53.71875 -1.609375 
Q 58.15625 0.875 58.15625 2.484375 
Q 58.109375 4.59375 55.8125 5.21875 
Q 54.390625 5.609375 52.9375 7.5625 
Q 50.78125 10.453125 50.78125 13.421875 
Q 50.78125 16.609375 53.328125 19.53125 
Q 57.234375 24.125 61.328125 24.8125 
Q 62.796875 25.09375 64.84375 25.09375 
Q 70.5625 25.09375 74.8125 18.5625 
Q 81.0625 8.984375 82.625 8.984375 
L 84.328125 8.984375 
L 84.328125 0 
L 82.625 0 
Q 77.046875 0 71.578125 8.40625 
Q 66.3125 16.453125 65.046875 16.453125 
Q 63.28125 16.453125 62.546875 16.15625 
Q 60.359375 15.328125 60.359375 13.625 
Q 60.359375 11.28125 63.53125 9.96875 
Q 67.09375 8.5 67.234375 2.484375 
Q 67.390625 -2.296875 61.859375 -6.5 
Q 55.609375 -11.1875 44.96875 -12.703125 
Q 40.625 -13.28125 35.546875 -13.28125 
Q 26.375 -13.28125 20.65625 -11.28125 
Q 6.34375 -6.25 6.34375 6.546875 
Q 6.34375 14.015625 9.421875 18.40625 
L 18.40625 18.40625 
Q 15.234375 14.015625 15.234375 6.546875 
Q 15.234375 0.984375 23.34375 -2.828125 
Q 26.5625 -4.34375 35.296875 -4.34375 
Q 39.75 -4.34375 43.5 -3.953125 
Q 50.78125 -3.21875 53.71875 -1.609375 
z
" id="DejaVuSans-64509"/>
      <path d="M 9.421875 75.984375 
L 18.40625 75.984375 
L 18.40625 0 
L 9.421875 0 
z
" id="DejaVuSans-65165"/>
      <path d="M 24.125 22.078125 
Q 21.046875 22.078125 18.890625 19.28125 
Q 17.71875 17.671875 17.71875 15.921875 
Q 17.71875 13.421875 20.21875 11.140625 
Q 22.515625 8.984375 31.890625 8.984375 
Q 31.890625 17.96875 27.6875 20.84375 
Q 25.875 22.078125 24.125 22.078125 
z
M 40.625 8.984375 
Q 40.625 -6.0625 32.234375 -13.875 
Q 27.59375 -18.171875 23.046875 -20.21875 
Q 13.671875 -24.421875 -4.15625 -24.421875 
L -4.15625 -15.4375 
Q 13.375 -15.4375 19.921875 -11.71875 
Q 28.125 -7.078125 31.15625 0.140625 
Q 25.390625 0.140625 23.1875 0.640625 
Q 15.875 2.25 13.921875 3.90625 
Q 8.25 8.6875 8.25 15.375 
Q 8.25 22.265625 12.59375 26.515625 
Q 17.671875 31.546875 24.359375 31.546875 
Q 28.71875 31.546875 32.234375 29.046875 
Q 38.578125 24.65625 39.796875 17.671875 
Q 40.625 12.703125 40.625 8.984375 
z
" id="DejaVuSans-65261"/>
      <path d="M 30.859375 26.859375 
L 39.84375 26.859375 
Q 41.3125 21.390625 41.453125 19.921875 
Q 41.9375 14.890625 45.515625 11.140625 
Q 47.5625 8.984375 52.484375 8.984375 
L 56.15625 8.984375 
L 56.15625 0 
L 49.8125 0 
Q 43.453125 0 41.015625 3.03125 
Q 37.703125 -10.546875 25.4375 -17.046875 
Q 11.578125 -24.421875 -4.15625 -24.421875 
L -4.15625 -15.4375 
Q 10.6875 -15.4375 20.609375 -9.1875 
Q 31.25 -2.4375 32.953125 7.71875 
Q 33.453125 10.546875 33.453125 14.0625 
Q 33.453125 20.21875 30.859375 26.859375 
z
" id="DejaVuSans-65198"/>
      <path d="M 29.203125 26.21875 
Q 31.203125 28.328125 31.203125 32.078125 
Q 31.203125 34.96875 27.984375 37.453125 
Q 26.46875 38.671875 24.3125 38.625 
Q 21.78125 38.578125 19.828125 36.53125 
Q 17.875 34.515625 17.828125 32.03125 
Q 17.828125 28.125 20.515625 26.265625 
Q 22.46875 25.046875 24.515625 25.046875 
Q 28.03125 25.046875 29.203125 26.21875 
z
M -0.984375 8.984375 
L 10.796875 8.984375 
Q 14.890625 8.984375 22.265625 10.109375 
Q 26.125 10.6875 29.046875 15.234375 
Q 30.5625 17.578125 31.296875 20.015625 
Q 28.21875 17.328125 23.484375 17.234375 
Q 17.140625 17.140625 13.328125 20.515625 
Q 8.546875 24.75 8.546875 31.0625 
Q 8.546875 33.59375 8.9375 35.75 
Q 10.0625 42.96875 17.390625 46.34375 
Q 21.1875 48.09375 24.90625 48.09375 
Q 29.296875 48.09375 32.515625 45.65625 
Q 37.203125 42.140625 39.453125 37.15625 
Q 40.578125 34.671875 40.578125 27.828125 
Q 40.578125 17.671875 36.765625 10.6875 
Q 33.15625 4.046875 27.09375 1.90625 
Q 21.78125 0 14.703125 0 
L -0.984375 0 
z
M 20.75 63.328125 
L 28.078125 63.328125 
L 28.078125 56 
L 20.75 56 
z
" id="DejaVuSans-65235"/>
     </defs>
     <g transform="translate(69.107812 230.82)rotate(-90)scale(0.1 -0.1)">
      <use xlink:href="#DejaVuSans-64509"/>
      <use x="83.349609" xlink:href="#DejaVuSans-65255"/>
      <use x="111.181641" xlink:href="#DejaVuSans-65165"/>
      <use x="138.964844" xlink:href="#DejaVuSans-65261"/>
      <use x="187.255859" xlink:href="#DejaVuSans-65165"/>
      <use x="215.039062" xlink:href="#DejaVuSans-65198"/>
      <use x="270.214844" xlink:href="#DejaVuSans-65235"/>
     </g>
    </g>
   </g>
   <g id="patch_103">
    <path d="M 108 378 
L 108 51.84 
" style="fill:none;stroke:#000000;stroke-linecap:square;stroke-linejoin:miter;stroke-width:0.8;"/>
   </g>
   <g id="patch_104">
    <path d="M 777.6 378 
L 777.6 51.84 
" style="fill:none;stroke:#000000;stroke-linecap:square;stroke-linejoin:miter;stroke-width:0.8;"/>
   </g>
   <g id="patch_105">
    <path d="M 108 378 
L 777.6 378 
" style="fill:none;stroke:#000000;stroke-linecap:square;stroke-linejoin:miter;stroke-width:0.8;"/>
   </g>
   <g id="patch_106">
    <path d="M 108 51.84 
L 777.6 51.84 
" style="fill:none;stroke:#000000;stroke-linecap:square;stroke-linejoin:miter;stroke-width:0.8;"/>
   </g>
   <g id="text_17">
    <!-- ﺎﻫﮓﯿﺘﻧﺎﮐ ﻝﻮﻃ ﯽﻧﺍﻭﺍﺮﻓ ﺭﺍﺩﻮﻤﻧ -->
    <defs>
     <path d="M 19.734375 13.140625 
Q 21.484375 14.453125 23.140625 17.578125 
Q 25.046875 21.09375 25.046875 24.078125 
Q 25.046875 26.3125 24.3125 28.125 
Q 23.25 30.671875 20.40625 30.671875 
Q 17.234375 30.671875 16.109375 28.46875 
Q 15.046875 26.375 15.046875 24.65625 
Q 15.046875 23.1875 15.375 21.390625 
Q 16.40625 15.625 19.734375 13.140625 
z
M 4.25 8.984375 
Q 6.78125 8.984375 10.59375 9.515625 
Q 8.40625 14.65625 7.671875 18.015625 
Q 6.78125 21.828125 6.78125 24.953125 
Q 6.78125 29.046875 8.984375 33.109375 
Q 11.328125 37.5 15.09375 37.0625 
Q 12.9375 38.96875 8.984375 39.65625 
L 8.984375 48.6875 
Q 19.875 45.359375 30.421875 36.625 
Q 42.921875 26.421875 46.046875 15.578125 
Q 46.734375 13.03125 46.734375 10.25 
Q 46.734375 5.21875 44.78125 2.25 
Q 41.15625 -3.265625 32.625 -3.265625 
Q 26.21875 -3.265625 18.703125 2 
Q 12.84375 0 5.71875 0 
L -0.984375 0 
L -0.984375 8.984375 
z
M 32.375 24.8125 
Q 32.671875 23 32.671875 21.09375 
Q 32.671875 13.921875 27.875 8.796875 
Q 27.296875 8.109375 26.46875 7.171875 
Q 29 4.9375 31.390625 4.9375 
Q 37.5 4.9375 38.328125 8.203125 
Q 38.671875 9.671875 38.671875 11.28125 
Q 38.671875 14.203125 37.0625 18.015625 
Q 35.640625 21.390625 32.375 24.8125 
z
" id="DejaVuSans-65259"/>
     <path d="M 32.953125 7.71875 
Q 33.453125 10.546875 33.453125 14.0625 
Q 33.453125 20.21875 30.859375 26.859375 
L 39.84375 26.859375 
Q 42.28125 21.09375 42.28125 14.65625 
Q 42.28125 10.640625 41.890625 7.625 
Q 39.65625 -9.46875 25.4375 -17.046875 
Q 11.578125 -24.421875 -4.15625 -24.421875 
L -4.15625 -15.4375 
Q 10.6875 -15.4375 20.609375 -9.1875 
Q 31.25 -2.4375 32.953125 7.71875 
z
" id="DejaVuSans-65197"/>
     <path d="M 19.09375 7.375 
Q 27.484375 9.765625 29.203125 15.234375 
Q 29.59375 16.546875 29.59375 18.609375 
Q 29.59375 22.40625 26.65625 28.078125 
Q 23.4375 34.375 14.984375 41.5 
L 26.078125 41.5 
Q 31.59375 37.0625 34.8125 31 
Q 38.8125 23.578125 38.8125 18.453125 
Q 38.8125 13.625 37.25 9.96875 
Q 33.34375 0.484375 20.5625 -1.515625 
Q 18.3125 -1.859375 16.109375 -1.859375 
Q 11.140625 -1.859375 6.109375 0 
L 6.109375 8.984375 
Q 11.71875 6.9375 15.828125 6.9375 
Q 17.4375 6.9375 19.09375 7.375 
z
" id="DejaVuSans-65193"/>
     <path d="M 42.390625 2.546875 
Q 37.640625 -2.4375 30.859375 -2.4375 
Q 20.40625 -2.4375 15.046875 2.34375 
Q 11.921875 0 6.84375 0 
L -0.984375 0 
L -0.984375 8.984375 
L 4.6875 8.984375 
Q 7.234375 8.984375 9.375 10.75 
Q 11.46875 12.453125 11.71875 14.84375 
Q 12.703125 23.6875 19.28125 27.59375 
Q 23.875 30.328125 28.421875 30.328125 
Q 31.9375 30.328125 35.15625 28.90625 
Q 44.578125 24.859375 45.40625 16.703125 
Q 45.65625 14.3125 48.140625 11.28125 
Q 49.90625 9.125 55.125 9.125 
L 58.796875 9.125 
L 58.796875 0.140625 
L 52.4375 0.140625 
Q 43.84375 0.140625 42.390625 2.546875 
z
M 19.828125 9.71875 
Q 22.859375 6.34375 30.609375 6.34375 
Q 32.90625 6.34375 33.84375 7.234375 
Q 36.375 9.8125 36.375 13.1875 
Q 36.375 14.109375 36.140625 14.984375 
Q 35.0625 19.28125 32.234375 20.125 
Q 30.328125 20.703125 28.421875 20.703125 
Q 25.828125 20.703125 23.828125 19.390625 
Q 21.390625 17.78125 20.65625 13.03125 
Q 20.3125 11.234375 19.828125 9.71875 
z
" id="DejaVuSans-65252"/>
    </defs>
    <g transform="translate(369.953438 45.84)scale(0.12 -0.12)">
     <use xlink:href="#DejaVuSans-65166"/>
     <use x="30.46875" xlink:href="#DejaVuSans-65259"/>
     <use x="83.203125" xlink:href="#DejaVuSans-64403"/>
     <use x="172.705078" xlink:href="#DejaVuSans-64511"/>
     <use x="202.880859" xlink:href="#DejaVuSans-65176"/>
     <use x="233.056641" xlink:href="#DejaVuSans-65255"/>
     <use x="260.888672" xlink:href="#DejaVuSans-65166"/>
     <use x="291.357422" xlink:href="#DejaVuSans-64400"/>
     <use x="338.964844" xlink:href="#DejaVuSans-32"/>
     <use x="370.751953" xlink:href="#DejaVuSans-65245"/>
     <use x="443.408203" xlink:href="#DejaVuSans-65262"/>
     <use x="495.068359" xlink:href="#DejaVuSans-65219"/>
     <use x="574.658203" xlink:href="#DejaVuSans-32"/>
     <use x="606.445312" xlink:href="#DejaVuSans-64509"/>
     <use x="689.794922" xlink:href="#DejaVuSans-65255"/>
     <use x="717.626953" xlink:href="#DejaVuSans-65165"/>
     <use x="745.410156" xlink:href="#DejaVuSans-65261"/>
     <use x="793.701172" xlink:href="#DejaVuSans-65165"/>
     <use x="821.484375" xlink:href="#DejaVuSans-65198"/>
     <use x="876.660156" xlink:href="#DejaVuSans-65235"/>
     <use x="924.462891" xlink:href="#DejaVuSans-32"/>
     <use x="956.25" xlink:href="#DejaVuSans-65197"/>
     <use x="1004.541016" xlink:href="#DejaVuSans-65165"/>
     <use x="1032.324219" xlink:href="#DejaVuSans-65193"/>
     <use x="1076.855469" xlink:href="#DejaVuSans-65262"/>
     <use x="1128.515625" xlink:href="#DejaVuSans-65252"/>
     <use x="1186.328125" xlink:href="#DejaVuSans-65255"/>
    </g>
   </g>
  </g>
 </g>
 <defs>
  <clipPath id="pf65c1d1dde">
   <rect height="326.16" width="669.6" x="108" y="51.84"/>
  </clipPath>
 </defs>
</svg>
